<svg width="546" height="122" viewBox="0 0 546 122" fill="none" xmlns="http://www.w3.org/2000/svg">
<path d="M546 1.77613V0H0V1.77613C9.28533 1.77613 8.52693 5.166 8.52693 10.5654V113.053C8.52693 113.946 8.52693 119.792 2.30596 119.792H0V121.629H546V119.853C538.488 119.853 537.381 118.899 537.381 111.074V10.5857C537.381 7.06392 537.084 1.76598 546 1.76598V1.77613ZM471.215 89.8823L458.712 61.6875H491.743L479.619 89.8823H471.215ZM478.861 91.6483L475.479 99.4937L472.004 91.6483H478.871H478.861ZM274.255 89.8823L262.961 61.6875H293.257L282.362 89.8823H274.255ZM281.676 91.6483L278.375 100.184L274.963 91.6483H281.676ZM122.513 89.8823C121.109 87.3044 119.971 84.6148 119.121 81.773C117.174 75.4602 116.241 68.9545 116.241 62.124V61.6977H176.944C186.291 61.6977 188.894 64.3873 188.894 69.0458V89.8823H122.523H122.513ZM188.884 91.6483V105.847C188.084 107.37 181.546 113.124 164.051 113.124C157.328 113.124 150.933 112.018 145.06 109.948C139.116 107.765 133.797 104.223 129.185 99.0675C127.012 96.723 125.127 94.2567 123.538 91.6483H188.884ZM38.1457 8.40363C38.1457 8.40363 65.766 7.08422 68.3896 29.9608H23.982V8.40363H38.1457ZM68.5331 31.7268C68.5639 32.3154 68.6049 32.9142 68.6049 33.5333C68.6049 33.5333 70.5521 58.4398 40.2159 59.8099H23.982V31.7268H68.5331ZM429.657 31.7268L442.099 59.9216H422.841V31.7268H429.657ZM422.841 29.9608V16.2795L428.888 29.9608H422.841ZM521.977 29.9608H515.11L521.977 14.0467V29.9608ZM521.977 31.7268V59.9216H502.156L514.342 31.7268H521.977ZM492.502 59.9216H457.912L445.409 31.7268H504.616L492.502 59.9216ZM412.869 59.9216H373.678V31.7268H412.869V59.9216ZM358.213 59.9216H304.469L315.486 31.7268H358.213V59.9216ZM293.933 59.9216H262.244L250.94 31.7268H304.817L293.923 59.9216H293.933ZM246.399 59.9216H116.282C116.446 53.4869 117.378 47.3263 119.029 41.4194C120.012 37.9584 121.314 34.731 122.903 31.7268H234.747L246.399 59.9216ZM104.721 36.3244C101.852 43.6421 100.437 51.4976 100.376 59.9216H71.7307C85.1258 49.5185 84.4494 33.8581 84.4494 33.8581C84.4494 33.8581 84.4699 33.0665 84.3571 31.7268H106.792C106.043 33.2289 105.357 34.7513 104.721 36.3244ZM39.5395 68.9646C53.1601 68.9646 62.6196 65.9502 69.2403 61.6875H100.417C100.56 72.5778 102.59 81.976 106.464 89.8823H23.982V68.9646H39.5498H39.5395ZM211.523 61.6875H247.137L258.79 89.8823H203.345V68.3353C203.345 68.3353 202.986 61.6977 211.513 61.6977L211.523 61.6875ZM303.762 61.6875H358.213V89.8823H292.734L303.762 61.6875ZM373.678 61.6875H412.869V89.8823H373.678V61.6875ZM422.841 61.6875H442.898L455.33 89.8823H422.841V61.6875ZM501.387 61.6875H521.977V89.8823H489.202L501.387 61.6875ZM517.488 1.76598L505.384 29.9608H444.63L432.116 1.76598H517.488ZM403.143 1.76598C412.562 1.76598 412.869 3.67405 412.869 10.5857V29.9608H373.678V8.56602C373.678 7.64243 373.678 1.77613 379.899 1.77613H403.143V1.76598ZM351.982 1.76598C358.213 1.76598 358.213 7.63229 358.213 8.55587V29.9506H316.183L324.331 9.13438C325.171 7.11467 327.364 1.76598 332.601 1.76598H351.982ZM306.477 1.76598C316.449 1.76598 313.815 8.40363 312.545 11.7732L305.524 29.9506H250.243L241.388 7.84542C239.861 3.77555 239.871 1.76598 248.193 1.76598H306.477ZM215.5 1.76598C222.499 1.76598 224.57 7.27706 225.564 9.48961L234.029 29.9608H123.886C125.045 27.9715 126.315 26.0837 127.719 24.3076C131.542 19.4156 136.492 15.6096 142.344 12.7272C148.186 9.94633 155.258 8.47468 163.221 8.47468C163.221 8.47468 186.711 7.53079 199.173 28.8748V1.77613H215.51L215.5 1.76598ZM192.235 7.58154C191.313 7.16542 180.5 2.38509 178.184 1.76598H197.226C197.226 7.18572 196.007 9.30692 192.235 7.58154ZM144.886 1.76598C141.801 2.49673 138.819 3.44062 135.949 4.59764C128.642 7.72363 122.288 11.9254 117.051 17.1828C113.351 20.9482 110.245 25.2312 107.704 29.9608H84.1522C83.117 22.6127 78.3821 7.00303 57.3723 1.76598H144.876H144.886ZM30.2234 119.843C23.982 119.843 23.982 113.936 23.982 113.043V91.6585H107.396C107.509 91.8716 107.611 92.0949 107.724 92.308C112.603 101.148 119.039 107.877 127.176 112.759C132.188 115.763 138.368 118.331 146.577 119.843H30.2234ZM177.036 119.843C187.008 117.874 197.81 114.068 203.355 109.349V91.6585H259.538L271.181 119.843H177.036ZM281.009 119.843L292.037 91.6585H358.223V113.043C358.223 113.977 358.223 119.843 351.992 119.843H281.02H281.009ZM379.909 119.843C373.688 119.843 373.688 113.977 373.688 113.043V91.6585H412.88V112.444C412.88 115.367 412.08 119.843 403.154 119.843H379.909ZM432.27 119.843C422.647 119.843 422.852 112.444 422.852 112.444V91.6585H456.129L468.571 119.843H432.27ZM476.247 119.843L488.443 91.6585H521.987V111.064C521.987 115.154 522.469 119.843 512.712 119.843H476.247Z" fill="white"/>
</svg>
