<svg width="60" height="60" viewBox="0 0 60 60" fill="none" xmlns="http://www.w3.org/2000/svg">
<g id="_x3C_Layer_x3E_" clip-path="url(#clip0_1073_10387)">
<path id="Vector" d="M30.0016 1.88117C45.5056 1.88117 58.122 14.4944 58.122 30.0016C58.122 45.5087 45.5087 58.122 30.0016 58.122C14.4944 58.122 1.88117 45.5056 1.88117 30.0016C1.88117 14.4976 14.4944 1.88117 30.0016 1.88117ZM30.0016 0C13.4316 0 0 13.4316 0 30.0016C0 46.5716 13.4316 60.0031 30.0016 60.0031C46.5716 60.0031 60.0031 46.5716 60.0031 30.0016C60.0031 13.4316 46.5684 0 30.0016 0Z" fill="#81A962"/>
<path id="Vector_2" d="M30.0015 15.181C38.172 15.181 44.822 21.8278 44.822 30.0015C44.822 38.1752 38.1752 44.822 30.0015 44.822C21.8278 44.822 15.181 38.1752 15.181 30.0015C15.181 21.8278 21.8278 15.181 30.0015 15.181ZM30.0015 13.2998C20.7775 13.2998 13.2998 20.7775 13.2998 30.0015C13.2998 39.2255 20.7775 46.7032 30.0015 46.7032C39.2255 46.7032 46.7032 39.2255 46.7032 30.0015C46.7032 20.7775 39.2255 13.2998 30.0015 13.2998Z" fill="#81A962"/>
<path id="Vector_3" d="M30.0019 6.31452C43.0635 6.31452 53.689 16.94 53.689 30.0016C53.689 43.0632 43.0635 53.6887 30.0019 53.6887C16.9403 53.6887 6.31477 43.0601 6.31477 30.0016C6.31477 16.9431 16.9403 6.31452 30.0019 6.31452ZM30.0019 4.43335C15.8805 4.43335 4.43359 15.8803 4.43359 30.0016C4.43359 44.123 15.8805 55.5699 30.0019 55.5699C44.1232 55.5699 55.5701 44.123 55.5701 30.0016C55.5701 15.8803 44.1201 4.43335 30.0019 4.43335Z" fill="#81A962"/>
<path id="Vector_4" d="M30.0012 10.7479C40.6173 10.7479 49.255 19.3856 49.255 30.0017C49.255 40.6178 40.6173 49.2555 30.0012 49.2555C19.3851 49.2555 10.7474 40.6178 10.7474 30.0017C10.7474 19.3856 19.3851 10.7479 30.0012 10.7479ZM30.0012 8.8667C18.3285 8.8667 8.86621 18.329 8.86621 30.0017C8.86621 41.6744 18.3285 51.1367 30.0012 51.1367C41.6739 51.1367 51.1362 41.6744 51.1362 30.0017C51.1362 18.329 41.6707 8.8667 30.0012 8.8667Z" fill="#81A962"/>
</g>
<defs>
<clipPath id="clip0_1073_10387">
<rect width="60" height="60" fill="white"/>
</clipPath>
</defs>
</svg>
