<svg width="60" height="60" viewBox="0 0 60 60" fill="none" xmlns="http://www.w3.org/2000/svg">
<path id="Vector" d="M40.4979 11.9615C40.4979 13.6599 39.8233 15.2981 38.6188 16.5027L36.7517 18.3698C35.5471 19.5744 33.9089 20.2489 32.2104 20.2489H27.7655C26.0671 20.2489 24.4288 19.5744 23.2243 18.3698L21.3572 16.5027C20.1526 15.2981 19.478 13.6599 19.478 11.9615V0H0V19.4901H11.9615C13.6599 19.4901 15.2981 20.1646 16.5027 21.3692L18.3698 23.2363C19.5744 24.4409 20.2489 26.0791 20.2489 27.7776V32.2224C20.2489 33.9209 19.5744 35.5591 18.3698 36.7637L16.5027 38.6308C15.2981 39.8354 13.6599 40.5099 11.9615 40.5099H0V60H19.4901V48.0385C19.4901 46.3401 20.1646 44.7019 21.3692 43.4973L23.2363 41.6302C24.4409 40.4256 26.0791 39.7511 27.7776 39.7511H32.2224C33.9209 39.7511 35.5591 40.4256 36.7637 41.6302L38.6308 43.4973C39.8354 44.7019 40.5099 46.3401 40.5099 48.0385V60H60V40.5099H48.0385C46.3401 40.5099 44.7019 39.8354 43.4973 38.6308L41.6302 36.7637C40.4256 35.5591 39.7511 33.9209 39.7511 32.2224V27.7776C39.7511 26.0791 40.4256 24.4409 41.6302 23.2363L43.4973 21.3692C44.7019 20.1646 46.3401 19.4901 48.0385 19.4901H60V0H40.5099V11.9615H40.4979Z" fill="#B74A3F"/>
</svg>
