<svg width="120" height="120" viewBox="0 0 120 120" fill="none" xmlns="http://www.w3.org/2000/svg">
<g clip-path="url(#clip0_837_8321)">
<path d="M60.0029 120V0" stroke="#CFE8E6" stroke-width="2.5" stroke-miterlimit="10"/>
<path d="M49.582 119.093L70.4181 0.914062" stroke="#CFE8E6" stroke-width="2.5" stroke-miterlimit="10"/>
<path d="M39.4766 116.384L80.5242 3.61621" stroke="#CFE8E6" stroke-width="2.5" stroke-miterlimit="10"/>
<path d="M30.002 111.965L89.9987 8.04102" stroke="#CFE8E6" stroke-width="2.5" stroke-miterlimit="10"/>
<path d="M21.4346 105.962L98.5657 14.0376" stroke="#CFE8E6" stroke-width="2.5" stroke-miterlimit="10"/>
<path d="M14.0371 98.5657L105.962 21.4346" stroke="#CFE8E6" stroke-width="2.5" stroke-miterlimit="10"/>
<path d="M8.04102 89.9982L111.965 30.0015" stroke="#CFE8E6" stroke-width="2.5" stroke-miterlimit="10"/>
<path d="M3.61621 80.524L116.384 39.4829" stroke="#CFE8E6" stroke-width="2.5" stroke-miterlimit="10"/>
<path d="M0.914062 70.4181L119.093 49.582" stroke="#CFE8E6" stroke-width="2.5" stroke-miterlimit="10"/>
<path d="M0 60.0034H120" stroke="#CFE8E6" stroke-width="2.5" stroke-miterlimit="10"/>
<path d="M0.914062 49.582L119.093 70.4181" stroke="#CFE8E6" stroke-width="2.5" stroke-miterlimit="10"/>
<path d="M3.61621 39.4829L116.384 80.524" stroke="#CFE8E6" stroke-width="2.5" stroke-miterlimit="10"/>
<path d="M8.04102 30.0015L111.965 89.9982" stroke="#CFE8E6" stroke-width="2.5" stroke-miterlimit="10"/>
<path d="M14.0371 21.4346L105.962 98.5657" stroke="#CFE8E6" stroke-width="2.5" stroke-miterlimit="10"/>
<path d="M21.4346 14.0376L98.5657 105.962" stroke="#CFE8E6" stroke-width="2.5" stroke-miterlimit="10"/>
<path d="M30.002 8.04102L89.9987 111.965" stroke="#CFE8E6" stroke-width="2.5" stroke-miterlimit="10"/>
<path d="M39.4766 3.61621L80.5242 116.384" stroke="#CFE8E6" stroke-width="2.5" stroke-miterlimit="10"/>
<path d="M49.582 0.914062L70.4181 119.093" stroke="#CFE8E6" stroke-width="2.5" stroke-miterlimit="10"/>
</g>
<defs>
<clipPath id="clip0_837_8321">
<rect width="120" height="120" fill="white"/>
</clipPath>
</defs>
</svg>
