<svg width="120" height="120" viewBox="0 0 120 120" fill="none" xmlns="http://www.w3.org/2000/svg">
<g id="_x3C_Layer_x3E_" clip-path="url(#clip0_1058_10278)">
<path id="Vector" d="M60.0029 120V0" stroke="#DCAB49" stroke-width="2.5" stroke-miterlimit="10"/>
<path id="Vector_2" d="M49.582 119.093L70.4181 0.913818" stroke="#DCAB49" stroke-width="2.5" stroke-miterlimit="10"/>
<path id="Vector_3" d="M39.4766 116.384L80.5242 3.61621" stroke="#DCAB49" stroke-width="2.5" stroke-miterlimit="10"/>
<path id="Vector_4" d="M30.002 111.965L89.9987 8.04126" stroke="#DCAB49" stroke-width="2.5" stroke-miterlimit="10"/>
<path id="Vector_5" d="M21.4346 105.962L98.5657 14.0376" stroke="#DCAB49" stroke-width="2.5" stroke-miterlimit="10"/>
<path id="Vector_6" d="M14.0371 98.5655L105.962 21.4343" stroke="#DCAB49" stroke-width="2.5" stroke-miterlimit="10"/>
<path id="Vector_7" d="M8.04102 89.9984L111.965 30.0017" stroke="#DCAB49" stroke-width="2.5" stroke-miterlimit="10"/>
<path id="Vector_8" d="M3.61621 80.5237L116.384 39.4827" stroke="#DCAB49" stroke-width="2.5" stroke-miterlimit="10"/>
<path id="Vector_9" d="M0.914062 70.4179L119.093 49.5818" stroke="#DCAB49" stroke-width="2.5" stroke-miterlimit="10"/>
<path id="Vector_10" d="M0 60.0032H120" stroke="#DCAB49" stroke-width="2.5" stroke-miterlimit="10"/>
<path id="Vector_11" d="M0.914062 49.5818L119.093 70.4179" stroke="#DCAB49" stroke-width="2.5" stroke-miterlimit="10"/>
<path id="Vector_12" d="M3.61621 39.4827L116.384 80.5237" stroke="#DCAB49" stroke-width="2.5" stroke-miterlimit="10"/>
<path id="Vector_13" d="M8.04102 30.0017L111.965 89.9984" stroke="#DCAB49" stroke-width="2.5" stroke-miterlimit="10"/>
<path id="Vector_14" d="M14.0371 21.4343L105.962 98.5655" stroke="#DCAB49" stroke-width="2.5" stroke-miterlimit="10"/>
<path id="Vector_15" d="M21.4346 14.0376L98.5657 105.962" stroke="#DCAB49" stroke-width="2.5" stroke-miterlimit="10"/>
<path id="Vector_16" d="M30.002 8.04126L89.9987 111.965" stroke="#DCAB49" stroke-width="2.5" stroke-miterlimit="10"/>
<path id="Vector_17" d="M39.4766 3.61621L80.5242 116.384" stroke="#DCAB49" stroke-width="2.5" stroke-miterlimit="10"/>
<path id="Vector_18" d="M49.582 0.913818L70.4181 119.093" stroke="#DCAB49" stroke-width="2.5" stroke-miterlimit="10"/>
</g>
<defs>
<clipPath id="clip0_1058_10278">
<rect width="120" height="120" fill="white"/>
</clipPath>
</defs>
</svg>
