<svg width="57" height="57" viewBox="0 0 57 57" fill="none" xmlns="http://www.w3.org/2000/svg">
<g id="_x3C_Layer_x3E_" opacity="0.3" clip-path="url(#clip0_1299_3189)">
<path id="Vector" d="M28.502 57V0" stroke="white" stroke-width="1.1875" stroke-miterlimit="10"/>
<path id="Vector_2" d="M23.5518 56.569L33.4489 0.434082" stroke="white" stroke-width="1.1875" stroke-miterlimit="10"/>
<path id="Vector_3" d="M18.751 55.2823L38.2486 1.71777" stroke="white" stroke-width="1.1875" stroke-miterlimit="10"/>
<path id="Vector_4" d="M14.251 53.1836L42.7494 3.81958" stroke="white" stroke-width="1.1875" stroke-miterlimit="10"/>
<path id="Vector_5" d="M10.1816 50.3323L46.8189 6.66797" stroke="white" stroke-width="1.1875" stroke-miterlimit="10"/>
<path id="Vector_6" d="M6.66797 46.8187L50.3323 10.1814" stroke="white" stroke-width="1.1875" stroke-miterlimit="10"/>
<path id="Vector_7" d="M3.81934 42.7492L53.1833 14.2507" stroke="white" stroke-width="1.1875" stroke-miterlimit="10"/>
<path id="Vector_8" d="M1.71777 38.2486L55.2823 18.7542" stroke="white" stroke-width="1.1875" stroke-miterlimit="10"/>
<path id="Vector_9" d="M0.43457 33.4484L56.5695 23.5513" stroke="white" stroke-width="1.1875" stroke-miterlimit="10"/>
<path id="Vector_10" d="M0 28.5015H57" stroke="white" stroke-width="1.1875" stroke-miterlimit="10"/>
<path id="Vector_11" d="M0.43457 23.5513L56.5695 33.4484" stroke="white" stroke-width="1.1875" stroke-miterlimit="10"/>
<path id="Vector_12" d="M1.71777 18.7542L55.2823 38.2486" stroke="white" stroke-width="1.1875" stroke-miterlimit="10"/>
<path id="Vector_13" d="M3.81934 14.2507L53.1833 42.7492" stroke="white" stroke-width="1.1875" stroke-miterlimit="10"/>
<path id="Vector_14" d="M6.66797 10.1814L50.3323 46.8187" stroke="white" stroke-width="1.1875" stroke-miterlimit="10"/>
<path id="Vector_15" d="M10.1816 6.66797L46.8189 50.3323" stroke="white" stroke-width="1.1875" stroke-miterlimit="10"/>
<path id="Vector_16" d="M14.251 3.81958L42.7494 53.1836" stroke="white" stroke-width="1.1875" stroke-miterlimit="10"/>
<path id="Vector_17" d="M18.751 1.71777L38.2486 55.2823" stroke="white" stroke-width="1.1875" stroke-miterlimit="10"/>
<path id="Vector_18" d="M23.5518 0.434082L33.4489 56.569" stroke="white" stroke-width="1.1875" stroke-miterlimit="10"/>
</g>
<defs>
<clipPath id="clip0_1299_3189">
<rect width="57" height="57" fill="white"/>
</clipPath>
</defs>
</svg>
