<?xml version="1.0" standalone="no"?>
<!DOCTYPE svg PUBLIC "-//W3C//DTD SVG 1.1//EN" "http://www.w3.org/Graphics/SVG/1.1/DTD/svg11.dtd" >
<svg xmlns="http://www.w3.org/2000/svg" xmlns:xlink="http://www.w3.org/1999/xlink" version="1.1">
<metadata>
Created by FontForge 20201107 at Wed Jul 10 16:59:09 2024
 By 
Copyright 2019 The Anuphan Project Authors (https://github.com/cadsondemak/Anuphan)
</metadata>
<defs>
<font id="Anuphan-ExtraLight" horiz-adv-x="0" >
  <font-face 
    font-family="Anuphan ExtraLight"
    font-weight="250"
    font-stretch="normal"
    units-per-em="1000"
    panose-1="0 0 0 0 0 0 0 0 0 0"
    ascent="800"
    descent="-200"
    x-height="509"
    cap-height="698"
    bbox="-553 -303 1190 1100"
    underline-thickness="31"
    underline-position="-184"
    unicode-range="U+0020-FB02"
  />
<missing-glyph horiz-adv-x="472" 
d="M32 0v780h408v-780h-408zM63 31h346v718h-346v-718z" />
    <glyph glyph-name="fi" unicode="fi" horiz-adv-x="529" 
d="M120 0v473h-90v36h90v172q0 27 14 43t43 16h98v-36h-115v-195h271v-509h-41v473h-230v-473h-40zM411 661q-17 0 -24.5 8.5t-7.5 20.5v9q0 12 7.5 20.5t24.5 8.5t24 -8.5t7 -20.5v-9q0 -12 -7 -20.5t-24 -8.5z" />
    <glyph glyph-name="fl" unicode="fl" horiz-adv-x="556" 
d="M120 0v473h-90v36h90v172q0 27 14 43t43 16h98v-36h-115v-195h115v-36h-115v-473h-40zM444 0q-24 0 -36 12.5t-12 34.5v693h41v-704h82v-36h-75z" />
    <glyph glyph-name="uni0E240E45" unicode="&#xe24;&#xe45;" horiz-adv-x="939" 
d="M454 -200v574q0 84 -44 125.5t-126 41.5q-84 0 -127 -42t-43 -133l-17 14h171v-31q-64 -7 -99 -42.5t-35 -102.5v-168h104v-36h-86q-30 0 -44.5 16t-14.5 48v124q0 48 14 80t39 51.5t55 27.5v3h-126v24q0 100 53.5 152t155.5 52q79 0 128 -30.5t68 -88.5h5
q10 48 54.5 83.5t118.5 35.5q91 0 141 -52t50 -149v-577h-42v574q0 85 -41.5 126t-116.5 41q-41 0 -76 -15t-56.5 -44t-21.5 -75v-607h-41z" />
    <glyph glyph-name="uni0E260E45" unicode="&#xe26;&#xe45;" horiz-adv-x="945" 
d="M459 -200v566q0 89 -44 132t-129 43q-86 0 -128.5 -41.5t-42.5 -132.5l-16 13h178v-31q-42 -5 -70.5 -23.5t-43 -49t-14.5 -72.5v-144q0 -23 -5.5 -36t-17.5 -18.5t-32 -5.5h-60v36h74v154q0 47 14 79t38.5 51t54.5 27v3h-141v24q0 100 54.5 152t157.5 52q109 0 162 -54
t53 -154v-570h-42zM813 -200v574q0 85 -41 126t-115 41q-42 0 -77.5 -15t-57 -44t-21.5 -75v-63l-21 119h10q15 49 58.5 82t118.5 33q89 0 138 -52t49 -149v-577h-41z" />
    <glyph glyph-name=".notdef" horiz-adv-x="472" 
d="M32 0v780h408v-780h-408zM63 31h346v718h-346v-718z" />
    <glyph glyph-name=".null" 
 />
    <glyph glyph-name="nonmarkingreturn" horiz-adv-x="333" 
 />
    <glyph glyph-name="space" unicode=" " horiz-adv-x="236" 
 />
    <glyph glyph-name="exclam" unicode="!" horiz-adv-x="263" 
d="M121 179l-12 263v256h44v-256l-11 -263h-21zM131 -7q-19 0 -28.5 9.5t-9.5 26.5v9q0 17 9.5 26.5t28.5 9.5q20 0 29.5 -9.5t9.5 -26.5v-9q0 -17 -9.5 -26.5t-29.5 -9.5z" />
    <glyph glyph-name="quotedbl" unicode="&#x22;" horiz-adv-x="388" 
d="M256 480v260h37v-260h-37zM95 480v260h37v-260h-37z" />
    <glyph glyph-name="numbersign" unicode="#" horiz-adv-x="712" 
d="M172 0l37 215h-142v33h148l34 202h-143v33h149l37 215h35l-37 -215h176l37 215h35l-37 -215h143v-33h-149l-34 -202h144v-33h-150l-37 -215h-35l37 215h-175l-38 -215h-35zM250 248h175l35 202h-175z" />
    <glyph glyph-name="dollar" unicode="$" horiz-adv-x="564" 
d="M269 -82v82q-81 3 -134 35t-90 81l32 26q35 -45 80 -73t112 -32v306q-109 23 -157.5 64t-48.5 119q0 83 56.5 126t149.5 46v82h34v-82q69 -4 116 -30.5t77 -70.5l-32 -24q-27 39 -66.5 61.5t-95.5 26.5v-285q109 -20 156.5 -62t47.5 -124q0 -88 -55 -136.5t-148 -53.5
v-82h-34zM302 37q77 5 120 43.5t43 107.5q0 68 -38 101t-125 49v-301zM269 383v278q-77 -2 -121 -35.5t-44 -97.5q0 -43 16.5 -70.5t53 -44.5t95.5 -30z" />
    <glyph glyph-name="percent" unicode="%" horiz-adv-x="897" 
d="M186 0l484 698h41l-484 -698h-41zM219 322q-42 0 -75.5 20.5t-52.5 63.5t-19 110t19 110t52.5 63.5t75.5 20.5q43 0 76 -20.5t52 -63.5t19 -110t-19 -110t-52 -63.5t-76 -20.5zM219 351q30 0 55 15t39.5 47t14.5 82v42q0 50 -14.5 82t-39.5 47t-55 15t-55 -15t-39.5 -47
t-14.5 -82v-42q0 -50 14.5 -82t39.5 -47t55 -15zM678 -12q-42 0 -75.5 20.5t-52.5 63.5t-19 110t19 110t52.5 63.5t75.5 20.5q43 0 76 -20.5t52 -63.5t19 -110t-19 -110t-52 -63.5t-76 -20.5zM678 17q30 0 55 15t39.5 47t14.5 82v42q0 50 -14.5 82t-39.5 47t-55 15t-55 -15
t-39.5 -47t-14.5 -82v-42q0 -50 14.5 -82t39.5 -47t55 -15z" />
    <glyph glyph-name="ampersand" unicode="&#x26;" horiz-adv-x="683" 
d="M276 -12q-64 0 -110 23.5t-70.5 65t-24.5 94.5q0 55 22 92t58.5 63t79.5 47q-43 48 -67.5 88.5t-24.5 88.5q0 47 21 83t60 56.5t92 20.5q50 0 86 -18.5t56 -51t20 -73.5q0 -48 -23.5 -83t-65 -62.5t-95.5 -54.5l199 -202q17 40 24.5 89.5t8.5 101.5h118v-36h-84
q-3 -51 -12.5 -97t-28.5 -85l134 -138h-53l-102 105q-18 -31 -49 -58t-73 -43t-96 -16zM278 25q68 0 115.5 27.5t76.5 76.5l-216 220q-37 -18 -69.5 -40t-51.5 -52t-19 -76v-18q0 -63 46 -100.5t118 -37.5zM267 391q47 22 84.5 47t59.5 54t22 63v14q0 33 -17 57t-44.5 36.5
t-61.5 12.5q-60 0 -95 -33.5t-35 -82.5v-16q0 -39 25 -75.5t62 -76.5z" />
    <glyph glyph-name="quotesingle" unicode="'" horiz-adv-x="227" 
d="M95 480v260h37v-260h-37z" />
    <glyph glyph-name="parenleft" unicode="(" horiz-adv-x="333" 
d="M281 -138q-47 43 -89 109.5t-68 153t-26 186.5q0 101 26 186.5t67.5 153t89.5 109.5h42q-51 -45 -93.5 -112t-67.5 -146.5t-25 -164.5v-52q0 -84 25 -164.5t67.5 -146.5t93.5 -112h-42z" />
    <glyph glyph-name="parenright" unicode=")" horiz-adv-x="333" 
d="M10 -138q51 46 93.5 112t67.5 146.5t25 164.5v52q0 85 -25 164.5t-67 146.5t-94 112h42q48 -42 89.5 -109.5t67.5 -153t26 -186.5q0 -100 -26 -186.5t-67.5 -153t-89.5 -109.5h-42z" />
    <glyph glyph-name="asterisk" unicode="*" horiz-adv-x="391" 
d="M106 420l-28 21l93 124l-148 44l12 35l146 -51l-4 154h37l-3 -154l146 51l11 -35l-148 -44l94 -124l-29 -21l-89 127z" />
    <glyph glyph-name="plus" unicode="+" horiz-adv-x="600" 
d="M281 62v226h-217v35h217v226h39v-226h217v-35h-217v-226h-39z" />
    <glyph glyph-name="comma" unicode="," horiz-adv-x="251" 
d="M47 -142q35 36 52.5 70.5t21.5 65.5q-18 1 -26 10.5t-8 22.5v10q0 16 9.5 26.5t29.5 10.5t29 -10.5t9 -26.5v-12q0 -41 -23 -88t-59 -79h-35z" />
    <glyph glyph-name="hyphen" unicode="-" horiz-adv-x="396" 
d="M78 284v42h240v-42h-240z" />
    <glyph glyph-name="period" unicode="." horiz-adv-x="251" 
d="M125 -7q-19 0 -28.5 9.5t-9.5 26.5v9q0 17 9.5 26.5t28.5 9.5q20 0 29.5 -9.5t9.5 -26.5v-9q0 -17 -9.5 -26.5t-29.5 -9.5z" />
    <glyph glyph-name="slash" unicode="/" horiz-adv-x="336" 
d="M12 -151l245 891h38l-246 -891h-37z" />
    <glyph glyph-name="zero" unicode="0" horiz-adv-x="600" 
d="M300 -12q-114 0 -173.5 88t-59.5 273t59.5 273t173.5 88q115 0 174 -88t59 -273t-59 -273t-174 -88zM300 26q63 0 104.5 32.5t62 96t20.5 154.5v80q0 92 -20.5 155t-62 95.5t-104.5 32.5q-62 0 -104 -32.5t-62.5 -95.5t-20.5 -155v-80q0 -91 20.5 -154.5t62.5 -96
t104 -32.5z" />
    <glyph glyph-name="one" unicode="1" horiz-adv-x="600" 
d="M91 0v38h211v629h-4l-203 -176l-25 29l206 178h69v-660h201v-38h-455z" />
    <glyph glyph-name="two" unicode="2" horiz-adv-x="600" 
d="M83 0v43l255 252q50 48 79.5 99.5t29.5 104.5v24q0 65 -39 107t-116 42q-73 0 -114 -36.5t-59 -95.5l-38 12q13 44 39.5 79.5t69.5 57t104 21.5q64 0 108.5 -24.5t67.5 -68.5t23 -104q0 -47 -15.5 -89t-44 -80t-68.5 -77l-235 -229h395v-38h-442z" />
    <glyph glyph-name="three" unicode="3" horiz-adv-x="600" 
d="M278 -12q-52 0 -93 13.5t-71.5 38.5t-52.5 59l33 23q30 -47 74 -71.5t110 -24.5q78 0 125 41t47 110v22q0 68 -46 108t-127 40h-91v38h88q74 0 117.5 38t43.5 98v18q0 62 -42 97.5t-109 35.5q-65 0 -103 -26t-61 -69l-33 21q16 31 42 56.5t65 40.5t91 15q57 0 101.5 -21
t69.5 -60t25 -94q0 -71 -39 -112t-99 -54v-3q44 -7 78.5 -29t54 -59t19.5 -90q0 -60 -27 -105.5t-75.5 -70t-114.5 -24.5z" />
    <glyph glyph-name="four" unicode="4" horiz-adv-x="600" 
d="M400 0v152h-356v39l337 507h59v-510h112v-36h-112v-152h-40zM85 188h315v470h-3z" />
    <glyph glyph-name="five" unicode="5" horiz-adv-x="600" 
d="M296 -12q-51 0 -91.5 13.5t-70.5 38.5t-52 59l33 23q30 -47 73 -71.5t108 -24.5q83 0 127.5 46.5t44.5 122.5v22q0 75 -43 120.5t-124 45.5q-59 0 -92 -17t-61 -49l-39 5l26 376h352v-38h-318l-22 -311l4 -1q19 25 41.5 41t51.5 23.5t66 7.5q63 0 108 -25t70 -72.5
t25 -114.5q0 -66 -26 -116t-74.5 -77t-116.5 -27z" />
    <glyph glyph-name="six" unicode="6" horiz-adv-x="600" 
d="M300 -12q-74 0 -123 32t-73 88t-24 128q0 83 21.5 153t59 127.5t85 103t99.5 78.5h58q-79 -51 -135 -107.5t-91 -122.5t-50 -149l3 -1q18 34 43.5 57.5t59.5 35.5t75 12q64 0 111 -26t73 -73.5t26 -113.5t-27 -116.5t-75.5 -78t-115.5 -27.5zM299 26q55 0 94 21t59.5 59
t20.5 88v23q0 50 -20.5 88t-59.5 59.5t-94 21.5t-94 -21.5t-59.5 -59.5t-20.5 -88v-21q0 -50 21.5 -88.5t60 -60t92.5 -21.5z" />
    <glyph glyph-name="seven" unicode="7" horiz-adv-x="600" 
d="M183 0l290 661h-359v-154h-40v191h443v-38l-288 -660h-46z" />
    <glyph glyph-name="eight" unicode="8" horiz-adv-x="600" 
d="M300 -12q-73 0 -125 25t-80 69t-28 101q0 73 41 120t109 61v5q-58 14 -92.5 57.5t-34.5 108.5q0 80 56.5 127.5t153.5 47.5t153.5 -47.5t56.5 -127.5q0 -65 -34.5 -108.5t-92.5 -57.5v-5q68 -14 109 -61t41 -120q0 -57 -28 -101t-80 -69t-125 -25zM300 26q86 0 136.5 41
t50.5 108v24q0 67 -50.5 108t-136.5 41t-136.5 -41t-50.5 -108v-24q0 -67 50.5 -108t136.5 -41zM300 385q76 0 120.5 36t44.5 97v21q0 61 -44.5 97t-120.5 36t-120.5 -36t-44.5 -97v-21q0 -61 44.5 -97t120.5 -36z" />
    <glyph glyph-name="nine" unicode="9" horiz-adv-x="600" 
d="M199 0q79 52 135 108t91 122t50 149l-3 1q-17 -33 -43 -56.5t-60 -36t-75 -12.5q-63 0 -110.5 26t-73.5 74t-26 113q0 67 27 117t76 77.5t115 27.5q75 0 123.5 -32t72.5 -88t24 -128q0 -83 -21.5 -153t-59 -127.5t-85 -103t-99.5 -78.5h-58zM303 312q55 0 94 21.5
t59.5 60t20.5 87.5v21q0 50 -21.5 88.5t-60 60t-92.5 21.5t-93.5 -21t-60 -59t-20.5 -88v-23q0 -49 20.5 -87.5t59.5 -60t94 -21.5z" />
    <glyph glyph-name="colon" unicode=":" horiz-adv-x="271" 
d="M135 435q-19 0 -28.5 10t-9.5 26v10q0 16 9.5 26t28.5 10q20 0 29.5 -10t9.5 -26v-10q0 -16 -9.5 -26t-29.5 -10zM135 -7q-19 0 -28.5 9.5t-9.5 26.5v9q0 17 9.5 26.5t28.5 9.5q20 0 29.5 -9.5t9.5 -26.5v-9q0 -17 -9.5 -26.5t-29.5 -9.5z" />
    <glyph glyph-name="semicolon" unicode=";" horiz-adv-x="271" 
d="M57 -142q35 36 52.5 70.5t21.5 65.5q-18 1 -26 10.5t-8 22.5v10q0 16 9.5 26.5t29.5 10.5t29 -10.5t9 -26.5v-12q0 -41 -23 -88t-59 -79h-35zM135 435q-19 0 -28.5 10t-9.5 26v10q0 16 9.5 26t28.5 10q20 0 29.5 -10t9.5 -26v-10q0 -16 -9.5 -26t-29.5 -10z" />
    <glyph glyph-name="less" unicode="&#x3c;" horiz-adv-x="600" 
d="M513 21l-426 255v39l426 255v-43l-386 -229v-4l386 -229v-44z" />
    <glyph glyph-name="equal" unicode="=" horiz-adv-x="600" 
d="M64 381v35h472v-35h-472zM64 195v36h472v-36h-472z" />
    <glyph glyph-name="greater" unicode="&#x3e;" horiz-adv-x="600" 
d="M87 21v44l386 229v4l-386 229v43l426 -255v-39z" />
    <glyph glyph-name="question" unicode="?" horiz-adv-x="463" 
d="M192 187v170q90 2 140.5 45t50.5 112v22q0 61 -39 99t-108 38t-109 -35t-57 -95l-38 12q14 47 40 81.5t67.5 54t97.5 19.5q59 0 101.5 -23t65.5 -63.5t23 -95.5q0 -60 -24.5 -103t-68.5 -68t-102 -32v-138h-40zM212 -7q-19 0 -28.5 9.5t-9.5 26.5v9q0 17 9.5 26.5
t28.5 9.5q20 0 29 -9.5t9 -26.5v-9q0 -17 -9.5 -26.5t-28.5 -9.5z" />
    <glyph glyph-name="at" unicode="@" horiz-adv-x="884" 
d="M442 -121q-107 0 -191.5 49.5t-133.5 143t-49 224.5q0 126 49 219t134.5 143.5t195.5 50.5q73 0 140 -23.5t118 -71t80.5 -119t29.5 -167.5q0 -71 -15 -130t-48.5 -94t-88.5 -35q-42 0 -67 22.5t-29 58.5h-3q-16 -32 -48 -56.5t-84 -24.5t-91 24.5t-60.5 73t-21.5 121.5
q0 74 21.5 123t60.5 73t91 24t83.5 -23t44.5 -52h3v64h36v-323q0 -35 18 -54t50 -19q52 0 82 54.5t30 151.5v46q0 98 -44.5 170.5t-119.5 113t-169 40.5q-74 0 -136 -26t-108 -73.5t-71.5 -112t-25.5 -141.5v-54q0 -80 25 -145.5t70.5 -113t107 -74t135.5 -26.5h234v-32
h-235zM436 103q37 0 65 14t45 40.5t17 60.5v141q0 35 -16.5 60.5t-45 40t-65.5 14.5q-66 0 -100 -43t-34 -117v-52q0 -73 34 -116t100 -43z" />
    <glyph glyph-name="A" unicode="A" horiz-adv-x="614" 
d="M29 0l250 698h56l250 -698h-45l-80 225h-307l-80 -225h-44zM164 262h284l-140 395h-4z" />
    <glyph glyph-name="B" unicode="B" horiz-adv-x="628" 
d="M103 0v698h264q78 0 122.5 -45.5t44.5 -127.5q0 -46 -14 -77.5t-37.5 -50t-51.5 -26.5v-4q28 -4 52 -17t42 -35t28 -52t10 -70q0 -57 -20.5 -100.5t-60 -68t-95.5 -24.5h-284zM146 38h233q46 0 77 18t46 49t15 68v39q0 37 -15 67.5t-46 49t-77 18.5h-233v-309zM146 384
h217q42 0 69.5 16t41.5 43t14 59v40q0 33 -14 59.5t-41.5 42.5t-69.5 16h-217v-276z" />
    <glyph glyph-name="C" unicode="C" horiz-adv-x="614" 
d="M332 -12q-84 0 -143.5 40.5t-91 120.5t-31.5 199t31.5 199.5t91 121.5t143.5 41q81 0 138 -39.5t86 -106.5l-35 -20q-25 59 -73.5 93.5t-115.5 34.5q-102 0 -161 -75t-59 -218v-63q0 -143 59 -216.5t161 -73.5q72 0 121.5 36.5t72.5 99.5l35 -20q-29 -69 -87.5 -111.5
t-141.5 -42.5z" />
    <glyph glyph-name="D" unicode="D" horiz-adv-x="662" 
d="M103 0v698h214q91 0 153.5 -39t94 -116.5t31.5 -193.5t-31.5 -193.5t-94 -116.5t-153.5 -39h-214zM146 38h172q77 0 128.5 33.5t77.5 94.5t26 144v78q0 84 -26 145t-77.5 94t-128.5 33h-172v-622z" />
    <glyph glyph-name="E" unicode="E" horiz-adv-x="568" 
d="M103 0v698h396v-38h-353v-287h338v-38h-338v-297h353v-38h-396z" />
    <glyph glyph-name="F" unicode="F" horiz-adv-x="543" 
d="M103 0v698h387v-38h-344v-287h325v-38h-325v-335h-43z" />
    <glyph glyph-name="G" unicode="G" horiz-adv-x="676" 
d="M343 -12q-87 0 -148.5 41t-95 121t-33.5 199t33.5 199.5t95.5 121t150 40.5q85 0 146 -40t91 -106l-35 -20q-26 60 -78.5 94t-123.5 34t-123.5 -33.5t-81 -98t-28.5 -158.5v-66q0 -93 28.5 -157.5t81.5 -98.5t126 -34q56 0 103.5 20.5t76 61t28.5 101.5v94h-168v38h210
v-341h-40v110h-3q-23 -56 -76.5 -89t-135.5 -33z" />
    <glyph glyph-name="H" unicode="H" horiz-adv-x="697" 
d="M103 0v698h43v-325h405v325h43v-698h-43v335h-405v-335h-43z" />
    <glyph glyph-name="I" unicode="I" horiz-adv-x="381" 
d="M65 0v36h104v626h-104v36h251v-36h-104v-626h104v-36h-251z" />
    <glyph glyph-name="J" unicode="J" horiz-adv-x="479" 
d="M202 -12q-68 0 -116 38t-62 98l38 10q13 -46 48.5 -77t92.5 -31q68 0 103 41.5t35 119.5v473h-244v38h286v-516q0 -62 -22 -105.5t-62.5 -66t-96.5 -22.5z" />
    <glyph glyph-name="K" unicode="K" horiz-adv-x="593" 
d="M103 0v698h43v-408h2l120 135l243 273h53l-266 -296l274 -402h-52l-251 372l-123 -135v-237h-43z" />
    <glyph glyph-name="L" unicode="L" horiz-adv-x="484" 
d="M103 0v698h43v-660h315v-38h-358z" />
    <glyph glyph-name="M" unicode="M" horiz-adv-x="801" 
d="M103 0v698h59l238 -405h3l237 405h58v-698h-41v645h-4l-87 -150l-165 -282l-167 283l-86 149h-4v-645h-41z" />
    <glyph glyph-name="N" unicode="N" horiz-adv-x="697" 
d="M103 0v698h54l241 -392l152 -249h3v641h41v-698h-54l-296 479l-97 162h-3v-641h-41z" />
    <glyph glyph-name="O" unicode="O" horiz-adv-x="689" 
d="M345 -12q-88 0 -150.5 41t-95.5 121t-33 199t33 199.5t95.5 121t150.5 40.5t150 -40.5t95 -121t33 -199.5t-33 -199t-95 -121t-150 -41zM345 26q71 0 123 33.5t80.5 98.5t28.5 158v66q0 94 -28.5 158.5t-80.5 98t-123 33.5t-123.5 -33.5t-81 -98t-28.5 -158.5v-66
q0 -93 28.5 -158t81 -98.5t123.5 -33.5z" />
    <glyph glyph-name="P" unicode="P" horiz-adv-x="598" 
d="M103 0v698h271q59 0 99.5 -23.5t61 -66.5t20.5 -102q0 -58 -20.5 -101.5t-61 -67t-99.5 -23.5h-228v-314h-43zM146 352h228q46 0 76 18t44.5 47.5t14.5 65.5v46q0 36 -14.5 65.5t-44.5 47.5t-76 18h-228v-308z" />
    <glyph glyph-name="Q" unicode="Q" horiz-adv-x="689" 
d="M374 -152q-23 0 -35 12.5t-12 34.5v93q-124 7 -192.5 98t-68.5 263q0 119 33 199.5t95.5 121t150.5 40.5t150 -40.5t95 -121t33 -199.5q0 -170 -67 -260.5t-188 -99.5v-104h105v-37h-99zM345 26q71 0 123 33.5t80.5 98.5t28.5 158v66q0 94 -28.5 158.5t-80.5 98
t-123 33.5t-123.5 -33.5t-81 -98t-28.5 -158.5v-66q0 -93 28.5 -158t81 -98.5t123.5 -33.5z" />
    <glyph glyph-name="R" unicode="R" horiz-adv-x="633" 
d="M103 0v698h271q59 0 99.5 -23t61 -66t20.5 -102q0 -82 -41.5 -133t-122.5 -57l182 -317h-49l-178 315h-200v-315h-43zM146 352h228q46 0 76 18t44.5 47.5t14.5 65.5v46q0 36 -14.5 65.5t-44.5 47.5t-76 18h-228v-308z" />
    <glyph glyph-name="S" unicode="S" horiz-adv-x="558" 
d="M280 -12q-86 0 -142.5 32.5t-95.5 84.5l33 26q37 -49 85 -77t121 -28q86 0 132.5 40.5t46.5 115.5q0 50 -19.5 80t-53.5 45.5t-77 24.5l-66 13q-68 14 -108 40t-58 62.5t-18 81.5q0 61 27 101t76.5 60t115.5 20q77 0 129.5 -27.5t84.5 -73.5l-33 -24q-29 42 -73.5 64.5
t-110.5 22.5q-81 0 -127.5 -35.5t-46.5 -106.5q0 -47 20 -75.5t54 -44.5t78 -25l65 -13q71 -13 110.5 -40.5t56 -65t16.5 -81.5q0 -64 -27 -107.5t-76.5 -66.5t-118.5 -23z" />
    <glyph glyph-name="T" unicode="T" horiz-adv-x="564" 
d="M261 0v660h-242v38h526v-38h-242v-660h-42z" />
    <glyph glyph-name="U" unicode="U" horiz-adv-x="661" 
d="M329 -12q-87 0 -138 29t-73 92.5t-22 165.5v423h43v-431q0 -85 17.5 -138t59.5 -78t114 -25q73 0 115 25t59.5 78t17.5 138v431h43v-423q0 -102 -22.5 -165.5t-74.5 -92.5t-139 -29z" />
    <glyph glyph-name="V" unicode="V" horiz-adv-x="583" 
d="M264 0l-237 698h46l124 -370l93 -283h4l93 284l125 369h44l-238 -698h-54z" />
    <glyph glyph-name="W" unicode="W" horiz-adv-x="878" 
d="M207 0l-180 698h45l82 -328l80 -316h3l85 315l90 329h54l88 -327l86 -316h3l72 280l93 363h44l-184 -698h-51l-91 332l-87 319h-2l-88 -320l-91 -331h-51z" />
    <glyph glyph-name="X" unicode="X" horiz-adv-x="576" 
d="M27 0l234 354l-226 344h51l201 -307h2l203 307h50l-227 -341l235 -357h-51l-210 321h-2l-211 -321h-49z" />
    <glyph glyph-name="Y" unicode="Y" horiz-adv-x="562" 
d="M259 0v288l-241 410h49l213 -364h3l212 364h48l-241 -409v-289h-43z" />
    <glyph glyph-name="Z" unicode="Z" horiz-adv-x="563" 
d="M38 0v40l430 620h-408v38h454v-40l-430 -620h449v-38h-495z" />
    <glyph glyph-name="bracketleft" unicode="[" horiz-adv-x="306" 
d="M103 -138v898h137v-33h-101v-832h101v-33h-137z" />
    <glyph glyph-name="backslash" unicode="\" horiz-adv-x="336" 
d="M282 -151l-241 891h37l242 -891h-38z" />
    <glyph glyph-name="bracketright" unicode="]" horiz-adv-x="306" 
d="M66 -138v33h101v832h-101v33h137v-898h-137z" />
    <glyph glyph-name="asciicircum" unicode="^" horiz-adv-x="600" 
d="M94 313l-32 18l216 367h44l216 -367l-32 -18l-205 346h-2z" />
    <glyph glyph-name="underscore" unicode="_" horiz-adv-x="568" 
d="M30 -149v35h508v-35h-508z" />
    <glyph glyph-name="grave" unicode="`" horiz-adv-x="600" 
d="M309 586l-112 155l37 19l102 -159z" />
    <glyph glyph-name="a" unicode="a" horiz-adv-x="524" 
d="M222 -12q-80 0 -123.5 38.5t-43.5 108.5q0 44 20 77t63.5 51.5t116.5 18.5h129v66q0 70 -34.5 104t-102.5 34q-53 0 -88.5 -22t-56.5 -67l-28 20q21 46 63 75t112 29q86 0 131 -44t45 -124v-317h76v-36h-66q-25 0 -36 12t-13 33v34h-4q-18 -39 -57 -65t-103 -26zM226 23
q43 0 79 14.5t57.5 43t21.5 68.5v101h-129q-82 0 -119 -27.5t-37 -73.5v-27q0 -47 35.5 -73t91.5 -26z" />
    <glyph glyph-name="b" unicode="b" horiz-adv-x="570" 
d="M302 -12q-62 0 -101.5 27t-58.5 65h-3v-80h-41v740h41v-311h3q18 39 58 65.5t102 26.5q66 0 113 -30.5t72.5 -90t25.5 -145.5t-25.5 -146t-72.5 -90.5t-113 -30.5zM295 25q83 0 128.5 53.5t45.5 145.5v61q0 92 -45.5 146t-128.5 54q-42 0 -77.5 -16t-57 -43.5
t-21.5 -64.5v-211q0 -37 21.5 -65.5t57 -44t77.5 -15.5z" />
    <glyph glyph-name="c" unicode="c" horiz-adv-x="492" 
d="M272 -12q-102 0 -159 69t-57 198q0 128 57 197t159 69q66 0 109 -29.5t66 -77.5l-35 -17q-20 43 -54 65.5t-86 22.5q-83 0 -127.5 -54.5t-44.5 -145.5v-61q0 -90 44.5 -145t127.5 -55q56 0 92.5 23.5t59.5 65.5l30 -20q-25 -47 -69 -76t-113 -29z" />
    <glyph glyph-name="d" unicode="d" horiz-adv-x="570" 
d="M268 -12q-65 0 -112.5 30.5t-73 90.5t-25.5 146t25.5 145.5t73 90t112.5 30.5q62 0 102 -26.5t58 -65.5h3v311h41v-740h-41v80h-3q-19 -38 -58.5 -65t-101.5 -27zM275 25q42 0 77.5 15.5t57 44t21.5 65.5v211q0 37 -21.5 64.5t-57 43.5t-77.5 16q-83 0 -128.5 -54
t-45.5 -146v-61q0 -92 45.5 -145.5t128.5 -53.5z" />
    <glyph glyph-name="e" unicode="e" horiz-adv-x="538" 
d="M274 -12q-67 0 -116 31t-75.5 90.5t-26.5 145.5q0 85 26 144.5t74.5 90.5t115.5 31q63 0 110.5 -31t74 -87.5t26.5 -133.5v-19h-384v-26q0 -90 46.5 -145t130.5 -55q59 0 100.5 28.5t63.5 83.5l31 -18q-23 -59 -73.5 -94.5t-123.5 -35.5zM99 283h340v6q0 60 -21 104
t-58.5 68.5t-87.5 24.5q-54 0 -93 -24.5t-59.5 -69.5t-20.5 -106v-3z" />
    <glyph glyph-name="f" unicode="f" horiz-adv-x="298" 
d="M120 0v473h-90v36h90v172q0 27 14 43t43 16h98v-36h-115v-195h115v-36h-115v-473h-40z" />
    <glyph glyph-name="g" unicode="g" horiz-adv-x="527" 
d="M265 -212q-115 0 -166 35t-51 94q0 44 25 72t68 41v6q-26 9 -38.5 26.5t-12.5 42.5q0 36 26 56.5t61 30.5v3q-44 20 -68.5 59t-24.5 95q0 52 22 90.5t62.5 60t95.5 21.5q32 0 58.5 -7t47.5 -21v35q0 20 9 30.5t29 10.5h95v-36h-107v-60q23 -23 35.5 -54t12.5 -70
q0 -51 -22.5 -90t-63 -60.5t-94.5 -21.5q-14 0 -27 2t-27 5q-38 -11 -60.5 -28t-22.5 -44q0 -21 19 -35.5t65 -14.5h127q89 0 129 -33.5t40 -90.5q0 -51 -28 -84.5t-82 -49.5t-132 -16zM235 -178h58q79 0 127 27.5t48 86.5q0 41 -29 64.5t-103 23.5h-161
q-39 -12 -63.5 -36.5t-24.5 -64.5q0 -44 38.5 -72.5t109.5 -28.5zM264 211q64 0 100 33.5t36 87.5v35q0 54 -36 87t-100 33t-100 -33t-36 -87v-35q0 -54 36 -87.5t100 -33.5z" />
    <glyph glyph-name="h" unicode="h" horiz-adv-x="560" 
d="M98 0v740h41v-309h3q16 37 53 63.5t101 26.5q84 0 129 -49.5t45 -144.5v-327h-41v320q0 84 -36.5 124.5t-105.5 40.5q-39 0 -72.5 -13.5t-54.5 -41.5t-21 -69v-361h-41z" />
    <glyph glyph-name="i" unicode="i" horiz-adv-x="237" 
d="M98 0v509h41v-509h-41zM118 661q-17 0 -24 8.5t-7 20.5v9q0 12 7 20.5t24 8.5q18 0 25 -8.5t7 -20.5v-9q0 -12 -7 -20.5t-25 -8.5z" />
    <glyph glyph-name="j" unicode="j" horiz-adv-x="237" 
d="M14 -200v36h84v673h41v-650q0 -27 -13.5 -43t-43.5 -16h-68zM118 661q-17 0 -24 8.5t-7 20.5v9q0 12 7 20.5t24 8.5q18 0 25 -8.5t7 -20.5v-9q0 -12 -7 -20.5t-25 -8.5z" />
    <glyph glyph-name="k" unicode="k" horiz-adv-x="502" 
d="M98 0v740h41v-503h3l80 82l187 190h51l-207 -210l231 -299h-50l-211 272l-84 -84v-188h-41z" />
    <glyph glyph-name="l" unicode="l" horiz-adv-x="258" 
d="M146 0q-24 0 -36 12.5t-12 34.5v693h41v-704h82v-36h-75z" />
    <glyph glyph-name="m" unicode="m" horiz-adv-x="877" 
d="M98 0v509h41v-78h3q15 36 49.5 63t99.5 27q58 0 99.5 -27t58.5 -82h4q14 46 54 77.5t109 31.5q83 0 127 -49.5t44 -144.5v-327h-41v320q0 84 -35 124.5t-105 40.5q-38 0 -70.5 -14t-52.5 -41.5t-20 -70.5v-359h-41v320q0 85 -35.5 125t-103.5 40q-37 0 -70.5 -13.5
t-53.5 -41.5t-20 -69v-361h-41z" />
    <glyph glyph-name="n" unicode="n" horiz-adv-x="560" 
d="M98 0v509h41v-78h3q16 37 53 63.5t101 26.5q84 0 129 -49.5t45 -144.5v-327h-41v320q0 84 -36.5 124.5t-105.5 40.5q-39 0 -72.5 -13.5t-54.5 -41.5t-21 -69v-361h-41z" />
    <glyph glyph-name="o" unicode="o" horiz-adv-x="547" 
d="M273 -12q-67 0 -115.5 31t-75 90.5t-26.5 145.5t26.5 145t75 90t115.5 31t116 -31t75.5 -90t26.5 -145t-26.5 -145.5t-75.5 -90.5t-116 -31zM273 24q82 0 128 53.5t46 148.5v57q0 95 -46 148.5t-128 53.5q-81 0 -127 -53.5t-46 -148.5v-57q0 -95 46 -148.5t127 -53.5z
" />
    <glyph glyph-name="p" unicode="p" horiz-adv-x="570" 
d="M98 -200v709h41v-80h3q18 39 58 65.5t102 26.5q66 0 113 -30.5t72.5 -90t25.5 -145.5t-25.5 -146t-72.5 -90.5t-113 -30.5q-62 0 -101.5 27t-58.5 65h-3v-280h-41zM295 25q83 0 128.5 53.5t45.5 145.5v61q0 92 -45.5 146t-128.5 54q-42 0 -77.5 -16t-57 -43.5
t-21.5 -64.5v-211q0 -37 21.5 -65.5t57 -44t77.5 -15.5z" />
    <glyph glyph-name="q" unicode="q" horiz-adv-x="570" 
d="M431 -200v280h-3q-19 -38 -58.5 -65t-101.5 -27q-65 0 -112.5 30.5t-73 90.5t-25.5 146t25.5 145.5t73 90t112.5 30.5q62 0 102 -26.5t58 -65.5h3v80h41v-709h-41zM275 25q42 0 77.5 15.5t57 44t21.5 65.5v211q0 37 -21.5 64.5t-57 43.5t-77.5 16q-83 0 -128.5 -54
t-45.5 -146v-61q0 -92 45.5 -145.5t128.5 -53.5z" />
    <glyph glyph-name="r" unicode="r" horiz-adv-x="350" 
d="M98 0v509h41v-89h4q11 24 30 44t49.5 32.5t75.5 12.5h37v-39h-45q-41 0 -75.5 -14t-55 -40.5t-20.5 -66.5v-349h-41z" />
    <glyph glyph-name="s" unicode="s" horiz-adv-x="470" 
d="M237 -12q-64 0 -110.5 24t-81.5 72l31 23q33 -44 71.5 -64t91.5 -20q65 0 99.5 28t34.5 78q0 48 -28.5 73.5t-87.5 34.5l-43 7q-45 7 -79 22.5t-53 44t-19 74.5q0 68 48.5 102t119.5 34q43 0 74.5 -10t55.5 -27.5t41 -38.5l-28 -25q-21 25 -54.5 45.5t-89.5 20.5
q-59 0 -93 -26t-34 -73q0 -50 29.5 -73t87.5 -33l43 -6q73 -11 111 -44.5t38 -97.5q0 -45 -21 -78t-60 -50t-94 -17z" />
    <glyph glyph-name="t" unicode="t" horiz-adv-x="324" 
d="M169 0q-24 0 -36 12.5t-12 35.5v425h-91v36h64q18 0 24 7.5t6 25.5v111h38v-144h118v-36h-118v-437h110v-36h-103z" />
    <glyph glyph-name="u" unicode="u" horiz-adv-x="559" 
d="M263 -12q-83 0 -128.5 50t-45.5 144v327h41v-319q0 -85 37 -125t106 -40q38 0 71.5 13.5t54.5 41t21 69.5v360h41v-509h-41v79h-3q-14 -35 -50.5 -63t-103.5 -28z" />
    <glyph glyph-name="v" unicode="v" horiz-adv-x="465" 
d="M208 0l-185 509h41l99 -270l68 -195h4l69 195l99 270h40l-186 -509h-49z" />
    <glyph glyph-name="w" unicode="w" horiz-adv-x="739" 
d="M182 0l-148 509h40l56 -199l77 -270h3l55 186l86 283h38l86 -278l57 -191h2l77 273l56 196h39l-149 -509h-50l-91 297l-45 153h-3l-46 -153l-90 -297h-50z" />
    <glyph glyph-name="x" unicode="x" horiz-adv-x="482" 
d="M30 0l189 257l-183 252h47l158 -220h2l159 220h46l-183 -250l188 -259h-48l-162 227h-2l-166 -227h-45z" />
    <glyph glyph-name="y" unicode="y" horiz-adv-x="468" 
d="M68 -200v36h89l57 153l-192 520h42l112 -307l56 -159h3l56 155l114 311h40l-247 -670q-5 -14 -12.5 -23t-18.5 -12.5t-29 -3.5h-70z" />
    <glyph glyph-name="z" unicode="z" horiz-adv-x="433" 
d="M29 0v36l322 437h-312v36h359v-34l-324 -439h334v-36h-379z" />
    <glyph glyph-name="braceleft" unicode="{" horiz-adv-x="324" 
d="M164 -138q-22 0 -32.5 12t-10.5 33v288q0 45 -26.5 66t-70.5 21v58q44 0 70.5 21t26.5 66v288q0 21 10.5 33t32.5 12h95v-33h-102v-297q0 -47 -26.5 -77.5t-70.5 -33.5v-16q44 -3 70.5 -33.5t26.5 -77.5v-297h102v-33h-95z" />
    <glyph glyph-name="bar" unicode="|" horiz-adv-x="262" 
d="M113 -138v898h36v-898h-36z" />
    <glyph glyph-name="braceright" unicode="}" horiz-adv-x="324" 
d="M65 -138v33h102v297q0 47 27 77.5t71 33.5v16q-44 3 -71 33.5t-27 77.5v297h-102v33h95q22 0 32.5 -12t10.5 -33v-288q0 -45 26.5 -66t70.5 -21v-58q-44 0 -70.5 -21t-26.5 -66v-288q0 -21 -10.5 -33t-32.5 -12h-95z" />
    <glyph glyph-name="asciitilde" unicode="~" horiz-adv-x="600" 
d="M422 249q-31 0 -58.5 9.5t-70.5 29.5q-38 18 -63.5 27t-53.5 9t-48.5 -9t-44.5 -30l-19 24q24 25 50.5 37.5t63.5 12.5q31 0 59 -9t70 -29q39 -17 64 -26.5t53 -9.5t48.5 9.5t44.5 29.5l19 -24q-23 -25 -50 -38t-64 -13z" />
    <glyph glyph-name="uni00A0" unicode="&#xa0;" horiz-adv-x="236" 
 />
    <glyph glyph-name="exclamdown" unicode="&#xa1;" horiz-adv-x="263" 
d="M109 -189v257l11 262h22l11 -262v-257h-44zM131 435q-19 0 -28.5 9.5t-9.5 26.5v10q0 16 9.5 26t28.5 10q20 0 29.5 -10t9.5 -26v-10q0 -17 -9.5 -26.5t-29.5 -9.5z" />
    <glyph glyph-name="cent" unicode="&#xa2;" horiz-adv-x="503" 
d="M247 -114v104q-91 7 -141 75.5t-50 189.5t50.5 189t140.5 76v103h37v-102q60 -2 100 -31.5t62 -74.5l-33 -18q-20 41 -51.5 63.5t-78.5 24.5v-460q51 2 85.5 25t56.5 63l30 -21q-24 -45 -66 -73.5t-105 -30.5v-102h-37zM247 26v457q-71 -7 -109 -60.5t-38 -137.5v-61
q0 -84 38 -137.5t109 -60.5z" />
    <glyph glyph-name="sterling" unicode="&#xa3;" horiz-adv-x="584" 
d="M83 0v50q42 27 65 73t23 103q0 21 -3 40t-8 37h-93v36h82q-13 40 -27 79.5t-14 87.5q0 63 27 108.5t75.5 70.5t112.5 25q68 0 119 -30t85 -87l-33 -22q-31 51 -73 76t-99 25q-76 0 -123 -43.5t-47 -124.5q0 -47 13.5 -86t26.5 -79h218v-36h-208q5 -18 8 -35.5t3 -38.5
q0 -58 -23.5 -108t-64.5 -80v-3h392v-38h-434z" />
    <glyph glyph-name="currency" unicode="&#xa4;" horiz-adv-x="595" 
d="M47 73l-26 25l110 111q-34 54 -34 140t34 140l-110 111l26 25l107 -108q52 55 143 55q92 0 144 -55l107 108l26 -25l-110 -111q33 -54 33 -140t-33 -140l110 -111l-26 -25l-107 108q-52 -55 -144 -55q-91 0 -143 55zM297 161q74 0 115.5 42.5t41.5 119.5v52
q0 77 -41.5 119.5t-115.5 42.5q-73 0 -114.5 -42.5t-41.5 -119.5v-52q0 -77 41.5 -119.5t114.5 -42.5z" />
    <glyph glyph-name="yen" unicode="&#xa5;" horiz-adv-x="588" 
d="M273 0v160h-191v35h191v124h-191v35h170l-209 344h48l203 -338h3l201 338h47l-208 -344h169v-35h-191v-124h191v-35h-191v-160h-42z" />
    <glyph glyph-name="brokenbar" unicode="&#xa6;" horiz-adv-x="262" 
d="M113 403v357h36v-357h-36zM113 -138v357h36v-357h-36z" />
    <glyph glyph-name="section" unicode="&#xa7;" horiz-adv-x="571" 
d="M272 -154q-52 0 -91 15t-68 41l24 28q24 -21 56.5 -35t79.5 -14q66 0 103 29t37 82q0 34 -16 56t-42.5 37t-59.5 25l-65 21q-72 22 -109.5 58.5t-37.5 98.5q0 54 29.5 91t79.5 56v5q-34 21 -54 52t-20 71q0 49 24 81.5t65 49t92 16.5q53 0 92 -15t67 -41l-24 -29
q-24 22 -56.5 35.5t-79.5 13.5q-65 0 -102.5 -28.5t-37.5 -81.5q0 -34 16 -56.5t43 -36.5t59 -25l65 -21q72 -23 110 -59t38 -98q0 -54 -29.5 -90.5t-80.5 -57.5v-4q35 -21 54.5 -52t19.5 -71q0 -49 -24 -81.5t-65 -49t-92 -16.5zM355 128q43 21 68 53t25 79q0 54 -31.5 84
t-94.5 48l-65 20q-10 3 -20 7t-21 9q-43 -21 -68 -53.5t-25 -79.5q0 -53 31.5 -83t94.5 -49l65 -19q10 -4 20.5 -8t20.5 -8z" />
    <glyph glyph-name="dieresis" unicode="&#xa8;" horiz-adv-x="600" 
d="M392 634q-17 0 -24.5 8.5t-7.5 20.5v9q0 12 7.5 20.5t24.5 8.5t24 -8.5t7 -20.5v-9q0 -12 -7 -20.5t-24 -8.5zM208 634q-17 0 -24 8.5t-7 20.5v9q0 12 7 20.5t24 8.5q18 0 25 -8.5t7 -20.5v-9q0 -12 -7 -20.5t-25 -8.5z" />
    <glyph glyph-name="copyright" unicode="&#xa9;" horiz-adv-x="731" 
d="M365 -12q-93 0 -167 44.5t-116 125.5t-42 191t42 191t116 125.5t167 44.5q95 0 168 -44.5t115.5 -125.5t42.5 -191t-42.5 -191t-115.5 -125.5t-168 -44.5zM365 20q86 0 151 40t101 109t36 155v50q0 87 -36 155.5t-101 108.5t-151 40t-150.5 -40t-101 -108.5t-36.5 -155.5
v-50q0 -86 36.5 -155t101.5 -109t150 -40zM366 151q-71 0 -112.5 51t-41.5 145t42 145t113 51q50 0 81.5 -23.5t45.5 -59.5l-30 -14q-12 30 -36 47.5t-61 17.5q-53 0 -85 -38t-32 -109v-35q0 -72 32 -109t85 -37q38 0 63.5 18t39.5 49l28 -16q-15 -36 -48.5 -59.5
t-83.5 -23.5z" />
    <glyph glyph-name="ordfeminine" unicode="&#xaa;" horiz-adv-x="368" 
d="M149 355q-53 0 -81 25.5t-28 66.5q0 45 32 70.5t102 25.5h88v47q0 43 -23.5 64t-67.5 21q-33 0 -58 -13.5t-38 -42.5l-24 17q14 29 43.5 48.5t77.5 19.5q58 0 91 -29t33 -82v-202h43v-30h-43q-16 0 -24 7t-9 22v21h-2q-11 -22 -38 -39t-74 -17zM154 383q43 0 75.5 19.5
t32.5 57.5v57h-89q-52 0 -75 -16.5t-23 -45.5v-12q0 -30 21 -45t58 -15z" />
    <glyph glyph-name="guillemotleft" unicode="&#xab;" horiz-adv-x="486" 
d="M420 97l-196 174v39l196 174l14 -28l-168 -165l168 -166zM231 97l-196 174v39l196 174l14 -28l-169 -165l169 -166z" />
    <glyph glyph-name="logicalnot" unicode="&#xac;" horiz-adv-x="600" 
d="M489 95v193h-425v35h462v-228h-37z" />
    <glyph glyph-name="uni00AD" unicode="&#xad;" horiz-adv-x="396" 
d="M78 284v42h240v-42h-240z" />
    <glyph glyph-name="registered" unicode="&#xae;" horiz-adv-x="469" 
d="M235 298q-56 0 -101 26.5t-71 73t-26 106.5t26 106.5t71 73t101 26.5t101 -26.5t71 -73t26 -106.5t-26 -106.5t-71 -73t-101 -26.5zM235 322q50 0 88 23t60.5 62t22.5 87v20q0 48 -22.5 87t-60.5 62t-88 23q-49 0 -88 -23t-61 -62t-22 -87v-20q0 -48 22 -87t61 -62
t88 -23zM166 397v211h84q30 0 47 -15.5t17 -47.5q0 -26 -13 -41t-32 -18l52 -89h-28l-49 87h-54v-87h-24zM190 505h59q20 0 29 8.5t9 26.5v12q0 18 -9 26.5t-29 8.5h-59v-82z" />
    <glyph glyph-name="macron" unicode="&#xaf;" horiz-adv-x="600" 
d="M167 651v35h266v-35h-266z" />
    <glyph glyph-name="degree" unicode="&#xb0;" horiz-adv-x="467" 
d="M233 371q-46 0 -83.5 22.5t-59 61t-21.5 86.5t21.5 86.5t59 60.5t83.5 22q47 0 84 -22t58.5 -60.5t21.5 -86.5t-21.5 -86.5t-58.5 -61t-84 -22.5zM233 405q39 0 67.5 18.5t44 49.5t15.5 68t-15.5 67.5t-44 49t-67.5 18.5q-38 0 -66.5 -18t-44 -49t-15.5 -68
q0 -38 15.5 -68.5t44 -49t66.5 -18.5z" />
    <glyph glyph-name="plusminus" unicode="&#xb1;" horiz-adv-x="600" 
d="M281 127v223h-217v35h217v222h39v-222h217v-35h-217v-223h-39zM64 0v35h472v-35h-472z" />
    <glyph glyph-name="uni00B2" unicode="&#xb2;" horiz-adv-x="345" 
d="M42 329v32l136 112q39 31 58 60.5t19 57.5v9q0 33 -21.5 54t-63.5 21t-66.5 -20t-35.5 -51l-29 10q12 36 44 63t88 27q59 0 89.5 -30.5t30.5 -75.5q0 -39 -24.5 -74t-69.5 -71l-119 -96h226v-28h-262z" />
    <glyph glyph-name="uni00B3" unicode="&#xb3;" horiz-adv-x="347" 
d="M161 323q-48 0 -77.5 18t-47.5 41l25 19q17 -22 39.5 -36t60.5 -14q48 0 72 21t24 57v6q0 35 -21.5 53t-71.5 18h-50v29h44q50 0 71 19t21 51v5q0 30 -21.5 48t-61.5 18q-36 0 -57.5 -12t-37.5 -34l-24 18q17 24 46 40t74 16q54 0 86 -25.5t32 -69.5q0 -36 -20.5 -57
t-52.5 -29v-3q37 -6 58 -28t21 -61q0 -49 -34.5 -78.5t-96.5 -29.5z" />
    <glyph glyph-name="acute" unicode="&#xb4;" horiz-adv-x="600" 
d="M290 586l-27 15l102 159l37 -19z" />
    <glyph glyph-name="uni00B5" unicode="&#xb5;" horiz-adv-x="568" 
d="M98 -200v709h41v-319q0 -85 37 -125t105 -40q39 0 72.5 13.5t54.5 41t21 69.5v360h41v-509h-41v79h-3q-14 -35 -50.5 -63t-102.5 -28q-51 0 -85 19.5t-52 58.5h-3l6 -110v-156h-41z" />
    <glyph glyph-name="paragraph" unicode="&#xb6;" horiz-adv-x="611" 
d="M249 -149v469q-54 0 -99 23.5t-72 66t-27 99.5t27 99.5t72 66t99 23.5h270v-35h-69v-812h-38v812h-125v-812h-38z" />
    <glyph glyph-name="periodcentered" unicode="&#xb7;" horiz-adv-x="307" 
d="M154 265q-19 0 -29 9.5t-10 26.5v9q0 17 10 26.5t29 9.5q20 0 29 -9.5t9 -26.5v-9q0 -17 -9.5 -26.5t-28.5 -9.5z" />
    <glyph glyph-name="cedilla" unicode="&#xb8;" horiz-adv-x="600" 
d="M310 -204q-32 0 -54.5 11t-32.5 24l21 23q11 -13 27.5 -20.5t38.5 -7.5q24 0 39.5 11.5t15.5 33.5q0 18 -13 30t-50 15l-34 2l20 91h29l-18 -78l2 -2q8 2 17 3t16 1q29 0 48.5 -16.5t19.5 -45.5q0 -22 -12 -38.5t-32.5 -26.5t-47.5 -10z" />
    <glyph glyph-name="uni00B9" unicode="&#xb9;" horiz-adv-x="368" 
d="M58 329v28h123v314h-5l-113 -100l-20 21l119 106h52v-341h112v-28h-268z" />
    <glyph glyph-name="ordmasculine" unicode="&#xba;" horiz-adv-x="377" 
d="M188 355q-67 0 -105 47t-38 127q0 82 38 128.5t105 46.5q68 0 105.5 -46.5t37.5 -128.5q0 -80 -37.5 -127t-105.5 -47zM188 383q53 0 80 36.5t27 88.5v42q0 53 -27 89t-80 36q-52 0 -79 -36t-27 -89v-42q0 -52 27 -88.5t79 -36.5z" />
    <glyph glyph-name="guillemotright" unicode="&#xbb;" horiz-adv-x="486" 
d="M255 97l-14 28l168 166l-168 165l14 28l196 -174v-39zM65 97l-14 28l169 166l-169 165l14 28l196 -174v-39z" />
    <glyph glyph-name="onequarter" unicode="&#xbc;" horiz-adv-x="850" 
d="M58 329v28h123v314h-5l-113 -100l-20 21l119 106h52v-341h112v-28h-268zM209 0l460 698h37l-460 -698h-37zM729 0v83h-205v30l190 256h47v-258h63v-28h-63v-83h-32zM555 111h174v226h-4z" />
    <glyph glyph-name="onehalf" unicode="&#xbd;" horiz-adv-x="881" 
d="M58 329v28h123v314h-5l-113 -100l-20 21l119 106h52v-341h112v-28h-268zM209 0l460 698h37l-460 -698h-37zM578 0v32l136 112q38 31 57 60.5t19 57.5v9q0 33 -21.5 54t-63.5 21t-66 -20t-36 -51l-29 10q12 36 44 63t89 27q58 0 88.5 -30.5t30.5 -75.5q0 -39 -24 -74
t-70 -71l-119 -96h226v-28h-261z" />
    <glyph glyph-name="threequarters" unicode="&#xbe;" horiz-adv-x="818" 
d="M161 323q-48 0 -77.5 18t-47.5 41l25 19q17 -22 39.5 -36t60.5 -14q48 0 72 21t24 57v6q0 35 -21.5 53t-71.5 18h-50v29h44q50 0 71 19t21 51v5q0 30 -21.5 48t-61.5 18q-36 0 -57.5 -12t-37.5 -34l-24 18q17 24 46 40t74 16q54 0 86 -25.5t32 -69.5q0 -36 -20.5 -57
t-52.5 -29v-3q37 -6 58 -28t21 -61q0 -49 -34.5 -78.5t-96.5 -29.5zM177 0l460 698h37l-460 -698h-37zM697 0v83h-205v30l191 256h47v-258h62v-28h-62v-83h-33zM524 111h173v226h-3z" />
    <glyph glyph-name="questiondown" unicode="&#xbf;" horiz-adv-x="460" 
d="M226 -201q-58 0 -101 23t-66 64t-23 96q0 60 24.5 102.5t69 67.5t101.5 32v139h40v-170q-90 -2 -140.5 -45t-50.5 -113v-22q0 -61 39.5 -99t107.5 -38q69 0 109 35.5t57 95.5l38 -13q-13 -46 -39.5 -81t-67.5 -54.5t-98 -19.5zM252 435q-19 0 -28.5 9.5t-9.5 26.5v10
q0 16 9.5 26t28.5 10t28.5 -10t9.5 -26v-10q0 -17 -9 -26.5t-29 -9.5z" />
    <glyph glyph-name="Agrave" unicode="&#xc0;" horiz-adv-x="614" 
d="M29 0l250 698h56l250 -698h-45l-80 225h-307l-80 -225h-44zM164 262h284l-140 395h-4zM316 763l-112 154l37 20l102 -159z" />
    <glyph glyph-name="Aacute" unicode="&#xc1;" horiz-adv-x="614" 
d="M29 0l250 698h56l250 -698h-45l-80 225h-307l-80 -225h-44zM164 262h284l-140 395h-4zM297 763l-27 15l102 159l37 -20z" />
    <glyph glyph-name="Acircumflex" unicode="&#xc2;" horiz-adv-x="614" 
d="M29 0l250 698h56l250 -698h-45l-80 225h-307l-80 -225h-44zM164 262h284l-140 395h-4zM184 773l-24 18l122 136h50l122 -136l-24 -18l-123 124z" />
    <glyph glyph-name="Atilde" unicode="&#xc3;" horiz-adv-x="614" 
d="M29 0l250 698h56l250 -698h-45l-80 225h-307l-80 -225h-44zM164 262h284l-140 395h-4zM379 799q-20 0 -38 8t-40 21q-23 14 -38.5 19.5t-29.5 5.5q-17 0 -32 -7.5t-30 -23.5l-19 22q16 20 37 31.5t46 11.5q20 0 38 -7t40 -21q23 -14 38.5 -20t29.5 -6q17 0 32 8t30 23
l19 -21q-16 -20 -37 -32t-46 -12z" />
    <glyph glyph-name="Adieresis" unicode="&#xc4;" horiz-adv-x="614" 
d="M29 0l250 698h56l250 -698h-45l-80 225h-307l-80 -225h-44zM164 262h284l-140 395h-4zM399 809q-17 0 -24.5 8.5t-7.5 20.5v9q0 12 7.5 21t24.5 9t24.5 -9t7.5 -21v-9q0 -12 -7.5 -20.5t-24.5 -8.5zM215 809q-17 0 -24.5 8.5t-7.5 20.5v9q0 12 7.5 21t24.5 9q18 0 25 -9
t7 -21v-9q0 -12 -7 -20.5t-25 -8.5z" />
    <glyph glyph-name="Aring" unicode="&#xc5;" horiz-adv-x="614" 
d="M29 0l250 698h56l250 -698h-45l-80 225h-307l-80 -225h-44zM164 262h284l-140 395h-4zM307 761q-29 0 -51.5 13t-35 35t-12.5 51t12.5 51.5t35 35t51.5 12.5t51 -12.5t35 -35t13 -51.5t-13 -51t-35 -35t-51 -13zM307 790q30 0 48 17t18 46v14q0 30 -18 47t-48 17t-48 -17
t-18 -47v-14q0 -29 18 -46t48 -17z" />
    <glyph glyph-name="AE" unicode="&#xc6;" horiz-adv-x="876" 
d="M3 0l374 698h430v-38h-354v-287h339v-38h-339v-297h354v-38h-396v224h-244l-120 -224h-44zM186 262h225v398h-12z" />
    <glyph glyph-name="Ccedilla" unicode="&#xc7;" horiz-adv-x="614" 
d="M345 -204q-32 0 -55 11t-32 24l21 23q10 -13 27 -20.5t39 -7.5q24 0 39.5 11.5t15.5 33.5q0 18 -13.5 30t-49.5 15l-34 2l15 70q-120 5 -186 95.5t-66 264.5q0 119 31.5 199.5t91 121.5t143.5 41q81 0 138 -39.5t86 -106.5l-35 -20q-25 59 -73.5 93.5t-115.5 34.5
q-102 0 -161 -75t-59 -218v-63q0 -143 59 -216.5t161 -73.5q72 0 121.5 36.5t72.5 99.5l35 -20q-27 -67 -82 -108.5t-132 -45.5l-13 -57l2 -2q8 2 16.5 3t16.5 1q29 0 48 -16.5t19 -45.5q0 -22 -11.5 -38.5t-32 -26.5t-47.5 -10z" />
    <glyph glyph-name="Egrave" unicode="&#xc8;" horiz-adv-x="568" 
d="M103 0v698h396v-38h-353v-287h338v-38h-338v-297h353v-38h-396zM310 763l-112 154l37 20l102 -159z" />
    <glyph glyph-name="Eacute" unicode="&#xc9;" horiz-adv-x="568" 
d="M103 0v698h396v-38h-353v-287h338v-38h-338v-297h353v-38h-396zM291 763l-27 15l102 159l37 -20z" />
    <glyph glyph-name="Ecircumflex" unicode="&#xca;" horiz-adv-x="568" 
d="M103 0v698h396v-38h-353v-287h338v-38h-338v-297h353v-38h-396zM178 773l-24 18l122 136h50l122 -136l-24 -18l-123 124z" />
    <glyph glyph-name="Edieresis" unicode="&#xcb;" horiz-adv-x="568" 
d="M103 0v698h396v-38h-353v-287h338v-38h-338v-297h353v-38h-396zM393 809q-17 0 -24.5 8.5t-7.5 20.5v9q0 12 7.5 21t24.5 9t24.5 -9t7.5 -21v-9q0 -12 -7.5 -20.5t-24.5 -8.5zM209 809q-17 0 -24.5 8.5t-7.5 20.5v9q0 12 7.5 21t24.5 9q18 0 25 -9t7 -21v-9
q0 -12 -7 -20.5t-25 -8.5z" />
    <glyph glyph-name="Igrave" unicode="&#xcc;" horiz-adv-x="381" 
d="M65 0v36h104v626h-104v36h251v-36h-104v-626h104v-36h-251zM200 763l-112 154l37 20l102 -159z" />
    <glyph glyph-name="Iacute" unicode="&#xcd;" horiz-adv-x="381" 
d="M65 0v36h104v626h-104v36h251v-36h-104v-626h104v-36h-251zM181 763l-27 15l102 159l37 -20z" />
    <glyph glyph-name="Icircumflex" unicode="&#xce;" horiz-adv-x="381" 
d="M65 0v36h104v626h-104v36h251v-36h-104v-626h104v-36h-251zM68 773l-24 18l122 136h50l122 -136l-24 -18l-123 124z" />
    <glyph glyph-name="Idieresis" unicode="&#xcf;" horiz-adv-x="381" 
d="M65 0v36h104v626h-104v36h251v-36h-104v-626h104v-36h-251zM283 809q-17 0 -24.5 8.5t-7.5 20.5v9q0 12 7.5 21t24.5 9t24.5 -9t7.5 -21v-9q0 -12 -7.5 -20.5t-24.5 -8.5zM99 809q-17 0 -24.5 8.5t-7.5 20.5v9q0 12 7.5 21t24.5 9q18 0 25 -9t7 -21v-9q0 -12 -7 -20.5
t-25 -8.5z" />
    <glyph glyph-name="Eth" unicode="&#xd0;" horiz-adv-x="665" 
d="M106 0v352h-82v34h82v312h214q91 0 153.5 -39t94 -116.5t31.5 -193.5t-31.5 -193.5t-94 -116.5t-153.5 -39h-214zM149 38h172q77 0 128.5 33.5t77.5 94.5t26 144v78q0 84 -26 145t-77.5 94t-128.5 33h-172v-274h160v-34h-160v-314z" />
    <glyph glyph-name="Ntilde" unicode="&#xd1;" horiz-adv-x="697" 
d="M103 0v698h54l241 -392l152 -249h3v641h41v-698h-54l-296 479l-97 162h-3v-641h-41zM420 799q-20 0 -38 8t-40 21q-23 14 -38.5 19.5t-29.5 5.5q-17 0 -32 -7.5t-30 -23.5l-19 22q16 20 37 31.5t46 11.5q20 0 38 -7t40 -21q23 -14 38.5 -20t29.5 -6q17 0 32 8t30 23
l19 -21q-16 -20 -37 -32t-46 -12z" />
    <glyph glyph-name="Ograve" unicode="&#xd2;" horiz-adv-x="689" 
d="M345 -12q-88 0 -150.5 41t-95.5 121t-33 199t33 199.5t95.5 121t150.5 40.5t150 -40.5t95 -121t33 -199.5t-33 -199t-95 -121t-150 -41zM345 26q71 0 123 33.5t80.5 98.5t28.5 158v66q0 94 -28.5 158.5t-80.5 98t-123 33.5t-123.5 -33.5t-81 -98t-28.5 -158.5v-66
q0 -93 28.5 -158t81 -98.5t123.5 -33.5zM354 763l-112 154l37 20l102 -159z" />
    <glyph glyph-name="Oacute" unicode="&#xd3;" horiz-adv-x="689" 
d="M345 -12q-88 0 -150.5 41t-95.5 121t-33 199t33 199.5t95.5 121t150.5 40.5t150 -40.5t95 -121t33 -199.5t-33 -199t-95 -121t-150 -41zM345 26q71 0 123 33.5t80.5 98.5t28.5 158v66q0 94 -28.5 158.5t-80.5 98t-123 33.5t-123.5 -33.5t-81 -98t-28.5 -158.5v-66
q0 -93 28.5 -158t81 -98.5t123.5 -33.5zM335 763l-27 15l102 159l37 -20z" />
    <glyph glyph-name="Ocircumflex" unicode="&#xd4;" horiz-adv-x="689" 
d="M345 -12q-88 0 -150.5 41t-95.5 121t-33 199t33 199.5t95.5 121t150.5 40.5t150 -40.5t95 -121t33 -199.5t-33 -199t-95 -121t-150 -41zM345 26q71 0 123 33.5t80.5 98.5t28.5 158v66q0 94 -28.5 158.5t-80.5 98t-123 33.5t-123.5 -33.5t-81 -98t-28.5 -158.5v-66
q0 -93 28.5 -158t81 -98.5t123.5 -33.5zM222 773l-24 18l122 136h50l122 -136l-24 -18l-123 124z" />
    <glyph glyph-name="Otilde" unicode="&#xd5;" horiz-adv-x="689" 
d="M345 -12q-88 0 -150.5 41t-95.5 121t-33 199t33 199.5t95.5 121t150.5 40.5t150 -40.5t95 -121t33 -199.5t-33 -199t-95 -121t-150 -41zM345 26q71 0 123 33.5t80.5 98.5t28.5 158v66q0 94 -28.5 158.5t-80.5 98t-123 33.5t-123.5 -33.5t-81 -98t-28.5 -158.5v-66
q0 -93 28.5 -158t81 -98.5t123.5 -33.5zM417 799q-20 0 -38 8t-40 21q-23 14 -38.5 19.5t-29.5 5.5q-17 0 -32 -7.5t-30 -23.5l-19 22q16 20 37 31.5t46 11.5q20 0 38 -7t40 -21q23 -14 38.5 -20t29.5 -6q17 0 32 8t30 23l19 -21q-16 -20 -37 -32t-46 -12z" />
    <glyph glyph-name="Odieresis" unicode="&#xd6;" horiz-adv-x="689" 
d="M345 -12q-88 0 -150.5 41t-95.5 121t-33 199t33 199.5t95.5 121t150.5 40.5t150 -40.5t95 -121t33 -199.5t-33 -199t-95 -121t-150 -41zM345 26q71 0 123 33.5t80.5 98.5t28.5 158v66q0 94 -28.5 158.5t-80.5 98t-123 33.5t-123.5 -33.5t-81 -98t-28.5 -158.5v-66
q0 -93 28.5 -158t81 -98.5t123.5 -33.5zM437 809q-17 0 -24.5 8.5t-7.5 20.5v9q0 12 7.5 21t24.5 9t24.5 -9t7.5 -21v-9q0 -12 -7.5 -20.5t-24.5 -8.5zM253 809q-17 0 -24.5 8.5t-7.5 20.5v9q0 12 7.5 21t24.5 9q18 0 25 -9t7 -21v-9q0 -12 -7 -20.5t-25 -8.5z" />
    <glyph glyph-name="multiply" unicode="&#xd7;" horiz-adv-x="600" 
d="M126 104l-25 25l174 176l-174 176l25 25l174 -176l174 176l25 -25l-174 -176l174 -176l-25 -25l-174 176z" />
    <glyph glyph-name="Oslash" unicode="&#xd8;" horiz-adv-x="689" 
d="M99 -36l-31 20l69 99q-35 45 -53 112t-18 154q0 119 33 199.5t95.5 121t150.5 40.5q112 0 182 -67l64 92l30 -20l-69 -99q35 -46 53 -112.5t18 -154.5q0 -119 -33 -199t-95 -121t-150 -41q-114 0 -183 68zM345 26q71 0 123 33.5t80.5 98.5t28.5 158v66q0 63 -12.5 112.5
t-37.5 84.5l-341 -490q60 -63 159 -63zM161 119l342 490q-60 63 -158 63q-71 0 -123.5 -33.5t-81 -98t-28.5 -158.5v-66q0 -62 13 -111.5t36 -85.5z" />
    <glyph glyph-name="Ugrave" unicode="&#xd9;" horiz-adv-x="661" 
d="M329 -12q-87 0 -138 29t-73 92.5t-22 165.5v423h43v-431q0 -85 17.5 -138t59.5 -78t114 -25q73 0 115 25t59.5 78t17.5 138v431h43v-423q0 -102 -22.5 -165.5t-74.5 -92.5t-139 -29zM339 763l-112 154l37 20l102 -159z" />
    <glyph glyph-name="Uacute" unicode="&#xda;" horiz-adv-x="661" 
d="M329 -12q-87 0 -138 29t-73 92.5t-22 165.5v423h43v-431q0 -85 17.5 -138t59.5 -78t114 -25q73 0 115 25t59.5 78t17.5 138v431h43v-423q0 -102 -22.5 -165.5t-74.5 -92.5t-139 -29zM320 763l-27 15l102 159l37 -20z" />
    <glyph glyph-name="Ucircumflex" unicode="&#xdb;" horiz-adv-x="661" 
d="M329 -12q-87 0 -138 29t-73 92.5t-22 165.5v423h43v-431q0 -85 17.5 -138t59.5 -78t114 -25q73 0 115 25t59.5 78t17.5 138v431h43v-423q0 -102 -22.5 -165.5t-74.5 -92.5t-139 -29zM207 773l-24 18l122 136h50l122 -136l-24 -18l-123 124z" />
    <glyph glyph-name="Udieresis" unicode="&#xdc;" horiz-adv-x="661" 
d="M329 -12q-87 0 -138 29t-73 92.5t-22 165.5v423h43v-431q0 -85 17.5 -138t59.5 -78t114 -25q73 0 115 25t59.5 78t17.5 138v431h43v-423q0 -102 -22.5 -165.5t-74.5 -92.5t-139 -29zM422 809q-17 0 -24.5 8.5t-7.5 20.5v9q0 12 7.5 21t24.5 9t24.5 -9t7.5 -21v-9
q0 -12 -7.5 -20.5t-24.5 -8.5zM238 809q-17 0 -24.5 8.5t-7.5 20.5v9q0 12 7.5 21t24.5 9q18 0 25 -9t7 -21v-9q0 -12 -7 -20.5t-25 -8.5z" />
    <glyph glyph-name="Yacute" unicode="&#xdd;" horiz-adv-x="562" 
d="M259 0v288l-241 410h49l213 -364h3l212 364h48l-241 -409v-289h-43zM271 763l-27 15l102 159l37 -20z" />
    <glyph glyph-name="Thorn" unicode="&#xde;" horiz-adv-x="598" 
d="M103 0v698h43v-152h228q59 0 99.5 -23.5t61 -67t20.5 -101.5t-20.5 -101t-61 -67t-99.5 -24h-228v-162h-43zM146 200h228q46 0 76 18t44.5 48t14.5 66v44q0 36 -14.5 66t-44.5 48t-76 18h-228v-308z" />
    <glyph glyph-name="germandbls" unicode="&#xdf;" horiz-adv-x="643" 
d="M433 -12q-62 0 -107.5 21.5t-79.5 68.5l30 24q32 -43 69.5 -61t89.5 -18q61 0 94 28t33 78q0 47 -23 70.5t-72 34.5l-40 10q-39 10 -68.5 24.5t-46 40t-16.5 68.5q0 68 54 101t142 33v12q0 93 -41.5 143.5t-121.5 50.5q-79 0 -120.5 -50.5t-41.5 -143.5v-523h-41v473h-90
v36h90v12q0 70 24 122t69.5 80.5t109.5 28.5q65 0 110 -28.5t69 -80.5t24 -122v-42h-28q-49 0 -87.5 -10.5t-60 -32.5t-21.5 -57q0 -46 25 -66t73 -32l39 -10q62 -15 96 -45t34 -93q0 -68 -45.5 -106.5t-123.5 -38.5z" />
    <glyph glyph-name="agrave" unicode="&#xe0;" horiz-adv-x="524" 
d="M222 -12q-80 0 -123.5 38.5t-43.5 108.5q0 44 20 77t63.5 51.5t116.5 18.5h129v66q0 70 -34.5 104t-102.5 34q-53 0 -88.5 -22t-56.5 -67l-28 20q21 46 63 75t112 29q86 0 131 -44t45 -124v-317h76v-36h-66q-25 0 -36 12t-13 33v34h-4q-18 -39 -57 -65t-103 -26zM226 23
q43 0 79 14.5t57.5 43t21.5 68.5v101h-129q-82 0 -119 -27.5t-37 -73.5v-27q0 -47 35.5 -73t91.5 -26zM259 585l-112 155l37 19l102 -159z" />
    <glyph glyph-name="aacute" unicode="&#xe1;" horiz-adv-x="524" 
d="M222 -12q-80 0 -123.5 38.5t-43.5 108.5q0 44 20 77t63.5 51.5t116.5 18.5h129v66q0 70 -34.5 104t-102.5 34q-53 0 -88.5 -22t-56.5 -67l-28 20q21 46 63 75t112 29q86 0 131 -44t45 -124v-317h76v-36h-66q-25 0 -36 12t-13 33v34h-4q-18 -39 -57 -65t-103 -26zM226 23
q43 0 79 14.5t57.5 43t21.5 68.5v101h-129q-82 0 -119 -27.5t-37 -73.5v-27q0 -47 35.5 -73t91.5 -26zM240 586l-27 15l102 159l37 -19z" />
    <glyph glyph-name="acircumflex" unicode="&#xe2;" horiz-adv-x="524" 
d="M222 -12q-80 0 -123.5 38.5t-43.5 108.5q0 44 20 77t63.5 51.5t116.5 18.5h129v66q0 70 -34.5 104t-102.5 34q-53 0 -88.5 -22t-56.5 -67l-28 20q21 46 63 75t112 29q86 0 131 -44t45 -124v-317h76v-36h-66q-25 0 -36 12t-13 33v34h-4q-18 -39 -57 -65t-103 -26zM226 23
q43 0 79 14.5t57.5 43t21.5 68.5v101h-129q-82 0 -119 -27.5t-37 -73.5v-27q0 -47 35.5 -73t91.5 -26zM127 596l-24 18l122 136h50l122 -136l-24 -18l-123 124z" />
    <glyph glyph-name="atilde" unicode="&#xe3;" horiz-adv-x="524" 
d="M222 -12q-80 0 -123.5 38.5t-43.5 108.5q0 44 20 77t63.5 51.5t116.5 18.5h129v66q0 70 -34.5 104t-102.5 34q-53 0 -88.5 -22t-56.5 -67l-28 20q21 46 63 75t112 29q86 0 131 -44t45 -124v-317h76v-36h-66q-25 0 -36 12t-13 33v34h-4q-18 -39 -57 -65t-103 -26zM226 23
q43 0 79 14.5t57.5 43t21.5 68.5v101h-129q-82 0 -119 -27.5t-37 -73.5v-27q0 -47 35.5 -73t91.5 -26zM322 623q-20 0 -38 7.5t-40 20.5q-23 14 -38.5 20t-29.5 6q-17 0 -32 -8t-30 -23l-19 21q16 20 37 32t46 12q20 0 38 -7.5t40 -21.5q23 -14 38.5 -19.5t29.5 -5.5
q17 0 32 8t30 23l19 -22q-16 -20 -37 -31.5t-46 -11.5z" />
    <glyph glyph-name="adieresis" unicode="&#xe4;" horiz-adv-x="524" 
d="M222 -12q-80 0 -123.5 38.5t-43.5 108.5q0 44 20 77t63.5 51.5t116.5 18.5h129v66q0 70 -34.5 104t-102.5 34q-53 0 -88.5 -22t-56.5 -67l-28 20q21 46 63 75t112 29q86 0 131 -44t45 -124v-317h76v-36h-66q-25 0 -36 12t-13 33v34h-4q-18 -39 -57 -65t-103 -26zM226 23
q43 0 79 14.5t57.5 43t21.5 68.5v101h-129q-82 0 -119 -27.5t-37 -73.5v-27q0 -47 35.5 -73t91.5 -26zM342 634q-17 0 -24.5 8.5t-7.5 20.5v9q0 12 7.5 20.5t24.5 8.5t24 -8.5t7 -20.5v-9q0 -12 -7 -20.5t-24 -8.5zM158 634q-17 0 -24 8.5t-7 20.5v9q0 12 7 20.5t24 8.5
q18 0 25 -8.5t7 -20.5v-9q0 -12 -7 -20.5t-25 -8.5z" />
    <glyph glyph-name="aring" unicode="&#xe5;" horiz-adv-x="524" 
d="M222 -12q-80 0 -123.5 38.5t-43.5 108.5q0 44 20 77t63.5 51.5t116.5 18.5h129v66q0 70 -34.5 104t-102.5 34q-53 0 -88.5 -22t-56.5 -67l-28 20q21 46 63 75t112 29q86 0 131 -44t45 -124v-317h76v-36h-66q-25 0 -36 12t-13 33v34h-4q-18 -39 -57 -65t-103 -26zM226 23
q43 0 79 14.5t57.5 43t21.5 68.5v101h-129q-82 0 -119 -27.5t-37 -73.5v-27q0 -47 35.5 -73t91.5 -26zM250 585q-29 0 -51.5 12.5t-35 35t-12.5 51.5t12.5 51t35 35t51.5 13t51 -13t35 -35t13 -51t-13 -51.5t-35 -35t-51 -12.5zM250 613q30 0 48 17t18 47v14q0 29 -18 46
t-48 17t-48 -17t-18 -46v-14q0 -30 18 -47t48 -17z" />
    <glyph glyph-name="ae" unicode="&#xe6;" horiz-adv-x="862" 
d="M218 -12q-78 0 -122 38.5t-44 107.5q0 45 20 78.5t64 52t116 18.5h129v65q0 70 -34.5 104t-101.5 34q-54 0 -89.5 -22t-57.5 -67l-28 20q21 46 63.5 75t112.5 29q52 0 86 -17.5t52.5 -46.5t22.5 -65h4q12 37 38 66t64 46t85 17q63 0 109.5 -31t72.5 -87.5t26 -133.5v-19
h-383v-26q0 -90 46.5 -145t130.5 -55q59 0 100 28.5t64 83.5l31 -18q-23 -59 -73 -94.5t-121 -35.5q-49 0 -88 16.5t-65 45t-39 65.5h-4q-6 -36 -31.5 -65t-65.5 -45.5t-90 -16.5zM223 23q43 0 79 14.5t57.5 43t21.5 68.5v102h-130q-82 -1 -119 -28.5t-37 -73.5v-27
q0 -47 35.5 -73t92.5 -26zM423 283h339v6q0 60 -21 104t-58 68.5t-88 24.5q-53 0 -92 -24.5t-59.5 -69.5t-20.5 -106v-3z" />
    <glyph glyph-name="ccedilla" unicode="&#xe7;" horiz-adv-x="492" 
d="M283 -204q-32 0 -55 11t-32 24l21 23q10 -13 27 -20.5t39 -7.5q24 0 39.5 11.5t15.5 33.5q0 18 -13.5 30t-49.5 15l-34 2l15 70q-95 6 -147.5 74.5t-52.5 192.5q0 128 57 197t159 69q66 0 109 -29.5t66 -76.5l-35 -18q-20 43 -54 65.5t-86 22.5q-83 0 -127.5 -54.5
t-44.5 -145.5v-61q0 -90 44.5 -145t127.5 -55q56 0 92.5 23.5t59.5 65.5l30 -20q-23 -45 -64.5 -73.5t-104.5 -31.5l-13 -57l2 -2q8 2 16.5 3t16.5 1q29 0 48 -16.5t19 -45.5q0 -22 -11.5 -38.5t-32 -26.5t-47.5 -10z" />
    <glyph glyph-name="egrave" unicode="&#xe8;" horiz-adv-x="538" 
d="M274 -12q-67 0 -116 31t-75.5 90.5t-26.5 145.5q0 85 26 144.5t74.5 90.5t115.5 31q63 0 110.5 -31t74 -87.5t26.5 -133.5v-19h-384v-26q0 -90 46.5 -145t130.5 -55q59 0 100.5 28.5t63.5 83.5l31 -18q-23 -59 -73.5 -94.5t-123.5 -35.5zM99 283h340v6q0 60 -21 104
t-58.5 68.5t-87.5 24.5q-54 0 -93 -24.5t-59.5 -69.5t-20.5 -106v-3zM280 586l-112 155l37 19l102 -159z" />
    <glyph glyph-name="eacute" unicode="&#xe9;" horiz-adv-x="538" 
d="M274 -12q-67 0 -116 31t-75.5 90.5t-26.5 145.5q0 85 26 144.5t74.5 90.5t115.5 31q63 0 110.5 -31t74 -87.5t26.5 -133.5v-19h-384v-26q0 -90 46.5 -145t130.5 -55q59 0 100.5 28.5t63.5 83.5l31 -18q-23 -59 -73.5 -94.5t-123.5 -35.5zM99 283h340v6q0 60 -21 104
t-58.5 68.5t-87.5 24.5q-54 0 -93 -24.5t-59.5 -69.5t-20.5 -106v-3zM261 586l-27 15l102 159l37 -19z" />
    <glyph glyph-name="ecircumflex" unicode="&#xea;" horiz-adv-x="538" 
d="M274 -12q-67 0 -116 31t-75.5 90.5t-26.5 145.5q0 85 26 144.5t74.5 90.5t115.5 31q63 0 110.5 -31t74 -87.5t26.5 -133.5v-19h-384v-26q0 -90 46.5 -145t130.5 -55q59 0 100.5 28.5t63.5 83.5l31 -18q-23 -59 -73.5 -94.5t-123.5 -35.5zM99 283h340v6q0 60 -21 104
t-58.5 68.5t-87.5 24.5q-54 0 -93 -24.5t-59.5 -69.5t-20.5 -106v-3zM148 596l-24 18l122 136h50l122 -136l-24 -18l-123 124z" />
    <glyph glyph-name="edieresis" unicode="&#xeb;" horiz-adv-x="538" 
d="M274 -12q-67 0 -116 31t-75.5 90.5t-26.5 145.5q0 85 26 144.5t74.5 90.5t115.5 31q63 0 110.5 -31t74 -87.5t26.5 -133.5v-19h-384v-26q0 -90 46.5 -145t130.5 -55q59 0 100.5 28.5t63.5 83.5l31 -18q-23 -59 -73.5 -94.5t-123.5 -35.5zM99 283h340v6q0 60 -21 104
t-58.5 68.5t-87.5 24.5q-54 0 -93 -24.5t-59.5 -69.5t-20.5 -106v-3zM363 634q-17 0 -24.5 8.5t-7.5 20.5v9q0 12 7.5 20.5t24.5 8.5t24 -8.5t7 -20.5v-9q0 -12 -7 -20.5t-24 -8.5zM179 634q-17 0 -24 8.5t-7 20.5v9q0 12 7 20.5t24 8.5q18 0 25 -8.5t7 -20.5v-9
q0 -12 -7 -20.5t-25 -8.5z" />
    <glyph glyph-name="igrave" unicode="&#xec;" horiz-adv-x="237" 
d="M98 0v509h41v-509h-41zM128 586l-112 155l37 19l102 -159z" />
    <glyph glyph-name="iacute" unicode="&#xed;" horiz-adv-x="237" 
d="M98 0v509h41v-509h-41zM109 586l-27 15l102 159l37 -19z" />
    <glyph glyph-name="icircumflex" unicode="&#xee;" horiz-adv-x="237" 
d="M98 0v509h41v-509h-41zM-4 596l-24 18l122 136h50l122 -136l-24 -18l-123 124z" />
    <glyph glyph-name="idieresis" unicode="&#xef;" horiz-adv-x="237" 
d="M98 0v509h41v-509h-41zM211 634q-17 0 -24.5 8.5t-7.5 20.5v9q0 12 7.5 20.5t24.5 8.5t24 -8.5t7 -20.5v-9q0 -12 -7 -20.5t-24 -8.5zM27 634q-17 0 -24 8.5t-7 20.5v9q0 12 7 20.5t24 8.5q18 0 25 -8.5t7 -20.5v-9q0 -12 -7 -20.5t-25 -8.5z" />
    <glyph glyph-name="eth" unicode="&#xf0;" horiz-adv-x="548" 
d="M272 -12q-65 0 -113.5 31.5t-75.5 89.5t-27 138q0 79 27 135.5t75.5 87.5t113.5 31q51 0 88.5 -22t60.5 -64l4 2q-21 66 -59 121t-84 100l-98 -70l-17 23l93 67q-24 21 -55.5 43t-63.5 39h65q20 -12 40 -27t43 -34l102 73l18 -23l-98 -70q46 -44 86.5 -105t65.5 -136.5
t25 -161.5t-27.5 -146t-76 -91t-112.5 -31zM272 24q51 0 89.5 23t60.5 66.5t22 102.5v57q0 59 -22 102.5t-60.5 67t-89.5 23.5q-50 0 -89 -23.5t-61 -66.5t-22 -103v-57q0 -59 22 -102.5t61 -66.5t89 -23z" />
    <glyph glyph-name="ntilde" unicode="&#xf1;" horiz-adv-x="560" 
d="M98 0v509h41v-78h3q16 37 53 63.5t101 26.5q84 0 129 -49.5t45 -144.5v-327h-41v320q0 84 -36.5 124.5t-105.5 40.5q-39 0 -72.5 -13.5t-54.5 -41.5t-21 -69v-361h-41zM357 624q-20 0 -38 7.5t-40 20.5q-23 14 -38.5 20t-29.5 6q-17 0 -32 -8t-30 -23l-19 21q16 20 37 32
t46 12q20 0 38 -7.5t40 -21.5q23 -14 38.5 -19.5t29.5 -5.5q17 0 32 8t30 23l19 -22q-16 -20 -37 -31.5t-46 -11.5z" />
    <glyph glyph-name="ograve" unicode="&#xf2;" horiz-adv-x="547" 
d="M273 -12q-67 0 -115.5 31t-75 90.5t-26.5 145.5t26.5 145t75 90t115.5 31t116 -31t75.5 -90t26.5 -145t-26.5 -145.5t-75.5 -90.5t-116 -31zM273 24q82 0 128 53.5t46 148.5v57q0 95 -46 148.5t-128 53.5q-81 0 -127 -53.5t-46 -148.5v-57q0 -95 46 -148.5t127 -53.5z
M282 585l-112 155l37 19l102 -159z" />
    <glyph glyph-name="oacute" unicode="&#xf3;" horiz-adv-x="547" 
d="M273 -12q-67 0 -115.5 31t-75 90.5t-26.5 145.5t26.5 145t75 90t115.5 31t116 -31t75.5 -90t26.5 -145t-26.5 -145.5t-75.5 -90.5t-116 -31zM273 24q82 0 128 53.5t46 148.5v57q0 95 -46 148.5t-128 53.5q-81 0 -127 -53.5t-46 -148.5v-57q0 -95 46 -148.5t127 -53.5z
M263 585l-27 15l102 159l37 -19z" />
    <glyph glyph-name="ocircumflex" unicode="&#xf4;" horiz-adv-x="547" 
d="M273 -12q-67 0 -115.5 31t-75 90.5t-26.5 145.5t26.5 145t75 90t115.5 31t116 -31t75.5 -90t26.5 -145t-26.5 -145.5t-75.5 -90.5t-116 -31zM273 24q82 0 128 53.5t46 148.5v57q0 95 -46 148.5t-128 53.5q-81 0 -127 -53.5t-46 -148.5v-57q0 -95 46 -148.5t127 -53.5z
M150 595l-24 18l122 136h50l122 -136l-24 -18l-123 124z" />
    <glyph glyph-name="otilde" unicode="&#xf5;" horiz-adv-x="547" 
d="M273 -12q-67 0 -115.5 31t-75 90.5t-26.5 145.5t26.5 145t75 90t115.5 31t116 -31t75.5 -90t26.5 -145t-26.5 -145.5t-75.5 -90.5t-116 -31zM273 24q82 0 128 53.5t46 148.5v57q0 95 -46 148.5t-128 53.5q-81 0 -127 -53.5t-46 -148.5v-57q0 -95 46 -148.5t127 -53.5z
M345 622q-20 0 -38 7.5t-40 20.5q-23 14 -38.5 20t-29.5 6q-17 0 -32 -8t-30 -23l-19 21q16 20 37 32t46 12q20 0 38 -7.5t40 -21.5q23 -14 38.5 -19.5t29.5 -5.5q17 0 32 8t30 23l19 -22q-16 -20 -37 -31.5t-46 -11.5z" />
    <glyph glyph-name="odieresis" unicode="&#xf6;" horiz-adv-x="547" 
d="M273 -12q-67 0 -115.5 31t-75 90.5t-26.5 145.5t26.5 145t75 90t115.5 31t116 -31t75.5 -90t26.5 -145t-26.5 -145.5t-75.5 -90.5t-116 -31zM273 24q82 0 128 53.5t46 148.5v57q0 95 -46 148.5t-128 53.5q-81 0 -127 -53.5t-46 -148.5v-57q0 -95 46 -148.5t127 -53.5z
M365 633q-17 0 -24.5 8.5t-7.5 20.5v9q0 12 7.5 20.5t24.5 8.5t24 -8.5t7 -20.5v-9q0 -12 -7 -20.5t-24 -8.5zM181 633q-17 0 -24 8.5t-7 20.5v9q0 12 7 20.5t24 8.5q18 0 25 -8.5t7 -20.5v-9q0 -12 -7 -20.5t-25 -8.5z" />
    <glyph glyph-name="divide" unicode="&#xf7;" horiz-adv-x="600" 
d="M64 288v35h472v-35h-472zM300 71q-22 0 -32.5 9.5t-10.5 24.5v13q0 15 10.5 24.5t32.5 9.5q23 0 33 -9.5t10 -24.5v-13q0 -15 -10 -24.5t-33 -9.5zM300 459q-22 0 -32.5 9t-10.5 25v12q0 16 10.5 25t32.5 9q23 0 33 -9t10 -25v-12q0 -16 -10 -25t-33 -9z" />
    <glyph glyph-name="oslash" unicode="&#xf8;" horiz-adv-x="553" 
d="M63 -31l-25 19l68 84q-23 34 -35 79.5t-12 103.5q0 86 26.5 145t75.5 90t116 31q45 0 82.5 -14.5t64.5 -42.5l67 83l24 -19l-70 -88q24 -33 36.5 -79.5t12.5 -105.5q0 -86 -26.5 -145.5t-75 -90.5t-115.5 -31q-47 0 -85 15t-65 45zM277 24q81 0 127 53.5t46 148.5v57
q0 39 -7.5 70.5t-23.5 55.5l-269 -332q22 -25 54 -39t73 -14zM131 103l270 332q-23 25 -54 37.5t-70 12.5q-82 0 -128 -53.5t-46 -148.5v-57q0 -36 7.5 -67.5t20.5 -55.5z" />
    <glyph glyph-name="ugrave" unicode="&#xf9;" horiz-adv-x="559" 
d="M263 -12q-83 0 -128.5 50t-45.5 144v327h41v-319q0 -85 37 -125t106 -40q38 0 71.5 13.5t54.5 41t21 69.5v360h41v-509h-41v79h-3q-14 -35 -50.5 -63t-103.5 -28zM284 586l-112 155l37 19l102 -159z" />
    <glyph glyph-name="uacute" unicode="&#xfa;" horiz-adv-x="559" 
d="M263 -12q-83 0 -128.5 50t-45.5 144v327h41v-319q0 -85 37 -125t106 -40q38 0 71.5 13.5t54.5 41t21 69.5v360h41v-509h-41v79h-3q-14 -35 -50.5 -63t-103.5 -28zM265 586l-27 15l102 159l37 -19z" />
    <glyph glyph-name="ucircumflex" unicode="&#xfb;" horiz-adv-x="559" 
d="M263 -12q-83 0 -128.5 50t-45.5 144v327h41v-319q0 -85 37 -125t106 -40q38 0 71.5 13.5t54.5 41t21 69.5v360h41v-509h-41v79h-3q-14 -35 -50.5 -63t-103.5 -28zM152 596l-24 18l122 136h50l122 -136l-24 -18l-123 124z" />
    <glyph glyph-name="udieresis" unicode="&#xfc;" horiz-adv-x="559" 
d="M263 -12q-83 0 -128.5 50t-45.5 144v327h41v-319q0 -85 37 -125t106 -40q38 0 71.5 13.5t54.5 41t21 69.5v360h41v-509h-41v79h-3q-14 -35 -50.5 -63t-103.5 -28zM367 634q-17 0 -24.5 8.5t-7.5 20.5v9q0 12 7.5 20.5t24.5 8.5t24 -8.5t7 -20.5v-9q0 -12 -7 -20.5
t-24 -8.5zM183 634q-17 0 -24 8.5t-7 20.5v9q0 12 7 20.5t24 8.5q18 0 25 -8.5t7 -20.5v-9q0 -12 -7 -20.5t-25 -8.5z" />
    <glyph glyph-name="yacute" unicode="&#xfd;" horiz-adv-x="468" 
d="M68 -200v36h89l57 153l-192 520h42l112 -307l56 -159h3l56 155l114 311h40l-247 -670q-5 -14 -12.5 -23t-18.5 -12.5t-29 -3.5h-70zM225 585l-27 15l102 159l37 -19z" />
    <glyph glyph-name="thorn" unicode="&#xfe;" horiz-adv-x="570" 
d="M98 -200v940h41v-311h3q18 39 58 65.5t102 26.5q66 0 113 -30.5t72.5 -90t25.5 -145.5t-25.5 -146t-72.5 -90.5t-113 -30.5q-62 0 -101.5 27t-58.5 65h-3v-280h-41zM295 25q83 0 128.5 53.5t45.5 145.5v61q0 92 -45.5 146t-128.5 54q-42 0 -77.5 -16t-57 -43.5
t-21.5 -64.5v-211q0 -37 21.5 -65.5t57 -44t77.5 -15.5z" />
    <glyph glyph-name="ydieresis" unicode="&#xff;" horiz-adv-x="468" 
d="M68 -200v36h89l57 153l-192 520h42l112 -307l56 -159h3l56 155l114 311h40l-247 -670q-5 -14 -12.5 -23t-18.5 -12.5t-29 -3.5h-70zM327 633q-17 0 -24.5 8.5t-7.5 20.5v9q0 12 7.5 20.5t24.5 8.5t24 -8.5t7 -20.5v-9q0 -12 -7 -20.5t-24 -8.5zM143 633q-17 0 -24 8.5
t-7 20.5v9q0 12 7 20.5t24 8.5q18 0 25 -8.5t7 -20.5v-9q0 -12 -7 -20.5t-25 -8.5z" />
    <glyph glyph-name="Amacron" unicode="&#x100;" horiz-adv-x="614" 
d="M29 0l250 698h56l250 -698h-45l-80 225h-307l-80 -225h-44zM164 262h284l-140 395h-4zM174 828v34h266v-34h-266z" />
    <glyph glyph-name="amacron" unicode="&#x101;" horiz-adv-x="524" 
d="M222 -12q-80 0 -123.5 38.5t-43.5 108.5q0 44 20 77t63.5 51.5t116.5 18.5h129v66q0 70 -34.5 104t-102.5 34q-53 0 -88.5 -22t-56.5 -67l-28 20q21 46 63 75t112 29q86 0 131 -44t45 -124v-317h76v-36h-66q-25 0 -36 12t-13 33v34h-4q-18 -39 -57 -65t-103 -26zM226 23
q43 0 79 14.5t57.5 43t21.5 68.5v101h-129q-82 0 -119 -27.5t-37 -73.5v-27q0 -47 35.5 -73t91.5 -26zM117 651v35h266v-35h-266z" />
    <glyph glyph-name="Abreve" unicode="&#x102;" horiz-adv-x="614" 
d="M29 0l250 698h56l250 -698h-45l-80 225h-307l-80 -225h-44zM164 262h284l-140 395h-4zM307 779q-30 0 -51.5 9.5t-36.5 25.5t-27 38t-24 47l26 12l17 -29q22 -39 41.5 -54t54.5 -15t54.5 15t41.5 54l17 29l26 -12q-15 -33 -32 -60.5t-41.5 -43.5t-65.5 -16z" />
    <glyph glyph-name="abreve" unicode="&#x103;" horiz-adv-x="524" 
d="M222 -12q-80 0 -123.5 38.5t-43.5 108.5q0 44 20 77t63.5 51.5t116.5 18.5h129v66q0 70 -34.5 104t-102.5 34q-53 0 -88.5 -22t-56.5 -67l-28 20q21 46 63 75t112 29q86 0 131 -44t45 -124v-317h76v-36h-66q-25 0 -36 12t-13 33v34h-4q-18 -39 -57 -65t-103 -26zM226 23
q43 0 79 14.5t57.5 43t21.5 68.5v101h-129q-82 0 -119 -27.5t-37 -73.5v-27q0 -47 35.5 -73t91.5 -26zM250 603q-30 0 -51.5 9t-36.5 25.5t-27 38t-24 46.5l26 12l17 -29q22 -38 41.5 -53.5t54.5 -15.5t54.5 15.5t41.5 53.5l17 29l26 -12q-12 -25 -24 -46.5t-27 -38
t-36 -25.5t-52 -9z" />
    <glyph glyph-name="Aogonek" unicode="&#x104;" horiz-adv-x="614" 
d="M528 -204q-23 0 -42.5 8t-31 24t-11.5 40q0 32 24.5 64t81.5 67l-1 3l-15 19l-72 204h-308l-80 -225h-44l250 698h56l250 -698q-38 -29 -61 -50.5t-34 -40t-11 -38.5q0 -23 14 -34t36 -11q21 0 34.5 7.5t21.5 17.5l23 -20q-10 -14 -30 -24.5t-50 -10.5zM164 262h285
l-141 395h-4z" />
    <glyph glyph-name="aogonek" unicode="&#x105;" horiz-adv-x="524" 
d="M438 -204q-23 0 -42.5 8t-30.5 23.5t-11 38.5q0 32 25.5 64t83.5 67l-1 3l-35 1q-20 2 -29.5 13.5t-11.5 30.5v34h-4q-18 -39 -57 -65t-103 -26q-80 0 -123.5 38.5t-43.5 108.5q0 44 20 77t63.5 51.5t116.5 18.5h129v66q0 70 -34.5 104t-102.5 34q-53 0 -88.5 -22
t-56.5 -67l-28 20q21 46 63 75t112 29q85 0 130.5 -44t45.5 -124v-317h76v-36q-40 -30 -64.5 -51t-36 -39.5t-11.5 -38.5q0 -24 14 -34.5t36 -10.5q20 0 34 7.5t22 17.5l22 -20q-9 -14 -29 -24.5t-50 -10.5zM226 23q43 0 79 14.5t57.5 43t21.5 68.5v101h-129
q-82 0 -119 -27.5t-37 -73.5v-27q0 -47 35.5 -73t91.5 -26z" />
    <glyph glyph-name="Cacute" unicode="&#x106;" horiz-adv-x="614" 
d="M332 -12q-84 0 -143.5 40.5t-91 120.5t-31.5 199t31.5 199.5t91 121.5t143.5 41q81 0 138 -39.5t86 -106.5l-35 -20q-25 59 -73.5 93.5t-115.5 34.5q-102 0 -161 -75t-59 -218v-63q0 -143 59 -216.5t161 -73.5q72 0 121.5 36.5t72.5 99.5l35 -20q-29 -69 -87.5 -111.5
t-141.5 -42.5zM324 763l-27 15l102 159l37 -20z" />
    <glyph glyph-name="cacute" unicode="&#x107;" horiz-adv-x="492" 
d="M272 -12q-102 0 -159 69t-57 198q0 128 57 197t159 69q66 0 109 -29.5t66 -77.5l-35 -17q-20 43 -54 65.5t-86 22.5q-83 0 -127.5 -54.5t-44.5 -145.5v-61q0 -90 44.5 -145t127.5 -55q56 0 92.5 23.5t59.5 65.5l30 -20q-25 -47 -69 -76t-113 -29zM261 586l-27 15l102 159
l37 -19z" />
    <glyph glyph-name="Ccircumflex" unicode="&#x108;" horiz-adv-x="614" 
d="M332 -12q-84 0 -143.5 40.5t-91 120.5t-31.5 199t31.5 199.5t91 121.5t143.5 41q81 0 138 -39.5t86 -106.5l-35 -20q-25 59 -73.5 93.5t-115.5 34.5q-102 0 -161 -75t-59 -218v-63q0 -143 59 -216.5t161 -73.5q72 0 121.5 36.5t72.5 99.5l35 -20q-29 -69 -87.5 -111.5
t-141.5 -42.5zM211 773l-24 18l122 136h50l122 -136l-24 -18l-123 124z" />
    <glyph glyph-name="ccircumflex" unicode="&#x109;" horiz-adv-x="492" 
d="M272 -12q-102 0 -159 69t-57 198q0 128 57 197t159 69q66 0 109 -29.5t66 -77.5l-35 -17q-20 43 -54 65.5t-86 22.5q-83 0 -127.5 -54.5t-44.5 -145.5v-61q0 -90 44.5 -145t127.5 -55q56 0 92.5 23.5t59.5 65.5l30 -20q-25 -47 -69 -76t-113 -29zM148 596l-24 18l122 136
h50l122 -136l-24 -18l-123 124z" />
    <glyph glyph-name="Cdotaccent" unicode="&#x10a;" horiz-adv-x="614" 
d="M332 -12q-84 0 -143.5 40.5t-91 120.5t-31.5 199t31.5 199.5t91 121.5t143.5 41q81 0 138 -39.5t86 -106.5l-35 -20q-25 59 -73.5 93.5t-115.5 34.5q-102 0 -161 -75t-59 -218v-63q0 -143 59 -216.5t161 -73.5q72 0 121.5 36.5t72.5 99.5l35 -20q-29 -69 -87.5 -111.5
t-141.5 -42.5zM334 808q-18 0 -26 9t-8 23v9q0 13 8 22.5t26 9.5t26 -9.5t8 -22.5v-9q0 -14 -8 -23t-26 -9z" />
    <glyph glyph-name="cdotaccent" unicode="&#x10b;" horiz-adv-x="492" 
d="M272 -12q-102 0 -159 69t-57 198q0 128 57 197t159 69q66 0 109 -29.5t66 -77.5l-35 -17q-20 43 -54 65.5t-86 22.5q-83 0 -127.5 -54.5t-44.5 -145.5v-61q0 -90 44.5 -145t127.5 -55q56 0 92.5 23.5t59.5 65.5l30 -20q-25 -47 -69 -76t-113 -29zM271 633
q-17 0 -24.5 8.5t-7.5 21.5v8q0 12 7.5 20.5t24.5 8.5t24.5 -8.5t7.5 -20.5v-8q0 -13 -7.5 -21.5t-24.5 -8.5z" />
    <glyph glyph-name="Ccaron" unicode="&#x10c;" horiz-adv-x="614" 
d="M332 -12q-84 0 -143.5 40.5t-91 120.5t-31.5 199t31.5 199.5t91 121.5t143.5 41q81 0 138 -39.5t86 -106.5l-35 -20q-25 59 -73.5 93.5t-115.5 34.5q-102 0 -161 -75t-59 -218v-63q0 -143 59 -216.5t161 -73.5q72 0 121.5 36.5t72.5 99.5l35 -20q-29 -69 -87.5 -111.5
t-141.5 -42.5zM309 778l-122 137l24 17l123 -123l123 123l24 -17l-122 -137h-50z" />
    <glyph glyph-name="ccaron" unicode="&#x10d;" horiz-adv-x="492" 
d="M272 -12q-102 0 -159 69t-57 198q0 128 57 197t159 69q66 0 109 -29.5t66 -77.5l-35 -17q-20 43 -54 65.5t-86 22.5q-83 0 -127.5 -54.5t-44.5 -145.5v-61q0 -90 44.5 -145t127.5 -55q56 0 92.5 23.5t59.5 65.5l30 -20q-25 -47 -69 -76t-113 -29zM246 602l-122 136l24 18
l123 -124l123 124l24 -18l-122 -136h-50z" />
    <glyph glyph-name="Dcaron" unicode="&#x10e;" horiz-adv-x="662" 
d="M103 0v698h214q91 0 153.5 -39t94 -116.5t31.5 -193.5t-31.5 -193.5t-94 -116.5t-153.5 -39h-214zM146 38h172q77 0 128.5 33.5t77.5 94.5t26 144v78q0 84 -26 145t-77.5 94t-128.5 33h-172v-622zM277 778l-122 137l24 17l123 -123l123 123l24 -17l-122 -137h-50z" />
    <glyph glyph-name="dcaron" unicode="&#x10f;" horiz-adv-x="601" 
d="M549 561l15 179h47l-33 -179h-29zM268 -12q-65 0 -112.5 30.5t-73 90.5t-25.5 146t25.5 145.5t73 90t112.5 30.5q62 0 102 -26.5t58 -65.5h3v311h41v-740h-41v80h-3q-19 -38 -58.5 -65t-101.5 -27zM275 25q42 0 77.5 15.5t57 44t21.5 65.5v211q0 37 -21.5 64.5t-57 43.5
t-77.5 16q-83 0 -128.5 -54t-45.5 -146v-61q0 -92 45.5 -145.5t128.5 -53.5z" />
    <glyph glyph-name="Dcroat" unicode="&#x110;" horiz-adv-x="665" 
d="M106 0v352h-82v34h82v312h214q91 0 153.5 -39t94 -116.5t31.5 -193.5t-31.5 -193.5t-94 -116.5t-153.5 -39h-214zM149 38h172q77 0 128.5 33.5t77.5 94.5t26 144v78q0 84 -26 145t-77.5 94t-128.5 33h-172v-274h160v-34h-160v-314z" />
    <glyph glyph-name="dcroat" unicode="&#x111;" horiz-adv-x="573" 
d="M268 -12q-65 0 -112.5 30.5t-73 90.5t-25.5 146t25.5 145.5t73 90t112.5 30.5q62 0 102 -26.5t58 -65.5h3v193h-159v33h159v85h41v-85h65v-33h-65v-622h-41v80h-3q-19 -38 -58.5 -65t-101.5 -27zM275 25q42 0 77.5 15.5t57 44t21.5 65.5v211q0 37 -21.5 64.5t-57 43.5
t-77.5 16q-83 0 -128.5 -54t-45.5 -146v-61q0 -92 45.5 -145.5t128.5 -53.5z" />
    <glyph glyph-name="Emacron" unicode="&#x112;" horiz-adv-x="568" 
d="M103 0v698h396v-38h-353v-287h338v-38h-338v-297h353v-38h-396zM168 828v34h266v-34h-266z" />
    <glyph glyph-name="emacron" unicode="&#x113;" horiz-adv-x="538" 
d="M274 -12q-67 0 -116 31t-75.5 90.5t-26.5 145.5q0 85 26 144.5t74.5 90.5t115.5 31q63 0 110.5 -31t74 -87.5t26.5 -133.5v-19h-384v-26q0 -90 46.5 -145t130.5 -55q59 0 100.5 28.5t63.5 83.5l31 -18q-23 -59 -73.5 -94.5t-123.5 -35.5zM99 283h340v6q0 60 -21 104
t-58.5 68.5t-87.5 24.5q-54 0 -93 -24.5t-59.5 -69.5t-20.5 -106v-3zM138 651v35h266v-35h-266z" />
    <glyph glyph-name="Ebreve" unicode="&#x114;" horiz-adv-x="568" 
d="M103 0v698h396v-38h-353v-287h338v-38h-338v-297h353v-38h-396zM301 779q-30 0 -51.5 9.5t-36.5 25.5t-27 38t-24 47l26 12l17 -29q22 -39 41.5 -54t54.5 -15t54.5 15t41.5 54l17 29l26 -12q-15 -33 -32 -60.5t-41.5 -43.5t-65.5 -16z" />
    <glyph glyph-name="ebreve" unicode="&#x115;" horiz-adv-x="538" 
d="M274 -12q-67 0 -116 31t-75.5 90.5t-26.5 145.5q0 85 26 144.5t74.5 90.5t115.5 31q63 0 110.5 -31t74 -87.5t26.5 -133.5v-19h-384v-26q0 -90 46.5 -145t130.5 -55q59 0 100.5 28.5t63.5 83.5l31 -18q-23 -59 -73.5 -94.5t-123.5 -35.5zM99 283h340v6q0 60 -21 104
t-58.5 68.5t-87.5 24.5q-54 0 -93 -24.5t-59.5 -69.5t-20.5 -106v-3zM271 603q-30 0 -51.5 9t-36.5 25.5t-27 38t-24 46.5l26 12l17 -29q22 -38 41.5 -53.5t54.5 -15.5t54.5 15.5t41.5 53.5l17 29l26 -12q-12 -25 -24 -46.5t-27 -38t-36 -25.5t-52 -9z" />
    <glyph glyph-name="Edotaccent" unicode="&#x116;" horiz-adv-x="568" 
d="M103 0v698h396v-38h-353v-287h338v-38h-338v-297h353v-38h-396zM301 808q-18 0 -26 9t-8 23v9q0 13 8 22.5t26 9.5t26 -9.5t8 -22.5v-9q0 -14 -8 -23t-26 -9z" />
    <glyph glyph-name="edotaccent" unicode="&#x117;" horiz-adv-x="538" 
d="M274 -12q-67 0 -116 31t-75.5 90.5t-26.5 145.5q0 85 26 144.5t74.5 90.5t115.5 31q63 0 110.5 -31t74 -87.5t26.5 -133.5v-19h-384v-26q0 -90 46.5 -145t130.5 -55q59 0 100.5 28.5t63.5 83.5l31 -18q-23 -59 -73.5 -94.5t-123.5 -35.5zM99 283h340v6q0 60 -21 104
t-58.5 68.5t-87.5 24.5q-54 0 -93 -24.5t-59.5 -69.5t-20.5 -106v-3zM271 633q-17 0 -24.5 8.5t-7.5 21.5v8q0 12 7.5 20.5t24.5 8.5t24.5 -8.5t7.5 -20.5v-8q0 -13 -7.5 -21.5t-24.5 -8.5z" />
    <glyph glyph-name="Eogonek" unicode="&#x118;" horiz-adv-x="568" 
d="M436 -204q-23 0 -42.5 8t-30.5 23.5t-11 38.5q0 32 25 64t83 66l-1 4h-356v698h396v-38h-353v-287h338v-38h-338v-297h353v-38q-40 -30 -64.5 -51t-36 -39.5t-11.5 -38.5q0 -24 14 -34.5t36 -10.5q20 0 34 7.5t22 17.5l22 -20q-9 -14 -29 -24.5t-50 -10.5z" />
    <glyph glyph-name="eogonek" unicode="&#x119;" horiz-adv-x="538" 
d="M327 -204q-23 0 -42 8t-30.5 24t-11.5 40q0 22 10 43t31 42.5t54 41.5l-2 3q-12 -5 -27.5 -7.5t-34.5 -2.5q-67 0 -116 31t-75.5 90.5t-26.5 145.5q0 85 26 144.5t74.5 90.5t115.5 31q63 0 110.5 -31t74 -87.5t26.5 -133.5v-19h-384v-26q0 -90 46.5 -145t130.5 -55
q59 0 100.5 28.5t63.5 83.5l31 -18q-11 -29 -28.5 -51.5t-41.5 -39.5q-26 -19 -48 -37.5t-38.5 -37.5t-26 -38.5t-9.5 -40.5q0 -25 14 -36t35 -11t35 7.5t21 17.5l23 -20q-10 -14 -30 -24.5t-50 -10.5zM99 283h340v6q0 60 -21 104t-58.5 68.5t-87.5 24.5q-54 0 -93 -24.5
t-59.5 -69.5t-20.5 -106v-3z" />
    <glyph glyph-name="Ecaron" unicode="&#x11a;" horiz-adv-x="568" 
d="M103 0v698h396v-38h-353v-287h338v-38h-338v-297h353v-38h-396zM276 778l-122 137l24 17l123 -123l123 123l24 -17l-122 -137h-50z" />
    <glyph glyph-name="ecaron" unicode="&#x11b;" horiz-adv-x="538" 
d="M274 -12q-67 0 -116 31t-75.5 90.5t-26.5 145.5q0 85 26 144.5t74.5 90.5t115.5 31q63 0 110.5 -31t74 -87.5t26.5 -133.5v-19h-384v-26q0 -90 46.5 -145t130.5 -55q59 0 100.5 28.5t63.5 83.5l31 -18q-23 -59 -73.5 -94.5t-123.5 -35.5zM99 283h340v6q0 60 -21 104
t-58.5 68.5t-87.5 24.5q-54 0 -93 -24.5t-59.5 -69.5t-20.5 -106v-3zM246 602l-122 136l24 18l123 -124l123 124l24 -18l-122 -136h-50z" />
    <glyph glyph-name="Gcircumflex" unicode="&#x11c;" horiz-adv-x="676" 
d="M343 -12q-87 0 -148.5 41t-95 121t-33.5 199t33.5 199.5t95.5 121t150 40.5q85 0 146 -40t91 -106l-35 -20q-26 60 -78.5 94t-123.5 34t-123.5 -33.5t-81 -98t-28.5 -158.5v-66q0 -93 28.5 -157.5t81.5 -98.5t126 -34q56 0 103.5 20.5t76 61t28.5 101.5v94h-168v38h210
v-341h-40v110h-3q-23 -56 -76.5 -89t-135.5 -33zM222 773l-24 18l122 136h50l122 -136l-24 -18l-123 124z" />
    <glyph glyph-name="gcircumflex" unicode="&#x11d;" horiz-adv-x="528" 
d="M265 -212q-115 0 -166 35t-51 94q0 44 25 72t68 41v6q-26 9 -38.5 26.5t-12.5 42.5q0 36 26 56.5t61 30.5v3q-44 20 -68.5 59t-24.5 95q0 52 22 90.5t62.5 60t95.5 21.5q20 0 38.5 -3t35.5 -9h164v-34h-113q26 -20 40.5 -52t14.5 -74q0 -51 -22.5 -90t-63 -60.5
t-94.5 -21.5q-14 0 -27 2t-27 5q-38 -11 -60.5 -28t-22.5 -44q0 -21 19 -35.5t65 -14.5h127q89 0 129 -33.5t40 -90.5q0 -51 -28 -84.5t-82 -49.5t-132 -16zM235 -178h58q79 0 127 27.5t48 86.5q0 41 -29 64.5t-103 23.5h-161q-39 -12 -63.5 -36.5t-24.5 -64.5
q0 -44 38.5 -72.5t109.5 -28.5zM264 211q64 0 100 33.5t36 87.5v35q0 54 -36 87t-100 33t-100 -33t-36 -87v-35q0 -54 36 -87.5t100 -33.5zM142 596l-24 18l122 136h50l122 -136l-24 -18l-123 124z" />
    <glyph glyph-name="Gbreve" unicode="&#x11e;" horiz-adv-x="676" 
d="M343 -12q-87 0 -148.5 41t-95 121t-33.5 199t33.5 199.5t95.5 121t150 40.5q85 0 146 -40t91 -106l-35 -20q-26 60 -78.5 94t-123.5 34t-123.5 -33.5t-81 -98t-28.5 -158.5v-66q0 -93 28.5 -157.5t81.5 -98.5t126 -34q56 0 103.5 20.5t76 61t28.5 101.5v94h-168v38h210
v-341h-40v110h-3q-23 -56 -76.5 -89t-135.5 -33zM345 779q-30 0 -51.5 9.5t-36.5 25.5t-27 38t-24 47l26 12l17 -29q22 -39 41.5 -54t54.5 -15t54.5 15t41.5 54l17 29l26 -12q-15 -33 -32 -60.5t-41.5 -43.5t-65.5 -16z" />
    <glyph glyph-name="gbreve" unicode="&#x11f;" horiz-adv-x="528" 
d="M265 -212q-115 0 -166 35t-51 94q0 44 25 72t68 41v6q-26 9 -38.5 26.5t-12.5 42.5q0 36 26 56.5t61 30.5v3q-44 20 -68.5 59t-24.5 95q0 52 22 90.5t62.5 60t95.5 21.5q20 0 38.5 -3t35.5 -9h164v-34h-113q26 -20 40.5 -52t14.5 -74q0 -51 -22.5 -90t-63 -60.5
t-94.5 -21.5q-14 0 -27 2t-27 5q-38 -11 -60.5 -28t-22.5 -44q0 -21 19 -35.5t65 -14.5h127q89 0 129 -33.5t40 -90.5q0 -51 -28 -84.5t-82 -49.5t-132 -16zM235 -178h58q79 0 127 27.5t48 86.5q0 41 -29 64.5t-103 23.5h-161q-39 -12 -63.5 -36.5t-24.5 -64.5
q0 -44 38.5 -72.5t109.5 -28.5zM264 211q64 0 100 33.5t36 87.5v35q0 54 -36 87t-100 33t-100 -33t-36 -87v-35q0 -54 36 -87.5t100 -33.5zM264 603q-30 0 -51.5 9t-36.5 25.5t-27 38t-24 46.5l26 12l17 -29q22 -38 41.5 -53.5t54.5 -15.5t54.5 15.5t41.5 53.5l17 29l26 -12
q-12 -25 -24 -46.5t-27 -38t-36 -25.5t-52 -9z" />
    <glyph glyph-name="Gdotaccent" unicode="&#x120;" horiz-adv-x="676" 
d="M343 -12q-87 0 -148.5 41t-95 121t-33.5 199t33.5 199.5t95.5 121t150 40.5q85 0 146 -40t91 -106l-35 -20q-26 60 -78.5 94t-123.5 34t-123.5 -33.5t-81 -98t-28.5 -158.5v-66q0 -93 28.5 -157.5t81.5 -98.5t126 -34q56 0 103.5 20.5t76 61t28.5 101.5v94h-168v38h210
v-341h-40v110h-3q-23 -56 -76.5 -89t-135.5 -33zM345 808q-18 0 -26 9t-8 23v9q0 13 8 22.5t26 9.5t26 -9.5t8 -22.5v-9q0 -14 -8 -23t-26 -9z" />
    <glyph glyph-name="gdotaccent" unicode="&#x121;" horiz-adv-x="528" 
d="M265 -212q-115 0 -166 35t-51 94q0 44 25 72t68 41v6q-26 9 -38.5 26.5t-12.5 42.5q0 36 26 56.5t61 30.5v3q-44 20 -68.5 59t-24.5 95q0 52 22 90.5t62.5 60t95.5 21.5q20 0 38.5 -3t35.5 -9h164v-34h-113q26 -20 40.5 -52t14.5 -74q0 -51 -22.5 -90t-63 -60.5
t-94.5 -21.5q-14 0 -27 2t-27 5q-38 -11 -60.5 -28t-22.5 -44q0 -21 19 -35.5t65 -14.5h127q89 0 129 -33.5t40 -90.5q0 -51 -28 -84.5t-82 -49.5t-132 -16zM235 -178h58q79 0 127 27.5t48 86.5q0 41 -29 64.5t-103 23.5h-161q-39 -12 -63.5 -36.5t-24.5 -64.5
q0 -44 38.5 -72.5t109.5 -28.5zM264 211q64 0 100 33.5t36 87.5v35q0 54 -36 87t-100 33t-100 -33t-36 -87v-35q0 -54 36 -87.5t100 -33.5zM265 633q-17 0 -24.5 8.5t-7.5 21.5v8q0 12 7.5 20.5t24.5 8.5t24.5 -8.5t7.5 -20.5v-8q0 -13 -7.5 -21.5t-24.5 -8.5z" />
    <glyph glyph-name="uni0122" unicode="&#x122;" horiz-adv-x="676" 
d="M343 -12q-87 0 -148.5 41t-95 121t-33.5 199t33.5 199.5t95.5 121t150 40.5q85 0 146 -40t91 -106l-35 -20q-26 60 -78.5 94t-123.5 34t-123.5 -33.5t-81 -98t-28.5 -158.5v-66q0 -93 28.5 -157.5t81.5 -98.5t126 -34q56 0 103.5 20.5t76 61t28.5 101.5v94h-168v38h210
v-341h-40v110h-3q-23 -56 -76.5 -89t-135.5 -33zM294 -223q21 23 32 47.5t15 42.5q-16 1 -23 9t-7 19v9q0 14 8 22t25 8q16 0 23.5 -8t7.5 -22v-11q0 -29 -14 -61.5t-36 -54.5h-31z" />
    <glyph glyph-name="uni0123" unicode="&#x123;" horiz-adv-x="528" 
d="M265 -212q-115 0 -166 35t-51 94q0 44 25 72t68 41v6q-26 9 -38.5 26.5t-12.5 42.5q0 36 26 56.5t61 30.5v3q-44 20 -68.5 59t-24.5 95q0 52 22 90.5t62.5 60t95.5 21.5q20 0 38.5 -3t35.5 -9h164v-34h-113q26 -20 40.5 -52t14.5 -74q0 -51 -22.5 -90t-63 -60.5
t-94.5 -21.5q-14 0 -27 2t-27 5q-38 -11 -60.5 -28t-22.5 -44q0 -21 19 -35.5t65 -14.5h127q89 0 129 -33.5t40 -90.5q0 -51 -28 -84.5t-82 -49.5t-132 -16zM235 -178h58q79 0 127 27.5t48 86.5q0 41 -29 64.5t-103 23.5h-161q-39 -12 -63.5 -36.5t-24.5 -64.5
q0 -44 38.5 -72.5t109.5 -28.5zM264 211q64 0 100 33.5t36 87.5v35q0 54 -36 87t-100 33t-100 -33t-36 -87v-35q0 -54 36 -87.5t100 -33.5zM265 598q-17 0 -24.5 8t-7.5 22v11q0 29 14.5 61.5t35.5 54.5h31q-21 -23 -32 -47t-15 -43q17 -2 24 -9.5t7 -18.5v-9q0 -14 -8 -22
t-25 -8z" />
    <glyph glyph-name="Hcircumflex" unicode="&#x124;" horiz-adv-x="697" 
d="M103 0v698h43v-325h405v325h43v-698h-43v335h-405v-335h-43zM226 773l-24 18l122 136h50l122 -136l-24 -18l-123 124z" />
    <glyph glyph-name="hcircumflex" unicode="&#x125;" horiz-adv-x="560" 
d="M98 0v740h41v-309h3q16 37 53 63.5t101 26.5q84 0 129 -49.5t45 -144.5v-327h-41v320q0 84 -36.5 124.5t-105.5 40.5q-39 0 -72.5 -13.5t-54.5 -41.5t-21 -69v-361h-41zM-3 754l-24 18l122 136h50l122 -136l-24 -18l-123 124z" />
    <glyph glyph-name="Hbar" unicode="&#x126;" horiz-adv-x="703" 
d="M106 0v531h-78v34h78v133h43v-133h405v133h43v-133h78v-34h-78v-531h-43v335h-405v-335h-43zM149 373h405v158h-405v-158z" />
    <glyph glyph-name="hbar" unicode="&#x127;" horiz-adv-x="562" 
d="M100 0v622h-65v33h65v85h41v-85h159v-33h-159v-191h3q16 37 53 63.5t101 26.5q84 0 129 -49.5t45 -144.5v-327h-41v320q0 84 -36.5 124.5t-105.5 40.5q-39 0 -72.5 -13.5t-54.5 -41.5t-21 -69v-361h-41z" />
    <glyph glyph-name="Itilde" unicode="&#x128;" horiz-adv-x="381" 
d="M65 0v36h104v626h-104v36h251v-36h-104v-626h104v-36h-251zM263 799q-20 0 -38 8t-40 21q-23 14 -38.5 19.5t-29.5 5.5q-17 0 -32 -7.5t-30 -23.5l-19 22q16 20 37 31.5t46 11.5q20 0 38 -7t40 -21q23 -14 38.5 -20t29.5 -6q17 0 32 8t30 23l19 -21q-16 -20 -37 -32
t-46 -12z" />
    <glyph glyph-name="itilde" unicode="&#x129;" horiz-adv-x="237" 
d="M98 0v509h41v-509h-41zM191 623q-20 0 -38 7.5t-40 20.5q-23 14 -38.5 20t-29.5 6q-17 0 -32 -8t-30 -23l-19 21q16 20 37 32t46 12q20 0 38 -7.5t40 -21.5q23 -14 38.5 -19.5t29.5 -5.5q17 0 32 8t30 23l19 -22q-16 -20 -37 -31.5t-46 -11.5z" />
    <glyph glyph-name="Imacron" unicode="&#x12a;" horiz-adv-x="381" 
d="M65 0v36h104v626h-104v36h251v-36h-104v-626h104v-36h-251zM58 828v34h266v-34h-266z" />
    <glyph glyph-name="imacron" unicode="&#x12b;" horiz-adv-x="237" 
d="M98 0v509h41v-509h-41zM-14 651v35h266v-35h-266z" />
    <glyph glyph-name="Ibreve" unicode="&#x12c;" horiz-adv-x="381" 
d="M65 0v36h104v626h-104v36h251v-36h-104v-626h104v-36h-251zM191 779q-30 0 -51.5 9.5t-36.5 25.5t-27 38t-24 47l26 12l17 -29q22 -39 41.5 -54t54.5 -15t54.5 15t41.5 54l17 29l26 -12q-15 -33 -32 -60.5t-41.5 -43.5t-65.5 -16z" />
    <glyph glyph-name="ibreve" unicode="&#x12d;" horiz-adv-x="237" 
d="M98 0v509h41v-509h-41zM119 603q-30 0 -51.5 9t-36.5 25.5t-27 38t-24 46.5l26 12l17 -29q22 -38 41.5 -53.5t54.5 -15.5t54.5 15.5t41.5 53.5l17 29l26 -12q-12 -25 -24 -46.5t-27 -38t-36 -25.5t-52 -9z" />
    <glyph glyph-name="Iogonek" unicode="&#x12e;" horiz-adv-x="381" 
d="M253 -204q-23 0 -42.5 8t-30.5 23.5t-11 38.5q0 32 24.5 63.5t83.5 66.5l-1 4h-211v36h104v626h-104v36h251v-36h-104v-626h104v-36q-40 -30 -64.5 -51t-36 -39.5t-11.5 -38.5q0 -24 14 -34.5t36 -10.5q20 0 34 7.5t22 17.5l22 -20q-9 -14 -29 -24.5t-50 -10.5z" />
    <glyph glyph-name="iogonek" unicode="&#x12f;" horiz-adv-x="237" 
d="M96 -204q-23 0 -42.5 8t-30.5 24t-11 40q0 36 24.5 66t68.5 65l-1 2l-6 2v506h41v-509q-34 -31 -54 -52.5t-29 -39t-9 -36.5q0 -24 14 -35t36 -11q20 0 34 7.5t22 17.5l22 -20q-9 -14 -29 -24.5t-50 -10.5zM119 661q-17 0 -24.5 8.5t-7.5 20.5v9q0 12 7.5 20.5t24.5 8.5
t24.5 -8.5t7.5 -20.5v-9q0 -12 -7.5 -20.5t-24.5 -8.5z" />
    <glyph glyph-name="Idotaccent" unicode="&#x130;" horiz-adv-x="381" 
d="M65 0v36h104v626h-104v36h251v-36h-104v-626h104v-36h-251zM191 808q-18 0 -26 9t-8 23v9q0 13 8 22.5t26 9.5t26 -9.5t8 -22.5v-9q0 -14 -8 -23t-26 -9z" />
    <glyph glyph-name="dotlessi" unicode="&#x131;" horiz-adv-x="237" 
d="M98 0v509h41v-509h-41z" />
    <glyph glyph-name="IJ" unicode="&#x132;" horiz-adv-x="636" 
d="M313 -12q-94 0 -146 39t-69 113l38 10q17 -61 58.5 -92.5t119.5 -31.5q88 0 135.5 45.5t47.5 132.5v456h-181v38h224v-488q0 -71 -26.5 -120.5t-77 -75.5t-123.5 -26zM96 290v408h43v-408h-43z" />
    <glyph glyph-name="ij" unicode="&#x133;" horiz-adv-x="473" 
d="M98 0v509h41v-509h-41zM118 661q-17 0 -24 8.5t-7 20.5v9q0 12 7 20.5t24 8.5q18 0 25 -8.5t7 -20.5v-9q0 -12 -7 -20.5t-25 -8.5zM260 -200v36h84v673h41v-650q0 -27 -13.5 -43t-43.5 -16h-68zM364 661q-17 0 -24 8.5t-7 20.5v9q0 12 7 20.5t24 8.5q18 0 25 -8.5
t7 -20.5v-9q0 -12 -7 -20.5t-25 -8.5z" />
    <glyph glyph-name="Jcircumflex" unicode="&#x134;" horiz-adv-x="479" 
d="M202 -12q-68 0 -116 38t-62 98l38 10q13 -46 48.5 -77t92.5 -31q68 0 103 41.5t35 119.5v473h-244v38h286v-516q0 -62 -22 -105.5t-62.5 -66t-96.5 -22.5zM119 773l-24 18l122 136h50l122 -136l-24 -18l-123 124z" />
    <glyph glyph-name="jcircumflex" unicode="&#x135;" horiz-adv-x="237" 
d="M14 -200v36h84v673h41v-650q0 -27 -13.5 -43t-43.5 -16h-68zM-4 596l-24 18l122 136h50l122 -136l-24 -18l-123 124z" />
    <glyph glyph-name="uni0136" unicode="&#x136;" horiz-adv-x="593" 
d="M103 0v698h43v-408h2l120 135l243 273h53l-266 -296l274 -402h-52l-251 372l-123 -135v-237h-43zM272 -223q21 23 32 47.5t15 42.5q-16 1 -23 9t-7 19v9q0 14 8 22t25 8q16 0 23.5 -8t7.5 -22v-11q0 -29 -14 -61.5t-36 -54.5h-31z" />
    <glyph glyph-name="uni0137" unicode="&#x137;" horiz-adv-x="502" 
d="M98 0v740h41v-503h3l80 82l187 190h51l-207 -210l231 -299h-50l-211 272l-84 -84v-188h-41zM228 -223q21 23 32 47.5t15 42.5q-16 1 -23 9t-7 19v9q0 14 8 22t25 8q16 0 23.5 -8t7.5 -22v-11q0 -29 -14 -61.5t-36 -54.5h-31z" />
    <glyph glyph-name="kgreenlandic" unicode="&#x138;" horiz-adv-x="502" 
d="M98 0v509h41v-279h3l81 83l194 196h50l-214 -216l231 -293h-50l-210 266l-85 -85v-181h-41z" />
    <glyph glyph-name="Lacute" unicode="&#x139;" horiz-adv-x="484" 
d="M103 0v698h43v-660h315v-38h-358zM114 763l-27 15l102 159l37 -20z" />
    <glyph glyph-name="lacute" unicode="&#x13a;" horiz-adv-x="258" 
d="M146 0q-24 0 -36 12.5t-12 34.5v693h41v-704h82v-36h-75zM116 786l-27 15l102 159l37 -19z" />
    <glyph glyph-name="uni013B" unicode="&#x13b;" horiz-adv-x="484" 
d="M103 0v698h43v-660h315v-38h-358zM245 -223q21 23 32 47.5t15 42.5q-16 1 -23 9t-7 19v9q0 14 8 22t25 8q16 0 23.5 -8t7.5 -22v-11q0 -29 -14 -61.5t-36 -54.5h-31z" />
    <glyph glyph-name="uni013C" unicode="&#x13c;" horiz-adv-x="258" 
d="M146 0q-24 0 -36 12.5t-12 34.5v693h41v-704h82v-36h-75zM114 -223q21 23 32 47.5t15 42.5q-16 1 -23 9t-7 19v9q0 14 8 22t25 8q16 0 23.5 -8t7.5 -22v-11q0 -29 -14 -61.5t-36 -54.5h-31z" />
    <glyph glyph-name="Lcaron" unicode="&#x13d;" horiz-adv-x="484" 
d="M103 0v698h43v-660h315v-38h-358zM238 561l15 179h47l-33 -179h-29z" />
    <glyph glyph-name="lcaron" unicode="&#x13e;" horiz-adv-x="259" 
d="M220 561l15 179h47l-33 -179h-29zM146 0q-24 0 -36 12.5t-12 34.5v693h41v-704h82v-36h-75z" />
    <glyph glyph-name="Ldot" unicode="&#x13f;" horiz-adv-x="484" 
d="M103 0v698h43v-660h315v-38h-358zM368 277q-17 0 -24.5 8.5t-7.5 21.5v8q0 12 7.5 20.5t24.5 8.5t24.5 -8.5t7.5 -20.5v-8q0 -13 -7.5 -21.5t-24.5 -8.5z" />
    <glyph glyph-name="ldot" unicode="&#x140;" horiz-adv-x="303" 
d="M146 0q-24 0 -36 12.5t-12 34.5v693h41v-704h82v-36h-75zM268 244q-17 0 -24.5 8.5t-7.5 20.5v8q0 13 7.5 21.5t24.5 8.5t24.5 -8.5t7.5 -21.5v-8q0 -12 -7.5 -20.5t-24.5 -8.5z" />
    <glyph glyph-name="Lslash" unicode="&#x141;" horiz-adv-x="488" 
d="M106 0v292l-99 -32v36l99 32v370h43v-356l196 63v-37l-196 -62v-268h315v-38h-358z" />
    <glyph glyph-name="lslash" unicode="&#x142;" horiz-adv-x="264" 
d="M149 0q-24 0 -36 12.5t-12 34.5v295l-72 -23v36l72 23v362h41v-348l96 31v-36l-96 -31v-320h82v-36h-75z" />
    <glyph glyph-name="Nacute" unicode="&#x143;" horiz-adv-x="697" 
d="M103 0v698h54l241 -392l152 -249h3v641h41v-698h-54l-296 479l-97 162h-3v-641h-41zM338 763l-27 15l102 159l37 -20z" />
    <glyph glyph-name="nacute" unicode="&#x144;" horiz-adv-x="560" 
d="M98 0v509h41v-78h3q16 37 53 63.5t101 26.5q84 0 129 -49.5t45 -144.5v-327h-41v320q0 84 -36.5 124.5t-105.5 40.5q-39 0 -72.5 -13.5t-54.5 -41.5t-21 -69v-361h-41zM275 587l-27 15l102 159l37 -19z" />
    <glyph glyph-name="uni0145" unicode="&#x145;" horiz-adv-x="697" 
d="M103 0v698h54l241 -392l152 -249h3v641h41v-698h-54l-296 479l-97 162h-3v-641h-41zM299 -223q21 23 32 47.5t15 42.5q-16 1 -23 9t-7 19v9q0 14 8 22t25 8q16 0 23.5 -8t7.5 -22v-11q0 -29 -14 -61.5t-36 -54.5h-31z" />
    <glyph glyph-name="uni0146" unicode="&#x146;" horiz-adv-x="560" 
d="M98 0v509h41v-78h3q16 37 53 63.5t101 26.5q84 0 129 -49.5t45 -144.5v-327h-41v320q0 84 -36.5 124.5t-105.5 40.5q-39 0 -72.5 -13.5t-54.5 -41.5t-21 -69v-361h-41zM232 -223q21 23 32 47.5t15 42.5q-16 1 -23 9t-7 19v9q0 14 8 22t25 8q16 0 23.5 -8t7.5 -22v-11
q0 -29 -14 -61.5t-36 -54.5h-31z" />
    <glyph glyph-name="Ncaron" unicode="&#x147;" horiz-adv-x="697" 
d="M103 0v698h54l241 -392l152 -249h3v641h41v-698h-54l-296 479l-97 162h-3v-641h-41zM323 778l-122 137l24 17l123 -123l123 123l24 -17l-122 -137h-50z" />
    <glyph glyph-name="ncaron" unicode="&#x148;" horiz-adv-x="560" 
d="M98 0v509h41v-78h3q16 37 53 63.5t101 26.5q84 0 129 -49.5t45 -144.5v-327h-41v320q0 84 -36.5 124.5t-105.5 40.5q-39 0 -72.5 -13.5t-54.5 -41.5t-21 -69v-361h-41zM260 603l-122 136l24 18l123 -124l123 124l24 -18l-122 -136h-50z" />
    <glyph glyph-name="napostrophe" unicode="&#x149;" horiz-adv-x="778" 
d="M316 0v509h41v-78h3q16 37 53 63.5t101 26.5q84 0 129 -49.5t45 -144.5v-327h-41v320q0 84 -36.5 124.5t-105.5 40.5q-38 0 -72 -13.5t-55 -41.5t-21 -69v-361h-41zM54 533q36 36 53 71t22 65q-19 2 -27 11.5t-8 21.5v11q0 16 9.5 26.5t29.5 10.5t29 -10.5t9 -26.5v-13
q0 -40 -23 -87t-59 -80h-35z" />
    <glyph glyph-name="Eng" unicode="&#x14a;" horiz-adv-x="697" 
d="M467 -200v37h86v163h-13l-219 356l-174 285h-3v-641h-41v698h54l220 -359l173 -282h3v641h41v-837q0 -28 -14 -44.5t-43 -16.5h-70z" />
    <glyph glyph-name="eng" unicode="&#x14b;" horiz-adv-x="560" 
d="M345 -200v36h84v484q0 84 -36.5 124.5t-105.5 40.5q-39 0 -72.5 -13.5t-54.5 -41.5t-21 -69v-361h-41v509h41v-78h3q16 37 53 63.5t101 26.5q84 0 129 -49.5t45 -144.5v-468q0 -28 -13.5 -43.5t-42.5 -15.5h-69z" />
    <glyph glyph-name="Omacron" unicode="&#x14c;" horiz-adv-x="689" 
d="M345 -12q-88 0 -150.5 41t-95.5 121t-33 199t33 199.5t95.5 121t150.5 40.5t150 -40.5t95 -121t33 -199.5t-33 -199t-95 -121t-150 -41zM345 26q71 0 123 33.5t80.5 98.5t28.5 158v66q0 94 -28.5 158.5t-80.5 98t-123 33.5t-123.5 -33.5t-81 -98t-28.5 -158.5v-66
q0 -93 28.5 -158t81 -98.5t123.5 -33.5zM212 828v34h266v-34h-266z" />
    <glyph glyph-name="omacron" unicode="&#x14d;" horiz-adv-x="547" 
d="M273 -12q-67 0 -115.5 31t-75 90.5t-26.5 145.5t26.5 145t75 90t115.5 31t116 -31t75.5 -90t26.5 -145t-26.5 -145.5t-75.5 -90.5t-116 -31zM273 24q82 0 128 53.5t46 148.5v57q0 95 -46 148.5t-128 53.5q-81 0 -127 -53.5t-46 -148.5v-57q0 -95 46 -148.5t127 -53.5z
M140 650v35h266v-35h-266z" />
    <glyph glyph-name="Obreve" unicode="&#x14e;" horiz-adv-x="689" 
d="M345 -12q-88 0 -150.5 41t-95.5 121t-33 199t33 199.5t95.5 121t150.5 40.5t150 -40.5t95 -121t33 -199.5t-33 -199t-95 -121t-150 -41zM345 26q71 0 123 33.5t80.5 98.5t28.5 158v66q0 94 -28.5 158.5t-80.5 98t-123 33.5t-123.5 -33.5t-81 -98t-28.5 -158.5v-66
q0 -93 28.5 -158t81 -98.5t123.5 -33.5zM345 779q-30 0 -51.5 9.5t-36.5 25.5t-27 38t-24 47l26 12l17 -29q22 -39 41.5 -54t54.5 -15t54.5 15t41.5 54l17 29l26 -12q-15 -33 -32 -60.5t-41.5 -43.5t-65.5 -16z" />
    <glyph glyph-name="obreve" unicode="&#x14f;" horiz-adv-x="547" 
d="M273 -12q-67 0 -115.5 31t-75 90.5t-26.5 145.5t26.5 145t75 90t115.5 31t116 -31t75.5 -90t26.5 -145t-26.5 -145.5t-75.5 -90.5t-116 -31zM273 24q82 0 128 53.5t46 148.5v57q0 95 -46 148.5t-128 53.5q-81 0 -127 -53.5t-46 -148.5v-57q0 -95 46 -148.5t127 -53.5z
M273 602q-30 0 -51.5 9t-36.5 25.5t-27 38t-24 46.5l26 12l17 -29q22 -38 41.5 -53.5t54.5 -15.5t54.5 15.5t41.5 53.5l17 29l26 -12q-12 -25 -24 -46.5t-27 -38t-36 -25.5t-52 -9z" />
    <glyph glyph-name="Ohungarumlaut" unicode="&#x150;" horiz-adv-x="689" 
d="M345 -12q-88 0 -150.5 41t-95.5 121t-33 199t33 199.5t95.5 121t150.5 40.5t150 -40.5t95 -121t33 -199.5t-33 -199t-95 -121t-150 -41zM345 26q71 0 123 33.5t80.5 98.5t28.5 158v66q0 94 -28.5 158.5t-80.5 98t-123 33.5t-123.5 -33.5t-81 -98t-28.5 -158.5v-66
q0 -93 28.5 -158t81 -98.5t123.5 -33.5zM427 763l-26 14l103 160l35 -19zM267 763l-26 14l103 160l35 -19z" />
    <glyph glyph-name="ohungarumlaut" unicode="&#x151;" horiz-adv-x="547" 
d="M273 -12q-67 0 -115.5 31t-75 90.5t-26.5 145.5t26.5 145t75 90t115.5 31t116 -31t75.5 -90t26.5 -145t-26.5 -145.5t-75.5 -90.5t-116 -31zM273 24q82 0 128 53.5t46 148.5v57q0 95 -46 148.5t-128 53.5q-81 0 -127 -53.5t-46 -148.5v-57q0 -95 46 -148.5t127 -53.5z
M355 586l-26 14l103 159l35 -19zM195 586l-26 14l103 159l35 -19z" />
    <glyph glyph-name="OE" unicode="&#x152;" horiz-adv-x="973" 
d="M369 -12q-96 0 -164 41t-103.5 121t-35.5 199t35.5 199.5t103.5 121t164 40.5q40 0 76.5 -4t62.5 -8h396v-38h-354v-287h339v-38h-339v-297h354v-38h-396q-26 -4 -62.5 -8t-76.5 -4zM372 26q40 0 75 4.5t60 11.5v614q-25 7 -60 11.5t-75 4.5q-125 0 -192.5 -75
t-67.5 -215v-66q0 -140 67.5 -215t192.5 -75z" />
    <glyph glyph-name="oe" unicode="&#x153;" horiz-adv-x="930" 
d="M273 -12q-67 0 -115.5 31t-75 90.5t-26.5 145.5t26.5 145t75 90t115.5 31q73 0 123.5 -36t70.5 -106h4q21 68 70.5 105t121.5 37q63 0 110.5 -31t74 -87.5t26.5 -133.5v-19h-384v-26q0 -90 46.5 -145t130.5 -55q60 0 101 28.5t64 83.5l30 -18q-23 -59 -72.5 -94.5
t-121.5 -35.5q-76 0 -126.5 38t-71.5 106h-3q-20 -69 -70.5 -106.5t-123.5 -37.5zM273 24q82 0 128 53.5t46 148.5v57q0 95 -46 148.5t-128 53.5q-81 0 -127 -53.5t-46 -148.5v-57q0 -95 46 -148.5t127 -53.5zM490 283h340v6q0 60 -21 104t-58.5 68.5t-87.5 24.5
q-54 0 -92.5 -24.5t-59.5 -69.5t-21 -106v-3z" />
    <glyph glyph-name="Racute" unicode="&#x154;" horiz-adv-x="633" 
d="M103 0v698h271q59 0 99.5 -23t61 -66t20.5 -102q0 -82 -41.5 -133t-122.5 -57l182 -317h-49l-178 315h-200v-315h-43zM146 352h228q46 0 76 18t44.5 47.5t14.5 65.5v46q0 36 -14.5 65.5t-44.5 47.5t-76 18h-228v-308zM296 763l-27 15l102 159l37 -20z" />
    <glyph glyph-name="racute" unicode="&#x155;" horiz-adv-x="350" 
d="M98 0v509h41v-89h4q11 24 30 44t49.5 32.5t75.5 12.5h37v-39h-45q-41 0 -75.5 -14t-55 -40.5t-20.5 -66.5v-349h-41zM210 585l-27 15l102 159l37 -19z" />
    <glyph glyph-name="uni0156" unicode="&#x156;" horiz-adv-x="633" 
d="M103 0v698h271q59 0 99.5 -23t61 -66t20.5 -102q0 -82 -41.5 -133t-122.5 -57l182 -317h-49l-178 315h-200v-315h-43zM146 352h228q46 0 76 18t44.5 47.5t14.5 65.5v46q0 36 -14.5 65.5t-44.5 47.5t-76 18h-228v-308zM262 -223q21 23 32 47.5t15 42.5q-16 1 -23 9t-7 19
v9q0 14 8 22t25 8q16 0 23.5 -8t7.5 -22v-11q0 -29 -14 -61.5t-36 -54.5h-31z" />
    <glyph glyph-name="uni0157" unicode="&#x157;" horiz-adv-x="350" 
d="M98 0v509h41v-89h4q11 24 30 44t49.5 32.5t75.5 12.5h37v-39h-45q-41 0 -75.5 -14t-55 -40.5t-20.5 -66.5v-349h-41zM71 -223q21 23 32 47.5t15 42.5q-16 1 -23 9t-7 19v9q0 14 8 22t25 8q16 0 23.5 -8t7.5 -22v-11q0 -29 -14 -61.5t-36 -54.5h-31z" />
    <glyph glyph-name="Rcaron" unicode="&#x158;" horiz-adv-x="633" 
d="M103 0v698h271q59 0 99.5 -23t61 -66t20.5 -102q0 -82 -41.5 -133t-122.5 -57l182 -317h-49l-178 315h-200v-315h-43zM146 352h228q46 0 76 18t44.5 47.5t14.5 65.5v46q0 36 -14.5 65.5t-44.5 47.5t-76 18h-228v-308zM281 778l-122 137l24 17l123 -123l123 123l24 -17
l-122 -137h-50z" />
    <glyph glyph-name="rcaron" unicode="&#x159;" horiz-adv-x="350" 
d="M98 0v509h41v-89h4q11 24 30 44t49.5 32.5t75.5 12.5h37v-39h-45q-41 0 -75.5 -14t-55 -40.5t-20.5 -66.5v-349h-41zM195 601l-122 136l24 18l123 -124l123 124l24 -18l-122 -136h-50z" />
    <glyph glyph-name="Sacute" unicode="&#x15a;" horiz-adv-x="558" 
d="M280 -12q-86 0 -142.5 32.5t-95.5 84.5l33 26q37 -49 85 -77t121 -28q86 0 132.5 40.5t46.5 115.5q0 50 -19.5 80t-53.5 45.5t-77 24.5l-66 13q-68 14 -108 40t-58 62.5t-18 81.5q0 61 27 101t76.5 60t115.5 20q77 0 129.5 -27.5t84.5 -73.5l-33 -24q-29 42 -73.5 64.5
t-110.5 22.5q-81 0 -127.5 -35.5t-46.5 -106.5q0 -47 20 -75.5t54 -44.5t78 -25l65 -13q71 -13 110.5 -40.5t56 -65t16.5 -81.5q0 -64 -27 -107.5t-76.5 -66.5t-118.5 -23zM265 763l-27 15l102 159l37 -20z" />
    <glyph glyph-name="sacute" unicode="&#x15b;" horiz-adv-x="470" 
d="M237 -12q-64 0 -110.5 24t-81.5 72l31 23q33 -44 71.5 -64t91.5 -20q65 0 99.5 28t34.5 78q0 48 -28.5 73.5t-87.5 34.5l-43 7q-45 7 -79 22.5t-53 44t-19 74.5q0 68 48.5 102t119.5 34q43 0 74.5 -10t55.5 -27.5t41 -38.5l-28 -25q-21 25 -54.5 45.5t-89.5 20.5
q-59 0 -93 -26t-34 -73q0 -50 29.5 -73t87.5 -33l43 -6q73 -11 111 -44.5t38 -97.5q0 -45 -21 -78t-60 -50t-94 -17zM218 586l-27 15l102 159l37 -19z" />
    <glyph glyph-name="Scircumflex" unicode="&#x15c;" horiz-adv-x="558" 
d="M280 -12q-86 0 -142.5 32.5t-95.5 84.5l33 26q37 -49 85 -77t121 -28q86 0 132.5 40.5t46.5 115.5q0 50 -19.5 80t-53.5 45.5t-77 24.5l-66 13q-68 14 -108 40t-58 62.5t-18 81.5q0 61 27 101t76.5 60t115.5 20q77 0 129.5 -27.5t84.5 -73.5l-33 -24q-29 42 -73.5 64.5
t-110.5 22.5q-81 0 -127.5 -35.5t-46.5 -106.5q0 -47 20 -75.5t54 -44.5t78 -25l65 -13q71 -13 110.5 -40.5t56 -65t16.5 -81.5q0 -64 -27 -107.5t-76.5 -66.5t-118.5 -23zM152 773l-24 18l122 136h50l122 -136l-24 -18l-123 124z" />
    <glyph glyph-name="scircumflex" unicode="&#x15d;" horiz-adv-x="470" 
d="M237 -12q-64 0 -110.5 24t-81.5 72l31 23q33 -44 71.5 -64t91.5 -20q65 0 99.5 28t34.5 78q0 48 -28.5 73.5t-87.5 34.5l-43 7q-45 7 -79 22.5t-53 44t-19 74.5q0 68 48.5 102t119.5 34q43 0 74.5 -10t55.5 -27.5t41 -38.5l-28 -25q-21 25 -54.5 45.5t-89.5 20.5
q-59 0 -93 -26t-34 -73q0 -50 29.5 -73t87.5 -33l43 -6q73 -11 111 -44.5t38 -97.5q0 -45 -21 -78t-60 -50t-94 -17zM105 596l-24 18l122 136h50l122 -136l-24 -18l-123 124z" />
    <glyph glyph-name="Scedilla" unicode="&#x15e;" horiz-adv-x="558" 
d="M288 -204q-32 0 -54.5 11t-32.5 24l22 23q10 -13 26.5 -20.5t38.5 -7.5q25 0 40.5 11.5t15.5 33.5q0 18 -13.5 30t-50.5 15l-34 2l16 70q-78 4 -130.5 35.5t-89.5 81.5l33 26q37 -49 85 -77t121 -28q86 0 132.5 40.5t46.5 115.5q0 50 -19.5 80t-53.5 45.5t-77 24.5
l-66 13q-68 14 -108 40t-58 62.5t-18 81.5q0 61 27 101t76.5 60t115.5 20q77 0 129.5 -27.5t84.5 -73.5l-33 -24q-29 42 -73.5 64.5t-110.5 22.5q-81 0 -127.5 -35.5t-46.5 -106.5q0 -47 20 -75.5t54 -44.5t78 -25l65 -13q71 -13 110.5 -40.5t56 -65t16.5 -81.5
q0 -93 -57 -144t-154 -53l-14 -57l3 -2q8 2 16.5 3t16.5 1q29 0 48 -16.5t19 -45.5q0 -22 -12 -38.5t-32 -26.5t-48 -10z" />
    <glyph glyph-name="scedilla" unicode="&#x15f;" horiz-adv-x="470" 
d="M248 -204q-32 0 -54.5 11t-32.5 24l21 23q11 -13 27.5 -20.5t38.5 -7.5q24 0 39.5 11.5t15.5 33.5q0 18 -13 30t-50 15l-34 2l16 70q-58 3 -101 27t-76 69l31 23q33 -44 71.5 -64t91.5 -20q65 0 99.5 28t34.5 78q0 48 -28.5 73.5t-87.5 34.5l-43 7q-45 7 -79 22.5t-53 44
t-19 74.5q0 68 48.5 102t119.5 34q43 0 74.5 -10t55.5 -27.5t41 -38.5l-28 -25q-21 25 -54.5 45.5t-89.5 20.5q-59 0 -93 -26t-34 -73q0 -50 29.5 -73t87.5 -33l43 -6q73 -11 111 -44.5t38 -97.5q0 -66 -43 -104t-119 -41l-13 -57l2 -2q8 2 17 3t16 1q29 0 48.5 -16.5
t19.5 -45.5q0 -22 -12 -38.5t-32.5 -26.5t-47.5 -10z" />
    <glyph glyph-name="Scaron" unicode="&#x160;" horiz-adv-x="558" 
d="M280 -12q-86 0 -142.5 32.5t-95.5 84.5l33 26q37 -49 85 -77t121 -28q86 0 132.5 40.5t46.5 115.5q0 50 -19.5 80t-53.5 45.5t-77 24.5l-66 13q-68 14 -108 40t-58 62.5t-18 81.5q0 61 27 101t76.5 60t115.5 20q77 0 129.5 -27.5t84.5 -73.5l-33 -24q-29 42 -73.5 64.5
t-110.5 22.5q-81 0 -127.5 -35.5t-46.5 -106.5q0 -47 20 -75.5t54 -44.5t78 -25l65 -13q71 -13 110.5 -40.5t56 -65t16.5 -81.5q0 -64 -27 -107.5t-76.5 -66.5t-118.5 -23zM250 778l-122 137l24 17l123 -123l123 123l24 -17l-122 -137h-50z" />
    <glyph glyph-name="scaron" unicode="&#x161;" horiz-adv-x="470" 
d="M237 -12q-64 0 -110.5 24t-81.5 72l31 23q33 -44 71.5 -64t91.5 -20q65 0 99.5 28t34.5 78q0 48 -28.5 73.5t-87.5 34.5l-43 7q-45 7 -79 22.5t-53 44t-19 74.5q0 68 48.5 102t119.5 34q43 0 74.5 -10t55.5 -27.5t41 -38.5l-28 -25q-21 25 -54.5 45.5t-89.5 20.5
q-59 0 -93 -26t-34 -73q0 -50 29.5 -73t87.5 -33l43 -6q73 -11 111 -44.5t38 -97.5q0 -45 -21 -78t-60 -50t-94 -17zM203 602l-122 136l24 18l123 -124l123 124l24 -18l-122 -136h-50z" />
    <glyph glyph-name="uni0162" unicode="&#x162;" horiz-adv-x="564" 
d="M261 0v660h-242v38h526v-38h-242v-660h-42zM233 -223q21 23 32 47.5t15 42.5q-16 1 -23 9t-7 19v9q0 14 8 22t25 8q16 0 23.5 -8t7.5 -22v-11q0 -29 -14 -61.5t-36 -54.5h-31z" />
    <glyph glyph-name="uni0163" unicode="&#x163;" horiz-adv-x="324" 
d="M169 0q-24 0 -36 12.5t-12 35.5v425h-91v36h64q18 0 24 7.5t6 25.5v111h38v-144h118v-36h-118v-437h110v-36h-103zM149 -223q21 23 32 47.5t15 42.5q-16 1 -23 9t-7 19v9q0 14 8 22t25 8q16 0 23.5 -8t7.5 -22v-11q0 -29 -14 -61.5t-36 -54.5h-31z" />
    <glyph glyph-name="Tcaron" unicode="&#x164;" horiz-adv-x="564" 
d="M261 0v660h-242v38h526v-38h-242v-660h-42zM257 778l-122 137l24 17l123 -123l123 123l24 -17l-122 -137h-50z" />
    <glyph glyph-name="tcaron" unicode="&#x165;" horiz-adv-x="324" 
d="M169 0q-24 0 -36 12.5t-12 35.5v425h-91v36h64q18 0 24 7.5t6 25.5v111h38v-144h118v-36h-118v-437h110v-36h-103zM252 565l14 179h48l-33 -179h-29z" />
    <glyph glyph-name="Tbar" unicode="&#x166;" horiz-adv-x="567" 
d="M262 0v356h-179v34h179v270h-242v38h527v-38h-242v-270h180v-34h-180v-356h-43z" />
    <glyph glyph-name="tbar" unicode="&#x167;" horiz-adv-x="330" 
d="M172 0q-24 0 -36 12.5t-12 34.5v222h-67v33h67v171h-91v36h64q18 0 24 7.5t6 25.5v111h38v-144h118v-36h-118v-171h98v-33h-98v-233h110v-36h-103z" />
    <glyph glyph-name="Utilde" unicode="&#x168;" horiz-adv-x="661" 
d="M329 -12q-87 0 -138 29t-73 92.5t-22 165.5v423h43v-431q0 -85 17.5 -138t59.5 -78t114 -25q73 0 115 25t59.5 78t17.5 138v431h43v-423q0 -102 -22.5 -165.5t-74.5 -92.5t-139 -29zM402 799q-20 0 -38 8t-40 21q-23 14 -38.5 19.5t-29.5 5.5q-17 0 -32 -7.5t-30 -23.5
l-19 22q16 20 37 31.5t46 11.5q20 0 38 -7t40 -21q23 -14 38.5 -20t29.5 -6q17 0 32 8t30 23l19 -21q-16 -20 -37 -32t-46 -12z" />
    <glyph glyph-name="utilde" unicode="&#x169;" horiz-adv-x="559" 
d="M263 -12q-83 0 -128.5 50t-45.5 144v327h41v-319q0 -85 37 -125t106 -40q38 0 71.5 13.5t54.5 41t21 69.5v360h41v-509h-41v79h-3q-14 -35 -50.5 -63t-103.5 -28zM347 623q-20 0 -38 7.5t-40 20.5q-23 14 -38.5 20t-29.5 6q-17 0 -32 -8t-30 -23l-19 21q16 20 37 32
t46 12q20 0 38 -7.5t40 -21.5q23 -14 38.5 -19.5t29.5 -5.5q17 0 32 8t30 23l19 -22q-16 -20 -37 -31.5t-46 -11.5z" />
    <glyph glyph-name="Umacron" unicode="&#x16a;" horiz-adv-x="661" 
d="M329 -12q-87 0 -138 29t-73 92.5t-22 165.5v423h43v-431q0 -85 17.5 -138t59.5 -78t114 -25q73 0 115 25t59.5 78t17.5 138v431h43v-423q0 -102 -22.5 -165.5t-74.5 -92.5t-139 -29zM197 828v34h266v-34h-266z" />
    <glyph glyph-name="umacron" unicode="&#x16b;" horiz-adv-x="559" 
d="M263 -12q-83 0 -128.5 50t-45.5 144v327h41v-319q0 -85 37 -125t106 -40q38 0 71.5 13.5t54.5 41t21 69.5v360h41v-509h-41v79h-3q-14 -35 -50.5 -63t-103.5 -28zM142 651v35h266v-35h-266z" />
    <glyph glyph-name="Ubreve" unicode="&#x16c;" horiz-adv-x="661" 
d="M329 -12q-87 0 -138 29t-73 92.5t-22 165.5v423h43v-431q0 -85 17.5 -138t59.5 -78t114 -25q73 0 115 25t59.5 78t17.5 138v431h43v-423q0 -102 -22.5 -165.5t-74.5 -92.5t-139 -29zM330 779q-30 0 -51.5 9.5t-36.5 25.5t-27 38t-24 47l26 12l17 -29q22 -39 41.5 -54
t54.5 -15t54.5 15t41.5 54l17 29l26 -12q-15 -33 -32 -60.5t-41.5 -43.5t-65.5 -16z" />
    <glyph glyph-name="ubreve" unicode="&#x16d;" horiz-adv-x="559" 
d="M263 -12q-83 0 -128.5 50t-45.5 144v327h41v-319q0 -85 37 -125t106 -40q38 0 71.5 13.5t54.5 41t21 69.5v360h41v-509h-41v79h-3q-14 -35 -50.5 -63t-103.5 -28zM275 603q-30 0 -51.5 9t-36.5 25.5t-27 38t-24 46.5l26 12l17 -29q22 -38 41.5 -53.5t54.5 -15.5
t54.5 15.5t41.5 53.5l17 29l26 -12q-12 -25 -24 -46.5t-27 -38t-36 -25.5t-52 -9z" />
    <glyph glyph-name="Uring" unicode="&#x16e;" horiz-adv-x="661" 
d="M329 -12q-87 0 -138 29t-73 92.5t-22 165.5v423h43v-431q0 -85 17.5 -138t59.5 -78t114 -25q73 0 115 25t59.5 78t17.5 138v431h43v-423q0 -102 -22.5 -165.5t-74.5 -92.5t-139 -29zM330 761q-29 0 -51.5 13t-35 35t-12.5 51t12.5 51.5t35 35t51.5 12.5t51 -12.5t35 -35
t13 -51.5t-13 -51t-35 -35t-51 -13zM330 790q30 0 48 17t18 46v14q0 30 -18 47t-48 17t-48 -17t-18 -47v-14q0 -29 18 -46t48 -17z" />
    <glyph glyph-name="uring" unicode="&#x16f;" horiz-adv-x="559" 
d="M263 -12q-83 0 -128.5 50t-45.5 144v327h41v-319q0 -85 37 -125t106 -40q38 0 71.5 13.5t54.5 41t21 69.5v360h41v-509h-41v79h-3q-14 -35 -50.5 -63t-103.5 -28zM275 585q-29 0 -51.5 12.5t-35 35t-12.5 51.5t12.5 51t35 35t51.5 13t51 -13t35 -35t13 -51t-13 -51.5
t-35 -35t-51 -12.5zM275 613q30 0 48 17t18 47v14q0 29 -18 46t-48 17t-48 -17t-18 -46v-14q0 -30 18 -47t48 -17z" />
    <glyph glyph-name="Uhungarumlaut" unicode="&#x170;" horiz-adv-x="661" 
d="M329 -12q-87 0 -138 29t-73 92.5t-22 165.5v423h43v-431q0 -85 17.5 -138t59.5 -78t114 -25q73 0 115 25t59.5 78t17.5 138v431h43v-423q0 -102 -22.5 -165.5t-74.5 -92.5t-139 -29zM412 763l-26 14l103 160l35 -19zM252 763l-26 14l103 160l35 -19z" />
    <glyph glyph-name="uhungarumlaut" unicode="&#x171;" horiz-adv-x="559" 
d="M263 -12q-83 0 -128.5 50t-45.5 144v327h41v-319q0 -85 37 -125t106 -40q38 0 71.5 13.5t54.5 41t21 69.5v360h41v-509h-41v79h-3q-14 -35 -50.5 -63t-103.5 -28zM357 587l-26 14l103 159l35 -19zM197 587l-26 14l103 159l35 -19z" />
    <glyph glyph-name="Uogonek" unicode="&#x172;" horiz-adv-x="661" 
d="M390 -204q-35 0 -59.5 17.5t-24.5 52.5q0 33 25 64.5t82 65.5l-2 3q-18 -6 -38.5 -8.5t-43.5 -2.5q-87 0 -138 29t-73 92.5t-22 165.5v423h43v-431q0 -85 17.5 -138t59.5 -78t114 -25q73 0 115 25t59.5 78t17.5 138v431h43v-423q0 -69 -10 -119.5t-33.5 -87.5t-63.5 -65
q-39 -26 -65 -47.5t-38.5 -42t-12.5 -41.5q0 -24 13.5 -35t35.5 -11q20 0 34 7.5t22 17.5l22 -20q-9 -14 -29 -24.5t-50 -10.5z" />
    <glyph glyph-name="uogonek" unicode="&#x173;" horiz-adv-x="560" 
d="M412 -204q-23 0 -42.5 8t-30.5 25t-11 41q0 31 23.5 62.5t75.5 67.5v3l-6 2v74h-3q-14 -35 -50.5 -63t-103.5 -28q-83 0 -128.5 50t-45.5 144v327h41v-319q0 -85 37 -125t105 -40q39 0 72.5 13.5t54.5 41t21 69.5v360h41v-509q-36 -30 -58 -51t-31.5 -38t-9.5 -37
q0 -24 14 -36t36 -12q20 0 34 7.5t22 17.5l22 -20q-9 -14 -29 -24.5t-50 -10.5z" />
    <glyph glyph-name="Wcircumflex" unicode="&#x174;" horiz-adv-x="878" 
d="M207 0l-180 698h45l82 -328l80 -316h3l85 315l90 329h54l88 -327l86 -316h3l72 280l93 363h44l-184 -698h-51l-91 332l-87 319h-2l-88 -320l-91 -331h-51zM316 773l-24 18l122 136h50l122 -136l-24 -18l-123 124z" />
    <glyph glyph-name="wcircumflex" unicode="&#x175;" horiz-adv-x="739" 
d="M182 0l-148 509h40l56 -199l77 -270h3l55 186l86 283h38l86 -278l57 -191h2l77 273l56 196h39l-149 -509h-50l-91 297l-45 153h-3l-46 -153l-90 -297h-50zM247 596l-24 18l122 136h50l122 -136l-24 -18l-123 124z" />
    <glyph glyph-name="Ycircumflex" unicode="&#x176;" horiz-adv-x="562" 
d="M259 0v288l-241 410h49l213 -364h3l212 364h48l-241 -409v-289h-43zM158 773l-24 18l122 136h50l122 -136l-24 -18l-123 124z" />
    <glyph glyph-name="ycircumflex" unicode="&#x177;" horiz-adv-x="468" 
d="M68 -200v36h89l57 153l-192 520h42l112 -307l56 -159h3l56 155l114 311h40l-247 -670q-5 -14 -12.5 -23t-18.5 -12.5t-29 -3.5h-70zM112 595l-24 18l122 136h50l122 -136l-24 -18l-123 124z" />
    <glyph glyph-name="Ydieresis" unicode="&#x178;" horiz-adv-x="562" 
d="M259 0v288l-241 410h49l213 -364h3l212 364h48l-241 -409v-289h-43zM373 809q-17 0 -24.5 8.5t-7.5 20.5v9q0 12 7.5 21t24.5 9t24.5 -9t7.5 -21v-9q0 -12 -7.5 -20.5t-24.5 -8.5zM189 809q-17 0 -24.5 8.5t-7.5 20.5v9q0 12 7.5 21t24.5 9q18 0 25 -9t7 -21v-9
q0 -12 -7 -20.5t-25 -8.5z" />
    <glyph glyph-name="Zacute" unicode="&#x179;" horiz-adv-x="563" 
d="M38 0v40l430 620h-408v38h454v-40l-430 -620h449v-38h-495zM274 763l-27 15l102 159l37 -20z" />
    <glyph glyph-name="zacute" unicode="&#x17a;" horiz-adv-x="433" 
d="M29 0v36l322 437h-312v36h359v-34l-324 -439h334v-36h-379zM207 586l-27 15l102 159l37 -19z" />
    <glyph glyph-name="Zdotaccent" unicode="&#x17b;" horiz-adv-x="563" 
d="M38 0v40l430 620h-408v38h454v-40l-430 -620h449v-38h-495zM284 808q-18 0 -26 9t-8 23v9q0 13 8 22.5t26 9.5t26 -9.5t8 -22.5v-9q0 -14 -8 -23t-26 -9z" />
    <glyph glyph-name="zdotaccent" unicode="&#x17c;" horiz-adv-x="433" 
d="M29 0v36l322 437h-312v36h359v-34l-324 -439h334v-36h-379zM217 633q-17 0 -24.5 8.5t-7.5 21.5v8q0 12 7.5 20.5t24.5 8.5t24.5 -8.5t7.5 -20.5v-8q0 -13 -7.5 -21.5t-24.5 -8.5z" />
    <glyph glyph-name="Zcaron" unicode="&#x17d;" horiz-adv-x="563" 
d="M38 0v40l430 620h-408v38h454v-40l-430 -620h449v-38h-495zM259 778l-122 137l24 17l123 -123l123 123l24 -17l-122 -137h-50z" />
    <glyph glyph-name="zcaron" unicode="&#x17e;" horiz-adv-x="433" 
d="M29 0v36l322 437h-312v36h359v-34l-324 -439h334v-36h-379zM192 602l-122 136l24 18l123 -124l123 124l24 -18l-122 -136h-50z" />
    <glyph glyph-name="uni018F" unicode="&#x18f;" horiz-adv-x="689" 
d="M344 -12q-88 0 -150 40.5t-95 120.5t-33 200v9h512v22q0 142 -62 217t-170 75q-79 0 -135.5 -42t-82.5 -121l-36 18q19 58 55 99t86.5 62.5t113.5 21.5q88 0 149.5 -41t94 -121.5t32.5 -198.5t-33 -198t-95 -121.5t-151 -41.5zM344 26q71 0 123.5 34t81.5 99t29 159v3
h-467v-3q0 -94 29 -159t81.5 -99t122.5 -34z" />
    <glyph glyph-name="florin" unicode="&#x192;" horiz-adv-x="487" 
d="M-3 -134l4 36h167l40 406h-163l4 37h163l29 294q3 28 19 43.5t45 15.5h158l-4 -36h-174l-32 -317h196l-4 -37h-196l-38 -383q-2 -28 -18.5 -43.5t-46.5 -15.5h-149z" />
    <glyph glyph-name="Ohorn" unicode="&#x1a0;" horiz-adv-x="689" 
d="M345 -12q-88 0 -150.5 41t-95.5 121t-33 199t33 199.5t95.5 121t150.5 40.5q25 0 46 -2.5t42 -9.5h154v113h37v-102q0 -19 -9 -29.5t-31 -10.5h-91q65 -43 97.5 -121t32.5 -199q0 -119 -33 -199t-95 -121t-150 -41zM345 26q71 0 123 33.5t80.5 98.5t28.5 158v66
q0 94 -28.5 158.5t-80.5 98t-123 33.5t-123.5 -33.5t-81 -98t-28.5 -158.5v-66q0 -93 28.5 -158t81 -98.5t123.5 -33.5z" />
    <glyph glyph-name="ohorn" unicode="&#x1a1;" horiz-adv-x="547" 
d="M273 -12q-67 0 -115.5 31t-75 90.5t-26.5 145.5t26.5 145t75 90t115.5 31q17 0 38 -2.5t40 -9.5h99v105h37v-93q0 -19 -9 -29.5t-31 -10.5h-46q44 -33 67 -90t23 -136q0 -86 -26.5 -145.5t-75.5 -90.5t-116 -31zM273 24q82 0 128 53.5t46 148.5v57q0 95 -46 148.5
t-128 53.5q-81 0 -127 -53.5t-46 -148.5v-57q0 -95 46 -148.5t127 -53.5z" />
    <glyph glyph-name="Uhorn" unicode="&#x1af;" horiz-adv-x="661" 
d="M329 -12q-87 0 -138 29t-73 92.5t-22 165.5v423h43v-431q0 -85 17.5 -138t59.5 -78t114 -25q73 0 115 25t59.5 78t17.5 138v431h84v111h37v-100q0 -19 -9 -30t-32 -11h-37v-393q0 -102 -22.5 -165.5t-74.5 -92.5t-139 -29z" />
    <glyph glyph-name="uhorn" unicode="&#x1b0;" horiz-adv-x="560" 
d="M264 -12q-83 0 -128.5 50t-45.5 144v327h41v-319q0 -85 37 -125t105 -40q39 0 72.5 13.5t54.5 41t21 69.5v360h84v112h37v-101q0 -19 -9 -29.5t-31 -10.5h-40v-480h-41v79h-3q-14 -35 -50.5 -63t-103.5 -28z" />
    <glyph glyph-name="uni01B3" unicode="&#x1b3;" horiz-adv-x="562" 
d="M259 0v288l-241 410h49l213 -364h3l212 364h48l-241 -409v-289h-43zM291 759l-26 13l71 119h-133v32h127q20 0 29.5 -8.5t9.5 -21.5q0 -11 -8 -27t-29 -46z" />
    <glyph glyph-name="uni01B4" unicode="&#x1b4;" horiz-adv-x="468" 
d="M68 -200v36h89l57 153l-192 520h42l112 -307l56 -159h3l56 155l114 311h40l-247 -670q-5 -14 -12.5 -23t-18.5 -12.5t-29 -3.5h-70zM245 600l-26 13l71 119h-133v32h127q20 0 29.5 -8.5t9.5 -21.5q0 -11 -8 -27t-29 -46z" />
    <glyph glyph-name="Aringacute" unicode="&#x1fa;" horiz-adv-x="614" 
d="M29 0l250 698h56l250 -698h-45l-80 225h-307l-80 -225h-44zM164 262h284l-140 395h-4zM307 758q-43 0 -71 28t-28 71q0 44 28 71.5t71 27.5q44 0 71.5 -27.5t27.5 -71.5q0 -43 -27.5 -71t-71.5 -28zM307 786q30 0 48 17.5t18 46.5v14q0 29 -18 46.5t-48 17.5t-48 -17.5
t-18 -46.5v-14q0 -29 18 -46.5t48 -17.5zM312 982l-26 12l78 106l36 -17z" />
    <glyph glyph-name="aringacute" unicode="&#x1fb;" horiz-adv-x="524" 
d="M222 -12q-80 0 -123.5 38.5t-43.5 108.5q0 44 20 77t63.5 51.5t116.5 18.5h129v66q0 70 -34.5 104t-102.5 34q-53 0 -88.5 -22t-56.5 -67l-28 20q21 46 63 75t112 29q86 0 131 -44t45 -124v-317h76v-36h-66q-25 0 -36 12t-13 33v34h-4q-18 -39 -57 -65t-103 -26zM226 23
q43 0 79 14.5t57.5 43t21.5 68.5v101h-129q-82 0 -119 -27.5t-37 -73.5v-27q0 -47 35.5 -73t91.5 -26zM250 581q-43 0 -71 28t-28 71q0 44 28 71.5t71 27.5q44 0 71.5 -27.5t27.5 -71.5q0 -43 -27.5 -71t-71.5 -28zM250 609q30 0 48 17.5t18 46.5v14q0 29 -18 46.5t-48 17.5
t-48 -17.5t-18 -46.5v-14q0 -29 18 -46.5t48 -17.5zM255 805l-26 12l78 106l36 -17z" />
    <glyph glyph-name="AEacute" unicode="&#x1fc;" horiz-adv-x="876" 
d="M3 0l374 698h430v-38h-354v-287h339v-38h-339v-297h354v-38h-396v224h-244l-120 -224h-44zM186 262h225v398h-12zM474 763l-27 15l102 159l37 -20z" />
    <glyph glyph-name="aeacute" unicode="&#x1fd;" horiz-adv-x="862" 
d="M218 -12q-78 0 -122 38.5t-44 107.5q0 45 20 78.5t64 52t116 18.5h129v65q0 70 -34.5 104t-101.5 34q-54 0 -89.5 -22t-57.5 -67l-28 20q21 46 63.5 75t112.5 29q52 0 86 -17.5t52.5 -46.5t22.5 -65h4q12 37 38 66t64 46t85 17q63 0 109.5 -31t72.5 -87.5t26 -133.5v-19
h-383v-26q0 -90 46.5 -145t130.5 -55q59 0 100 28.5t64 83.5l31 -18q-23 -59 -73 -94.5t-121 -35.5q-49 0 -88 16.5t-65 45t-39 65.5h-4q-6 -36 -31.5 -65t-65.5 -45.5t-90 -16.5zM223 23q43 0 79 14.5t57.5 43t21.5 68.5v102h-130q-82 -1 -119 -28.5t-37 -73.5v-27
q0 -47 35.5 -73t92.5 -26zM423 283h339v6q0 60 -21 104t-58 68.5t-88 24.5q-53 0 -92 -24.5t-59.5 -69.5t-20.5 -106v-3zM413 586l-27 15l102 159l37 -19z" />
    <glyph glyph-name="Oslashacute" unicode="&#x1fe;" horiz-adv-x="689" 
d="M99 -36l-31 20l69 99q-35 45 -53 112t-18 154q0 119 33 199.5t95.5 121t150.5 40.5q112 0 182 -67l64 92l30 -20l-69 -99q35 -46 53 -112.5t18 -154.5q0 -119 -33 -199t-95 -121t-150 -41q-114 0 -183 68zM345 26q71 0 123 33.5t80.5 98.5t28.5 158v66q0 63 -12.5 112.5
t-37.5 84.5l-341 -490q60 -63 159 -63zM161 119l342 490q-60 63 -158 63q-71 0 -123.5 -33.5t-81 -98t-28.5 -158.5v-66q0 -62 13 -111.5t36 -85.5zM335 763l-27 15l102 159l37 -20z" />
    <glyph glyph-name="oslashacute" unicode="&#x1ff;" horiz-adv-x="553" 
d="M63 -31l-25 19l68 84q-23 34 -35 79.5t-12 103.5q0 86 26.5 145t75.5 90t116 31q45 0 82.5 -14.5t64.5 -42.5l67 83l24 -19l-70 -88q24 -33 36.5 -79.5t12.5 -105.5q0 -86 -26.5 -145.5t-75 -90.5t-115.5 -31q-47 0 -85 15t-65 45zM277 24q81 0 127 53.5t46 148.5v57
q0 39 -7.5 70.5t-23.5 55.5l-269 -332q22 -25 54 -39t73 -14zM131 103l270 332q-23 25 -54 37.5t-70 12.5q-82 0 -128 -53.5t-46 -148.5v-57q0 -36 7.5 -67.5t20.5 -55.5zM267 586l-27 15l102 159l37 -19z" />
    <glyph glyph-name="uni0218" unicode="&#x218;" horiz-adv-x="558" 
d="M280 -12q-86 0 -142.5 32.5t-95.5 84.5l33 26q37 -49 85 -77t121 -28q86 0 132.5 40.5t46.5 115.5q0 50 -19.5 80t-53.5 45.5t-77 24.5l-66 13q-68 14 -108 40t-58 62.5t-18 81.5q0 61 27 101t76.5 60t115.5 20q77 0 129.5 -27.5t84.5 -73.5l-33 -24q-29 42 -73.5 64.5
t-110.5 22.5q-81 0 -127.5 -35.5t-46.5 -106.5q0 -47 20 -75.5t54 -44.5t78 -25l65 -13q71 -13 110.5 -40.5t56 -65t16.5 -81.5q0 -64 -27 -107.5t-76.5 -66.5t-118.5 -23zM229 -223q21 23 32 47.5t15 42.5q-16 1 -23 9t-7 19v9q0 14 8 22t25 8q16 0 23.5 -8t7.5 -22v-11
q0 -29 -14 -61.5t-36 -54.5h-31z" />
    <glyph glyph-name="uni0219" unicode="&#x219;" horiz-adv-x="470" 
d="M237 -12q-64 0 -110.5 24t-81.5 72l31 23q33 -44 71.5 -64t91.5 -20q65 0 99.5 28t34.5 78q0 48 -28.5 73.5t-87.5 34.5l-43 7q-45 7 -79 22.5t-53 44t-19 74.5q0 68 48.5 102t119.5 34q43 0 74.5 -10t55.5 -27.5t41 -38.5l-28 -25q-21 25 -54.5 45.5t-89.5 20.5
q-59 0 -93 -26t-34 -73q0 -50 29.5 -73t87.5 -33l43 -6q73 -11 111 -44.5t38 -97.5q0 -45 -21 -78t-60 -50t-94 -17zM189 -223q21 23 32 47.5t15 42.5q-16 1 -23 9t-7 19v9q0 14 8 22t25 8q16 0 23.5 -8t7.5 -22v-11q0 -29 -14 -61.5t-36 -54.5h-31z" />
    <glyph glyph-name="uni021A" unicode="&#x21a;" horiz-adv-x="564" 
d="M261 0v660h-242v38h526v-38h-242v-660h-42zM233 -223q21 23 32 47.5t15 42.5q-16 1 -23 9t-7 19v9q0 14 8 22t25 8q16 0 23.5 -8t7.5 -22v-11q0 -29 -14 -61.5t-36 -54.5h-31z" />
    <glyph glyph-name="uni021B" unicode="&#x21b;" horiz-adv-x="324" 
d="M169 0q-24 0 -36 12.5t-12 35.5v425h-91v36h64q18 0 24 7.5t6 25.5v111h38v-144h118v-36h-118v-437h110v-36h-103zM149 -223q21 23 32 47.5t15 42.5q-16 1 -23 9t-7 19v9q0 14 8 22t25 8q16 0 23.5 -8t7.5 -22v-11q0 -29 -14 -61.5t-36 -54.5h-31z" />
    <glyph glyph-name="uni0237" unicode="&#x237;" horiz-adv-x="237" 
d="M14 -200v36h84v673h41v-650q0 -27 -13.5 -43t-43.5 -16h-68z" />
    <glyph glyph-name="uni0259" unicode="&#x259;" horiz-adv-x="538" 
d="M267 -12q-64 0 -111.5 31t-73.5 88t-26 133v19h383v26q0 91 -46.5 145.5t-130.5 54.5q-59 0 -100.5 -28t-63.5 -84l-31 18q24 59 74 94.5t123 35.5q67 0 116 -31t76 -90t27 -145q0 -85 -26.5 -145t-75 -91t-114.5 -31zM267 23q54 0 92.5 25t59 70t20.5 105v4h-339v-7
q0 -59 21 -103.5t58.5 -69t87.5 -24.5z" />
    <glyph glyph-name="uni02BB" unicode="&#x2bb;" horiz-adv-x="600" 
d="M300 598q-17 0 -24.5 8t-7.5 22v11q0 29 14.5 61.5t35.5 54.5h31q-21 -23 -32 -47t-15 -43q17 -2 24 -9.5t7 -18.5v-9q0 -14 -8 -22t-25 -8z" />
    <glyph glyph-name="uni02BC" unicode="&#x2bc;" horiz-adv-x="600" 
d="M258 561l15 179h47l-33 -179h-29z" />
    <glyph glyph-name="circumflex" unicode="&#x2c6;" horiz-adv-x="600" 
d="M177 596l-24 18l122 136h50l122 -136l-24 -18l-123 124z" />
    <glyph glyph-name="caron" unicode="&#x2c7;" horiz-adv-x="600" 
d="M275 602l-122 136l24 18l123 -124l123 124l24 -18l-122 -136h-50z" />
    <glyph glyph-name="breve" unicode="&#x2d8;" horiz-adv-x="600" 
d="M300 603q-30 0 -51.5 9t-36.5 25.5t-27 38t-24 46.5l26 12l17 -29q22 -38 41.5 -53.5t54.5 -15.5t54.5 15.5t41.5 53.5l17 29l26 -12q-12 -25 -24 -46.5t-27 -38t-36 -25.5t-52 -9z" />
    <glyph glyph-name="dotaccent" unicode="&#x2d9;" horiz-adv-x="600" 
d="M300 633q-17 0 -24.5 8.5t-7.5 21.5v8q0 12 7.5 20.5t24.5 8.5t24.5 -8.5t7.5 -20.5v-8q0 -13 -7.5 -21.5t-24.5 -8.5z" />
    <glyph glyph-name="ring" unicode="&#x2da;" horiz-adv-x="600" 
d="M300 585q-29 0 -51.5 12.5t-35 35t-12.5 51.5t12.5 51t35 35t51.5 13t51 -13t35 -35t13 -51t-13 -51.5t-35 -35t-51 -12.5zM300 613q30 0 48 17t18 47v14q0 29 -18 46t-48 17t-48 -17t-18 -46v-14q0 -30 18 -47t48 -17z" />
    <glyph glyph-name="ogonek" unicode="&#x2db;" horiz-adv-x="600" 
d="M246 -204q-23 0 -42 8t-30.5 23.5t-11.5 38.5q0 33 26 66t88 71l-5 12l32 3l6 -18q-40 -30 -64.5 -51t-36 -39.5t-11.5 -38.5q0 -24 14 -34.5t36 -10.5q21 0 34.5 7.5t21.5 17.5l23 -20q-10 -14 -30 -24.5t-50 -10.5z" />
    <glyph glyph-name="tilde" unicode="&#x2dc;" horiz-adv-x="600" 
d="M372 623q-20 0 -38 7.5t-40 20.5q-23 14 -38.5 20t-29.5 6q-17 0 -32 -8t-30 -23l-19 21q16 20 37 32t46 12q20 0 38 -7.5t40 -21.5q23 -14 38.5 -19.5t29.5 -5.5q17 0 32 8t30 23l19 -22q-16 -20 -37 -31.5t-46 -11.5z" />
    <glyph glyph-name="hungarumlaut" unicode="&#x2dd;" horiz-adv-x="600" 
d="M382 587l-26 14l103 159l35 -19zM222 587l-26 14l103 159l35 -19z" />
    <glyph glyph-name="gravecomb" unicode="&#x300;" 
d="M9 586l-112 155l37 19l102 -159z" />
    <glyph glyph-name="acutecomb" unicode="&#x301;" 
d="M-10 586l-27 15l102 159l37 -19z" />
    <glyph glyph-name="uni0302" unicode="&#x302;" 
d="M-123 596l-24 18l122 136h50l122 -136l-24 -18l-123 124z" />
    <glyph glyph-name="tildecomb" unicode="&#x303;" 
d="M72 623q-20 0 -38 7.5t-40 20.5q-23 14 -38.5 20t-29.5 6q-17 0 -32 -8t-30 -23l-19 21q16 20 37 32t46 12q20 0 38 -7.5t40 -21.5q23 -14 38.5 -19.5t29.5 -5.5q17 0 32 8t30 23l19 -22q-16 -20 -37 -31.5t-46 -11.5z" />
    <glyph glyph-name="uni0304" unicode="&#x304;" 
d="M-133 651v35h266v-35h-266z" />
    <glyph glyph-name="uni0306" unicode="&#x306;" 
d="M0 603q-30 0 -51.5 9t-36.5 25.5t-27 38t-24 46.5l26 12l17 -29q22 -38 41.5 -53.5t54.5 -15.5t54.5 15.5t41.5 53.5l17 29l26 -12q-12 -25 -24 -46.5t-27 -38t-36 -25.5t-52 -9z" />
    <glyph glyph-name="uni0307" unicode="&#x307;" 
d="M0 633q-17 0 -24.5 8.5t-7.5 21.5v8q0 12 7.5 20.5t24.5 8.5t24.5 -8.5t7.5 -20.5v-8q0 -13 -7.5 -21.5t-24.5 -8.5z" />
    <glyph glyph-name="uni0308" unicode="&#x308;" 
d="M92 634q-17 0 -24.5 8.5t-7.5 20.5v9q0 12 7.5 20.5t24.5 8.5t24 -8.5t7 -20.5v-9q0 -12 -7 -20.5t-24 -8.5zM-92 634q-17 0 -24 8.5t-7 20.5v9q0 12 7 20.5t24 8.5q18 0 25 -8.5t7 -20.5v-9q0 -12 -7 -20.5t-25 -8.5z" />
    <glyph glyph-name="hookabovecomb" unicode="&#x309;" 
d="M11 582l-26 13l71 119h-133v32h127q20 0 29.5 -8.5t9.5 -21.5q0 -11 -8 -27t-29 -46z" />
    <glyph glyph-name="uni030A" unicode="&#x30a;" 
d="M0 585q-29 0 -51 12.5t-35 35t-13 51.5t13 51t35 35t51 13t51 -13t35 -35t13 -51t-13 -51.5t-35 -35t-51 -12.5zM0 613q30 0 48 17t18 47v14q0 29 -18 46t-48 17t-48 -17t-18 -46v-14q0 -30 18 -47t48 -17z" />
    <glyph glyph-name="uni030B" unicode="&#x30b;" 
d="M82 587l-26 14l103 159l35 -19zM-78 587l-26 14l103 159l35 -19z" />
    <glyph glyph-name="uni030C" unicode="&#x30c;" 
d="M-25 602l-122 136l24 18l123 -124l123 124l24 -18l-122 -136h-50z" />
    <glyph glyph-name="uni0312" unicode="&#x312;" 
d="M0 598q-17 0 -24.5 8t-7.5 22v11q0 29 14.5 61.5t35.5 54.5h31q-21 -23 -32 -47t-15 -43q17 -2 24 -9.5t7 -18.5v-9q0 -14 -8 -22t-25 -8z" />
    <glyph glyph-name="uni0315" unicode="&#x315;" 
d="M0 561l15 179h47l-33 -179h-29z" />
    <glyph glyph-name="uni031B" unicode="&#x31b;" 
d="M-75 480v29h81v113h37v-102q0 -19 -9 -29.5t-31 -10.5h-78z" />
    <glyph glyph-name="dotbelowcomb" unicode="&#x323;" 
d="M0 -146q-17 0 -24.5 8.5t-7.5 21.5v8q0 12 7.5 20.5t24.5 8.5t24.5 -8.5t7.5 -20.5v-8q0 -13 -7.5 -21.5t-24.5 -8.5z" />
    <glyph glyph-name="uni0326" unicode="&#x326;" 
d="M-49 -223q21 23 32 47.5t15 42.5q-16 1 -23 9t-7 19v9q0 14 8 22t25 8q16 0 23.5 -8t7.5 -22v-11q0 -29 -14 -61.5t-36 -54.5h-31z" />
    <glyph glyph-name="uni0327" unicode="&#x327;" 
d="M10 -204q-32 0 -54.5 11t-32.5 24l21 23q11 -13 27.5 -20.5t38.5 -7.5q24 0 39.5 11.5t15.5 33.5q0 18 -13 30t-50 15l-34 2l20 91h29l-18 -78l2 -2q8 2 17 3t16 1q29 0 48.5 -16.5t19.5 -45.5q0 -22 -12 -38.5t-32.5 -26.5t-47.5 -10z" />
    <glyph glyph-name="uni0328" unicode="&#x328;" 
d="M-63 -204q-23 0 -42.5 8t-30.5 23.5t-11 38.5q0 33 26 66t88 71l-5 12l31 3l7 -18q-40 -30 -64.5 -51t-36 -39.5t-11.5 -38.5q0 -24 14 -34.5t36 -10.5q20 0 34 7.5t22 17.5l22 -20q-9 -14 -29 -24.5t-50 -10.5z" />
    <glyph glyph-name="uni037E" unicode="&#x37e;" horiz-adv-x="269" 
d="M56 -142q36 36 53 70.5t22 65.5q-19 1 -27 10.5t-8 22.5v10q0 16 9.5 26.5t29.5 10.5t29 -10.5t9 -26.5v-12q0 -41 -23 -88t-59 -79h-35zM134 422q-19 0 -28.5 10t-9.5 26v10q0 16 9.5 26t28.5 10q20 0 29 -10t9 -26v-10q0 -16 -9 -26t-29 -10z" />
    <glyph glyph-name="tonos" unicode="&#x384;" horiz-adv-x="600" 
d="M315 586l-30 7l55 168l41 -9z" />
    <glyph glyph-name="dieresistonos" unicode="&#x385;" horiz-adv-x="600" 
d="M284 586l-27 7l55 168l38 -9zM200 634q-16 0 -23 8.5t-7 20.5v9q0 12 7 20.5t23 8.5q17 0 24 -8.5t7 -20.5v-9q0 -12 -7 -20.5t-24 -8.5zM400 634q-16 0 -23.5 8.5t-7.5 20.5v9q0 12 7.5 20.5t23.5 8.5t23 -8.5t7 -20.5v-9q0 -12 -7 -20.5t-23 -8.5z" />
    <glyph glyph-name="anoteleia" unicode="&#x387;" horiz-adv-x="269" 
d="M135 422q-19 0 -29 10t-10 26v10q0 16 10 26t29 10q20 0 29 -10t9 -26v-10q0 -16 -9 -26t-29 -10z" />
    <glyph glyph-name="uni0E01" unicode="&#xe01;" horiz-adv-x="587" 
d="M97 0v190q0 47 14 79t38.5 51t54.5 27v3h-128v24q0 67 24.5 112t71.5 68.5t113 23.5q106 0 158.5 -54t52.5 -154v-370h-41v366q0 89 -43.5 132t-126.5 43q-82 0 -125 -41.5t-43 -133.5l-18 14h171v-31q-62 -7 -97 -42.5t-35 -102.5v-204h-41z" />
    <glyph glyph-name="uni0E02" unicode="&#xe02;" horiz-adv-x="536" 
d="M261 -12q-64 0 -104.5 23.5t-59.5 67.5t-19 101q0 53 9 87.5t23 59t27.5 45.5t22.5 45.5t9 58.5v55h-104v36h86q33 0 45.5 -13.5t12.5 -38.5v-38q0 -37 -9 -63t-22 -48t-26.5 -46t-22.5 -56.5t-9 -80.5q0 -50 14 -86t45 -54t82 -18q52 0 83 17.5t44.5 54.5t13.5 98v372
h42v-378q0 -104 -43 -152.5t-140 -48.5z" />
    <glyph glyph-name="uni0E03" unicode="&#xe03;" horiz-adv-x="539" 
d="M265 -12q-64 0 -104.5 23.5t-59.5 66.5t-19 100q0 53 11.5 87.5t28.5 59.5t34 46.5t28.5 46t11.5 58.5v39h-3q-12 -35 -36.5 -52t-55.5 -17q-22 0 -33.5 12t-11.5 35v74h38v-88q31 0 54 10.5t35.5 29.5t12.5 41v7h39v-91q0 -39 -11 -65.5t-27.5 -49t-33.5 -46.5
t-28 -55.5t-11 -78.5q0 -76 32 -116t109 -40q52 0 82.5 17.5t44.5 54.5t14 98v372h41v-378q0 -104 -43 -152.5t-139 -48.5z" />
    <glyph glyph-name="uni0E04" unicode="&#xe04;" horiz-adv-x="597" 
d="M91 0v370q0 100 51.5 154t155.5 54t156 -54t52 -154v-370h-41v366q0 90 -42.5 132.5t-124.5 42.5q-81 0 -123.5 -42.5t-42.5 -132.5v-137h3q16 36 50 63t100 27h38v-40h-49q-36 0 -68.5 -13t-53 -40.5t-20.5 -73.5v-152h-41z" />
    <glyph glyph-name="uni0E05" unicode="&#xe05;" horiz-adv-x="609" 
d="M95 0v408q0 85 36.5 127.5t109.5 42.5l63 -71h2l63 71q72 0 108.5 -42.5t36.5 -127.5v-408h-41v390q0 55 -10.5 87.5t-31 47.5t-52.5 17l-73 -80h-2l-73 80q-32 -2 -53 -17t-31 -47.5t-10 -87.5v-161h3q16 36 50 63t100 27h37v-40h-48q-36 0 -68.5 -13t-53 -40.5
t-20.5 -73.5v-152h-42z" />
    <glyph glyph-name="uni0E06" unicode="&#xe06;" horiz-adv-x="586" 
d="M309 -12q-74 0 -116 31t-58 69h-3v-88h-41v178q0 53 11 87.5t27 59.5t32 46.5t27 46t11 58.5v39h-2q-13 -35 -37.5 -52t-55.5 -17q-22 0 -33 12t-11 35v74h37v-88q31 0 54.5 10.5t35.5 29.5t12 41v7h39v-91q0 -39 -10.5 -65.5t-26 -49t-32 -46.5t-27 -55.5t-10.5 -78.5
v-19q0 -46 24.5 -76.5t63 -45.5t81.5 -15q75 0 113.5 43.5t38.5 133.5v365h41v-371q0 -101 -47 -154.5t-138 -53.5z" />
    <glyph glyph-name="uni0E07" unicode="&#xe07;" horiz-adv-x="518" 
d="M217 0l-182 567h42l169 -530h11q68 0 100.5 43t32.5 143v308h-102v36h86q30 0 44 -16.5t14 -49.5v-269q0 -82 -19.5 -133t-58 -75t-96.5 -24h-41z" />
    <glyph glyph-name="uni0E08" unicode="&#xe08;" horiz-adv-x="529" 
d="M211 0l-73 283h-74v36h67q23 0 33.5 -10t16.5 -35l65 -255l-22 17h37q47 0 84 24.5t59 73.5t22 120v70q0 99 -44 158t-136 59q-60 0 -101.5 -24t-66.5 -70l-29 23q28 50 77 79t120 29q115 0 169.5 -73t54.5 -215q0 -98 -27 -162.5t-73.5 -96t-108.5 -31.5h-50z" />
    <glyph glyph-name="uni0E09" unicode="&#xe09;" horiz-adv-x="565" 
d="M264 -12q-77 0 -114.5 39t-37.5 120v122h-56v36h56q23 0 31.5 -10.5t8.5 -33.5v-114q0 -65 29 -93.5t90 -28.5q39 0 76 16t61.5 48.5t24.5 83.5v205q0 62 -20 97.5t-57 50.5t-91 15q-60 0 -104.5 -22t-68.5 -69l-31 22q27 52 77.5 79t129.5 27q99 0 152.5 -46.5
t53.5 -147.5v-348h69v-36h-60q-31 0 -39.5 21t-9.5 68h-4q-17 -41 -58.5 -71t-107.5 -30z" />
    <glyph glyph-name="uni0E0A" unicode="&#xe0a;" horiz-adv-x="534" 
d="M263 -12q-64 0 -105.5 23.5t-60.5 67.5t-19 101q0 53 9 87.5t23 59t27.5 45.5t22.5 45.5t9 58.5v55h-104v36h86q33 0 45.5 -13.5t12.5 -38.5v-38q0 -37 -9 -63t-22 -48t-26.5 -46t-22.5 -56.5t-9 -80.5q0 -50 14 -86t46 -54t83 -18q53 0 84 17.5t45 54.5t14 98v59
q0 68 -26 95.5t-81 27.5h-23v33h5q58 0 90.5 36t32.5 94v27h42v-19q0 -41 -13.5 -68.5t-35.5 -44t-47 -27.5v-4q46 -10 72 -44.5t26 -104.5v-66q0 -104 -44 -152.5t-141 -48.5z" />
    <glyph glyph-name="uni0E0B" unicode="&#xe0b;" horiz-adv-x="537" 
d="M267 -12q-64 0 -105.5 23.5t-60.5 66.5t-19 100q0 53 11.5 87.5t27.5 59.5t32.5 46.5t27.5 46t11 58.5v39h-2q-13 -35 -37.5 -52t-55.5 -17q-22 0 -33 12t-11 35v74h37v-88q31 0 54.5 10.5t35.5 29.5t12 41v7h39v-91q0 -39 -10.5 -65.5t-26.5 -49t-32.5 -46.5t-27 -55.5
t-10.5 -78.5q0 -76 32.5 -116t110.5 -40q52 0 83.5 17.5t45.5 54.5t14 98v59q0 68 -26 95.5t-78 27.5h-21v33h3q55 0 86.5 36t31.5 94v27h43v-19q0 -41 -13.5 -68.5t-35.5 -44t-47 -27.5v-4q47 -10 72.5 -44.5t25.5 -104.5v-66q0 -104 -43.5 -152.5t-140.5 -48.5z" />
    <glyph glyph-name="uni0E0C" unicode="&#xe0c;" horiz-adv-x="923" 
d="M656 -12q-44 0 -76.5 14.5t-53 37t-31.5 48.5h-3v-88h-41v366q0 90 -43 132.5t-125 42.5q-83 0 -126 -42t-43 -133l-17 14h171v-31q-64 -7 -99 -42.5t-35 -102.5v-168h104v-36h-86q-30 0 -44.5 16t-14.5 48v124q0 48 14 80t39 51.5t55 27.5v3h-126v24q0 100 53 152
t155 52q104 0 157 -54t53 -154v-208q0 -46 23 -76.5t58.5 -45.5t73.5 -15q65 0 104 41t39 136v365h41v-371q0 -71 -21.5 -116.5t-61 -68.5t-93.5 -23z" />
    <glyph glyph-name="uni0E0D" unicode="&#xe0d;" horiz-adv-x="933" 
d="M641 -178q-72 0 -120 27.5t-74 78.5l30 23q23 -46 62.5 -69t99.5 -23q44 0 79 14.5t56 49t21 94.5v82h-4q-10 -25 -31 -48t-53.5 -37.5t-78.5 -14.5q-54 0 -94 23t-61.5 69t-21.5 116v159q0 90 -43 132.5t-125 42.5q-83 0 -126 -42t-43 -133l-17 14h171v-31
q-64 -7 -99 -42.5t-35 -102.5v-168h104v-36h-86q-30 0 -44.5 16t-14.5 48v124q0 48 14 80t39 51.5t55 27.5v3h-126v24q0 100 53 152t155 52q104 0 156.5 -54t52.5 -154v-157q0 -94 39 -135.5t106 -41.5q39 0 75 15t59 45.5t23 76.5v394h41v-555q0 -66 -25 -108t-68.5 -62
t-100.5 -20z" />
    <glyph glyph-name="uni0E0E" unicode="&#xe0e;" horiz-adv-x="591" 
d="M148 -210l-30 23q26 48 72 76.5t103 28.5q51 0 92.5 -21.5t70.5 -60.5h3v530q0 89 -44 132t-129 43q-86 0 -128.5 -41.5t-42.5 -132.5l-16 13h178v-31q-42 -5 -70.5 -23.5t-43 -49t-14.5 -72.5v-144q0 -23 -5.5 -36t-17.5 -18.5t-32 -5.5h-60v36h74v154q0 47 14 79
t38.5 51t54.5 27v3h-141v24q0 100 54.5 152t157.5 52q109 0 162 -54t53 -154v-570h-43q-65 82 -161 82q-51 0 -87.5 -25t-61.5 -67z" />
    <glyph glyph-name="uni0E0F" unicode="&#xe0f;" horiz-adv-x="591" 
d="M198 -205q-35 0 -62 18.5t-45 54.5l29 24q18 -31 38.5 -45.5t45.5 -14.5q28 0 49 16t42 55h7l85 -67q40 2 56 23t16 72v435q0 89 -44 132t-129 43q-86 0 -128.5 -41.5t-42.5 -132.5l-16 13h178v-31q-42 -5 -70.5 -23.5t-43 -49t-14.5 -72.5v-144q0 -23 -5.5 -36
t-17.5 -18.5t-32 -5.5h-60v36h74v154q0 47 14 79t38.5 51t54.5 27v3h-141v24q0 100 54.5 152t157.5 52q109 0 162 -54t53 -154v-437q0 -48 -14 -77.5t-41.5 -42.5t-68.5 -13l-79 64h-2q-17 -34 -40.5 -51.5t-57.5 -17.5z" />
    <glyph glyph-name="uni0E10" unicode="&#xe10;" horiz-adv-x="539" 
d="M210 0l-73 283h-73v36h66q23 0 33.5 -10t17.5 -35l64 -255l-22 17h38q46 0 83.5 24.5t59 73.5t21.5 120v70q0 99 -44 158t-136 59q-59 0 -101 -24t-67 -70l-29 23q28 50 77 79t119 29q49 0 87.5 -14t63.5 -43q38 -33 56 -91.5t18 -139.5q0 -98 -26.5 -162.5t-73.5 -96
t-108 -31.5h-51zM349 -186q-43 0 -71.5 26.5t-34.5 75.5h-3l-19 -48q-7 -26 -21.5 -35.5t-40.5 -9.5h-92v36h112l32 78h44q11 -47 31 -68.5t54 -21.5q29 0 47 17.5t18 48.5v24h39v-27q0 -45 -25.5 -70.5t-69.5 -25.5zM409 499l-29 16v50q0 17 9.5 25.5t27.5 8.5h90v-36h-98
v-64z" />
    <glyph glyph-name="uni0E11" unicode="&#xe11;" horiz-adv-x="606" 
d="M104 0v209q0 27 4.5 49.5t15.5 47t30 54.5q14 22 21.5 36.5t11 27t3.5 27.5v64h-3q-12 -35 -36.5 -52t-55.5 -17q-22 0 -33 12t-11 35v74h37v-88q31 0 54 10.5t35.5 29.5t12.5 42v6h39v-117h3q39 62 81 95.5t90 33.5q51 0 78.5 -33.5t27.5 -106.5v-439h-42v443
q0 51 -18 75t-55 24q-29 0 -56.5 -16.5t-54 -46t-53.5 -70.5q-34 -49 -52 -82.5t-25 -59.5t-7 -55v-212h-42z" />
    <glyph glyph-name="uni0E12" unicode="&#xe12;" horiz-adv-x="918" 
d="M651 -12q-44 0 -76.5 14.5t-53 37t-31.5 48.5h-3v-88h-41v391q0 55 -10 87t-30 46t-50 15l-68 -77h-2l-68 77q-50 0 -81.5 -57t-31.5 -158v-74q0 -106 35 -159.5t118 -53.5h40v-37h-42q-68 0 -111 30.5t-62.5 94t-19.5 164.5q0 145 44.5 217t120.5 72l58 -70h2l58 70
q45 0 76.5 -17t48.5 -53.5t17 -95.5v-250q0 -46 23 -76.5t58.5 -45.5t73.5 -15q65 0 104 41t39 136v365h41v-371q0 -71 -21.5 -116.5t-61 -68.5t-93.5 -23z" />
    <glyph glyph-name="uni0E13" unicode="&#xe13;" horiz-adv-x="931" 
d="M626 -12q-53 0 -92.5 23t-61 68.5t-21.5 116.5v170q0 90 -43.5 132.5t-124.5 42.5q-83 0 -126 -42t-43 -133l-17 14h171v-31q-64 -7 -99 -42.5t-35 -102.5v-168h104v-36h-86q-30 0 -44.5 16t-14.5 48v124q0 48 14 80t39 51.5t55 27.5v3h-126v24q0 100 53 152t155 52
q104 0 156.5 -54t52.5 -154v-168q0 -95 38.5 -136t104.5 -41q38 0 73.5 15t58.5 45.5t23 76.5v405h41v-567h-40v88h-4q-10 -26 -30.5 -48.5t-53 -37t-77.5 -14.5z" />
    <glyph glyph-name="uni0E14" unicode="&#xe14;" horiz-adv-x="585" 
d="M258 0q-70 0 -113 30.5t-62.5 94t-19.5 161.5q0 146 58.5 219t167.5 73q102 0 153 -55t51 -156v-367h-41v362q0 90 -41.5 134.5t-122.5 44.5q-88 0 -134.5 -59t-46.5 -161v-72q0 -67 15 -114.5t49 -72.5t89 -25h43v-37h-45z" />
    <glyph glyph-name="uni0E15" unicode="&#xe15;" horiz-adv-x="597" 
d="M260 0q-70 0 -114 30t-63.5 93t-19.5 164q0 145 45 218t130 73l58 -70h3l58 70q46 0 78.5 -17t49.5 -53.5t17 -95.5v-412h-42v391q0 55 -10 87t-31 46t-53 15l-68 -77h-2l-67 77q-58 0 -90 -59.5t-32 -158.5v-75q0 -106 34.5 -157.5t120.5 -51.5h47v-37h-49z" />
    <glyph glyph-name="uni0E16" unicode="&#xe16;" horiz-adv-x="586" 
d="M152 0q-29 0 -43.5 16t-14.5 48v124q0 48 14 80t38.5 51.5t54.5 27.5v3h-126v24q0 100 53.5 152t155.5 52q106 0 159 -54t53 -154v-370h-42v366q0 90 -43.5 132.5t-126.5 42.5t-126 -42t-43 -133l-17 14h171v-31q-64 -7 -99 -42.5t-35 -102.5v-168h104v-36h-87z" />
    <glyph glyph-name="uni0E17" unicode="&#xe17;" horiz-adv-x="595" 
d="M100 0v567h40v-89h4q10 26 31.5 48.5t55.5 37t84 14.5q90 0 139.5 -53.5t49.5 -154.5v-370h-41v364q0 91 -40.5 134t-115.5 43q-43 0 -81 -15t-61.5 -45t-23.5 -77v-404h-41z" />
    <glyph glyph-name="uni0E18" unicode="&#xe18;" horiz-adv-x="530" 
d="M274 -9q-50 0 -91.5 12.5t-84.5 40.5v210h41v-190q31 -18 64 -27t72 -9q75 0 115 35.5t40 110.5q0 72 -32 102.5t-93 39.5l-168 23q-33 5 -48 18.5t-15 43.5v17q0 79 52 119t139 40q54 0 90.5 -11.5t62 -30.5t44.5 -42l-30 -27q-15 19 -36 36t-52.5 28t-78.5 11
q-72 0 -111.5 -30.5t-39.5 -91.5v-39l191 -26q54 -7 90.5 -26.5t55.5 -55.5t19 -95q0 -94 -51 -140t-145 -46z" />
    <glyph glyph-name="uni0E19" unicode="&#xe19;" horiz-adv-x="594" 
d="M280 -12q-90 0 -139.5 53.5t-49.5 154.5v371h42v-365q0 -90 40 -133.5t115 -43.5q43 0 81 15t61 45.5t23 76.5v405h42v-567h-41v88h-3q-11 -26 -32 -48.5t-55.5 -37t-83.5 -14.5z" />
    <glyph glyph-name="uni0E1A" unicode="&#xe1a;" horiz-adv-x="586" 
d="M293 -12q-72 0 -116.5 23.5t-65 73.5t-20.5 128v354h42v-346q0 -70 15 -113.5t50.5 -63t94.5 -19.5t94 19.5t50.5 63t15.5 113.5v346h41v-354q0 -78 -20.5 -128t-64.5 -73.5t-116 -23.5z" />
    <glyph glyph-name="uni0E1B" unicode="&#xe1b;" horiz-adv-x="586" 
d="M293 -12q-72 0 -116.5 23.5t-65 73.5t-20.5 128v354h42v-346q0 -71 15 -114t50.5 -63t94.5 -20t94 20t50.5 63t15.5 114v559h41v-567q0 -78 -20.5 -128t-64.5 -73.5t-116 -23.5z" />
    <glyph glyph-name="uni0E1C" unicode="&#xe1c;" horiz-adv-x="611" 
d="M98 0v500q0 34 13 50.5t44 16.5h87v-36h-103v-479l164 247h3l165 -247v515h40v-567h-46l-159 238h-2l-159 -238h-47z" />
    <glyph glyph-name="uni0E1D" unicode="&#xe1d;" horiz-adv-x="611" 
d="M98 0v500q0 34 13 50.5t44 16.5h87v-36h-103v-478l164 244h3l164 -244v727h41v-780h-47l-158 238h-2l-158 -238h-48z" />
    <glyph glyph-name="uni0E1E" unicode="&#xe1e;" horiz-adv-x="684" 
d="M152 0l-88 567h42l76 -519h2l136 519h44l136 -519h2l76 519h42l-88 -567h-55l-134 505h-2l-134 -505h-55z" />
    <glyph glyph-name="uni0E1F" unicode="&#xe1f;" horiz-adv-x="642" 
d="M147 0l-86 567h42l74 -519h2l133 519h44l134 -519h2l87 732h42l-100 -780h-54l-132 505h-2l-131 -505h-55z" />
    <glyph glyph-name="uni0E20" unicode="&#xe20;" horiz-adv-x="591" 
d="M34 0v36h74v154q0 47 14 79t38.5 51t54.5 27v3h-141v24q0 100 54.5 152t157.5 52q109 0 162 -54t53 -154v-370h-42v366q0 89 -44 132t-129 43q-86 0 -128.5 -41.5t-42.5 -132.5l-16 13h178v-31q-63 -7 -95.5 -44.5t-32.5 -100.5v-144q0 -23 -5.5 -36t-17.5 -18.5
t-32 -5.5h-60z" />
    <glyph glyph-name="uni0E21" unicode="&#xe21;" horiz-adv-x="594" 
d="M315 -12q-50 0 -84.5 14.5t-55.5 37t-31 48.5h-4v-88h-40v567h41v-405q0 -46 23.5 -76.5t61.5 -45.5t80 -15q75 0 115.5 43.5t40.5 133.5v365h41v-371q0 -101 -49 -154.5t-139 -53.5z" />
    <glyph glyph-name="uni0E22" unicode="&#xe22;" horiz-adv-x="581" 
d="M287 -12q-72 0 -117 23t-65 72t-20 125v67q0 21 5.5 35t17.5 21t30 7h43v3q-28 11 -49.5 32t-33 52t-11.5 70v21q0 25 13.5 38t41.5 13h116v-36h-130v-37q0 -42 13 -77.5t41 -57t73 -21.5h24v-36h-153v-90q0 -67 15.5 -108.5t50.5 -60.5t95 -19t95 20t50.5 63t15.5 114
v346h41v-354q0 -78 -20.5 -128t-65 -73.5t-116.5 -23.5z" />
    <glyph glyph-name="uni0E23" unicode="&#xe23;" horiz-adv-x="489" 
d="M251 -12q-68 0 -116.5 27t-85.5 80l30 24q36 -50 77 -72t97 -22q67 0 103.5 31.5t36.5 87.5q0 52 -29.5 81.5t-91.5 39.5l-46 7q-46 8 -81.5 25t-55.5 48t-20 81t24 84t64 50.5t88 16.5q68 0 110.5 -25t70.5 -59l-30 -27q-22 28 -57.5 51.5t-94.5 23.5q-61 0 -97.5 -30
t-36.5 -83q0 -56 31 -82.5t92 -36.5l46 -7q74 -12 114 -48.5t40 -105.5q0 -76 -49 -118t-133 -42z" />
    <glyph glyph-name="uni0E24" unicode="&#xe24;" horiz-adv-x="586" 
d="M454 -200v566q0 90 -43.5 132.5t-126.5 42.5t-126 -42t-43 -133l-17 14h171v-31q-64 -7 -99 -42.5t-35 -102.5v-168h104v-36h-87q-29 0 -43.5 16t-14.5 48v124q0 48 14 80t38.5 51.5t54.5 27.5v3h-126v24q0 100 53.5 152t155.5 52q106 0 159 -54t53 -154v-570h-42z" />
    <glyph glyph-name="uni0E25" unicode="&#xe25;" horiz-adv-x="550" 
d="M418 0v377q0 91 -41 127.5t-118 36.5q-57 0 -99 -23.5t-65 -70.5l-30 22q25 51 75 80t121 29q97 0 147.5 -47.5t50.5 -147.5v-383h-41zM240 0q-87 0 -135.5 41t-48.5 119q0 49 21.5 86.5t69.5 58t126 20.5h164v-36h-169q-87 0 -127.5 -31.5t-40.5 -81.5v-30
q0 -53 39.5 -81.5t103.5 -28.5h45v-36h-48z" />
    <glyph glyph-name="uni0E26" unicode="&#xe26;" horiz-adv-x="591" 
d="M459 -200v566q0 89 -44 132t-129 43q-86 0 -128.5 -41.5t-42.5 -132.5l-16 13h178v-31q-42 -5 -70.5 -23.5t-43 -49t-14.5 -72.5v-144q0 -23 -5.5 -36t-17.5 -18.5t-32 -5.5h-60v36h74v154q0 47 14 79t38.5 51t54.5 27v3h-141v24q0 100 54.5 152t157.5 52q109 0 162 -54
t53 -154v-570h-42z" />
    <glyph glyph-name="uni0E27" unicode="&#xe27;" horiz-adv-x="500" 
d="M232 -12q-74 0 -119 31.5t-69 83.5l37 17q15 -32 36.5 -53t50.5 -31.5t64 -10.5q78 0 122 55.5t44 164.5v76q0 109 -44 164.5t-122 55.5q-54 0 -91.5 -23.5t-59.5 -71.5l-37 17q24 52 69 83.5t119 31.5q104 0 157 -70.5t53 -224.5q0 -147 -52.5 -221t-157.5 -74z" />
    <glyph glyph-name="uni0E28" unicode="&#xe28;" horiz-adv-x="612" 
d="M94 0v370q0 100 52 154t155 54q47 0 83.5 -12t62.5 -38q31 -24 46.5 -64t15.5 -94v-370h-41v366q0 90 -42.5 133t-123.5 43t-124 -43t-43 -133v-137h4q16 36 50 63t99 27h38v-40h-48q-37 0 -69.5 -13t-53 -40.5t-20.5 -73.5v-152h-41zM461 506l-29 16v43q0 17 10 25.5
t28 8.5h90v-36h-99v-57z" />
    <glyph glyph-name="uni0E29" unicode="&#xe29;" horiz-adv-x="602" 
d="M295 -12q-72 0 -117 24t-66 74t-21 127v354h42v-349q0 -69 16 -112t52 -62.5t94 -19.5q59 0 94 19.5t51.5 62.5t16.5 112v349h41v-354q0 -77 -21 -127t-65.5 -74t-116.5 -24zM304 304v35h280v-35h-280z" />
    <glyph glyph-name="uni0E2A" unicode="&#xe2a;" horiz-adv-x="568" 
d="M423 0v377q0 91 -41 127.5t-119 36.5q-56 0 -98 -23.5t-65 -70.5l-30 22q25 51 74.5 80t119.5 29q47 0 83.5 -11.5t61.5 -37.5q28 -23 41.5 -60t13.5 -87v-382h-41zM245 0q-87 0 -135.5 41t-48.5 119q0 49 21.5 86.5t69 58t126.5 20.5h164v-36h-169q-87 0 -127.5 -31.5
t-40.5 -81.5v-30q0 -53 39 -81.5t104 -28.5h45v-36h-48zM426 499l-29 16v50q0 17 10 25.5t28 8.5h90v-36h-99v-64z" />
    <glyph glyph-name="uni0E2B" unicode="&#xe2b;" horiz-adv-x="573" 
d="M100 0v567h41v-213h174q45 0 73.5 19.5t42 51t13.5 65.5v77h41v-63q0 -44 -13.5 -73.5t-36 -48t-48.5 -29.5v-4q49 -10 75.5 -48t26.5 -107v-194h-42v194q0 63 -26 93t-80 30h-200v-317h-41z" />
    <glyph glyph-name="uni0E2C" unicode="&#xe2c;" horiz-adv-x="662" 
d="M152 0l-88 567h42l76 -519h2l136 466h44l136 -466h2l67 456q8 52 -8 77.5t-60 25.5h-70v34h43q27 0 54.5 12t51 42t34.5 85h42q-9 -43 -24 -73t-36.5 -46.5t-47.5 -20.5v-3q40 -10 54.5 -46t5.5 -92l-76 -499h-55l-134 458h-2l-134 -458h-55z" />
    <glyph glyph-name="uni0E2D" unicode="&#xe2d;" horiz-adv-x="557" 
d="M278 -12q-99 0 -159 58.5t-60 174.5v39q0 27 14 40t40 13h110v-36h-123v-57q0 -97 44.5 -146t133.5 -49q83 0 131 56.5t48 174.5v52q0 118 -50 175.5t-135 57.5q-61 0 -102 -23t-67 -70l-32 22q29 51 76.5 79.5t124.5 28.5q109 0 169 -73t60 -223t-59 -222t-164 -72z" />
    <glyph glyph-name="uni0E2E" unicode="&#xe2e;" horiz-adv-x="563" 
d="M278 -12q-98 0 -158.5 57.5t-60.5 172.5v39q0 30 13.5 43t40.5 13h110v-36h-123v-57q0 -97 44.5 -146t133.5 -49q83 0 131 56.5t48 174.5v52q0 118 -50 175.5t-135 57.5q-61 0 -102 -23t-67 -70l-32 22q29 51 76.5 79.5t124.5 28.5q44 0 80.5 -12.5t64.5 -39.5
q41 -33 62.5 -94t21.5 -150q0 -150 -59 -222t-164 -72zM430 499l-28 16v50q0 17 9.5 25.5t27.5 8.5h85v-36h-94v-64z" />
    <glyph glyph-name="uni0E2F" unicode="&#xe2f;" horiz-adv-x="507" 
d="M366 0v348h-3q-9 -25 -29 -49.5t-52.5 -41.5t-78.5 -17q-76 0 -117.5 45t-41.5 117q0 50 19.5 87t57.5 57.5t90 20.5h54v-36h-52q-57 0 -92 -33.5t-35 -94.5q0 -59 34.5 -92t92.5 -33q39 0 74 17t57 50t22 81v141h41v-567h-41z" />
    <glyph glyph-name="uni0E30" unicode="&#xe30;" horiz-adv-x="370" 
d="M114 370q-23 0 -35.5 12t-12.5 35v97h39v-107h213v-37h-204zM114 80q-23 0 -35.5 12t-12.5 35v97h39v-107h213v-37h-204z" />
    <glyph glyph-name="uni0E31" unicode="&#xe31;" 
d="M-197 661q-30 0 -43.5 12.5t-13.5 40.5v59h39v-78h252v-34h-234z" />
    <glyph glyph-name="uni0E32" unicode="&#xe32;" horiz-adv-x="446" 
d="M314 0v407q0 71 -32 102.5t-94 31.5q-52 0 -86 -22t-55 -66l-31 23q22 48 64 75t108 27q82 0 124.5 -43t42.5 -123v-412h-41z" />
    <glyph glyph-name="uni0E33" unicode="&#xe33;" horiz-adv-x="446" 
d="M314 0v407q0 71 -32 102.5t-94 31.5q-52 0 -86 -22t-55 -66l-31 23q22 48 64 75t108 27q82 0 124.5 -43t42.5 -123v-412h-41zM-119 663q-41 0 -63.5 22.5t-22.5 57.5v12q0 34 22.5 55.5t63.5 21.5t62.5 -21.5t21.5 -55.5v-12q0 -35 -21.5 -57.5t-62.5 -22.5zM-119 694
q23 0 36.5 14.5t13.5 40.5q0 24 -13.5 38t-36.5 14q-24 0 -38 -14t-14 -38q0 -26 14 -40.5t38 -14.5z" />
    <glyph glyph-name="uni0E34" unicode="&#xe34;" 
d="M-462 661v34h371v-34h-371z" />
    <glyph glyph-name="uni0E35" unicode="&#xe35;" 
d="M-462 661v34h332v105h39v-93q0 -23 -11.5 -34.5t-35.5 -11.5h-324z" />
    <glyph glyph-name="uni0E36" unicode="&#xe36;" 
d="M-147 661q-35 0 -54.5 19.5t-19.5 51.5v8q0 31 19.5 50t54.5 19t54 -19t19 -50v-8q0 -32 -19 -51.5t-54 -19.5zM-461 661v34h279l35 -34h-314zM-147 687q20 0 31.5 13.5t11.5 35.5t-11.5 34t-31.5 12t-31.5 -12t-11.5 -34t11.5 -35.5t31.5 -13.5z" />
    <glyph glyph-name="uni0E37" unicode="&#xe37;" 
d="M-462 661v34h335v105h36v-93q0 -23 -11.5 -34.5t-35.5 -11.5h-324zM-227 685v115h36v-115h-36z" />
    <glyph glyph-name="uni0E38" unicode="&#xe38;" 
d="M-128 -246v140h-62v32h55q22 0 33 -11t11 -33v-128h-37z" />
    <glyph glyph-name="uni0E39" unicode="&#xe39;" 
d="M-214 -246q-21 0 -31.5 10.5t-10.5 30.5v99h-59v32h52q22 0 33 -11t11 -33v-96h91v140h37v-131q0 -20 -10.5 -30.5t-30.5 -10.5h-82z" />
    <glyph glyph-name="uni0E3A" unicode="&#xe3a;" 
d="M-116 -155q-19 0 -27.5 9.5t-8.5 23.5v9q0 14 8.5 23.5t27.5 9.5t27 -9.5t8 -23.5v-9q0 -14 -8 -23.5t-27 -9.5z" />
    <glyph glyph-name="uni0E3F" unicode="&#xe3f;" horiz-adv-x="618" 
d="M286 -82v103h-183v656h183v103h34v-103h37q80 0 123.5 -43.5t43.5 -120.5q0 -63 -28.5 -97t-75.5 -47v-3q41 -6 70.5 -26t46.5 -54.5t17 -82.5q0 -54 -21 -95t-60.5 -64t-95.5 -23h-57v-103h-34zM145 59h141v286h-141v-286zM319 59h51q46 0 77 16.5t46.5 44.5t15.5 62v40
q0 35 -15.5 62.5t-46.5 44t-77 16.5h-51v-286zM145 382h141v257h-141v-257zM319 382h39q62 0 91.5 31.5t29.5 77.5v39q0 46 -29.5 77.5t-91.5 31.5h-39v-257z" />
    <glyph glyph-name="uni0E40" unicode="&#xe40;" horiz-adv-x="260" 
d="M149 0q-24 0 -36 12.5t-12 35.5v519h42v-531h97v-36h-91z" />
    <glyph glyph-name="uni0E41" unicode="&#xe41;" horiz-adv-x="512" 
d="M401 0q-24 0 -36 12.5t-12 35.5v519h41v-531h98v-36h-91zM149 0q-24 0 -36 12.5t-12 35.5v519h42v-531h97v-36h-91z" />
    <glyph glyph-name="uni0E42" unicode="&#xe42;" horiz-adv-x="290" 
d="M178 0q-23 0 -35 12.5t-12 35.5v632q0 84 -33.5 133.5t-91.5 51.5v36h318v-35h-252v-3q48 -19 74 -68.5t26 -137.5v-621h98v-36h-92z" />
    <glyph glyph-name="uni0E43" unicode="&#xe43;" horiz-adv-x="299" 
d="M174 0q-23 0 -35 12.5t-12 35.5v598q70 2 108.5 32.5t38.5 83.5v21q0 50 -30.5 79.5t-77.5 29.5q-45 0 -77.5 -25t-49.5 -83l-36 17q14 45 37.5 73t55.5 41.5t71 13.5q68 0 109 -40.5t41 -112.5q0 -48 -19 -81t-52 -51.5t-79 -23.5v-584h99v-36h-92z" />
    <glyph glyph-name="uni0E44" unicode="&#xe44;" horiz-adv-x="277" 
d="M166 0q-24 0 -36 12.5t-12 35.5v612q0 57 13.5 96.5t38 65.5t60.5 41v3h-210v35h271v-36q-41 -4 -70.5 -29.5t-45 -68t-15.5 -98.5v-633h98v-36h-92z" />
    <glyph glyph-name="uni0E45" unicode="&#xe45;" horiz-adv-x="446" 
d="M315 -200v607q0 71 -32 102.5t-94 31.5q-52 0 -85.5 -22t-55.5 -66l-31 23q22 48 64.5 75t108.5 27q82 0 124 -43t42 -123v-612h-41z" />
    <glyph glyph-name="uni0E46" unicode="&#xe46;" horiz-adv-x="542" 
d="M403 -158v570q0 47 -8.5 74t-26.5 39.5t-47 13.5l-67 -77h-2l-67 77q-43 -1 -63.5 -28.5t-20.5 -88.5v-52q0 -56 25.5 -82t86.5 -26h46v-37h-48q-54 0 -88 18t-49 53.5t-15 87.5v32q0 79 33 120.5t103 41.5l57 -68h2l57 68q44 0 73 -16t44.5 -49t15.5 -85v-586h-41z" />
    <glyph glyph-name="uni0E47" unicode="&#xe47;" 
d="M-335 655q-35 0 -57 23t-22 61q0 40 24.5 62t69.5 22h181v-31h-179q-30 0 -44 -13t-14 -41q0 -27 13.5 -40.5t42.5 -13.5h15l-16 -8l24 64h33q1 -24 13 -39.5t30 -15.5q15 0 22 10t7 32v17h36v-21q0 -33 -15 -50.5t-41 -17.5t-41.5 17.5t-18.5 49.5h-3l-5 -19
q-7 -24 -19 -36t-36 -12z" />
    <glyph glyph-name="uni0E48" unicode="&#xe48;" 
d="M-131 661v158h39v-158h-39z" />
    <glyph glyph-name="uni0E49" unicode="&#xe49;" 
d="M-254 661v85h-72v34h63q17 0 26.5 -4t14 -14t4.5 -26v-41h189v-34h-225z" />
    <glyph glyph-name="uni0E4A" unicode="&#xe4a;" 
d="M-260 661q-38 0 -59 20.5t-21 56.5q0 34 20 55t51 24l48 -37h1l47 37q31 -4 49 -21.5t18 -53.5v-81h-35v75q0 22 -7 32.5t-24 14.5l-48 -39l-50 39q-16 -4 -24.5 -15.5t-8.5 -30.5q0 -21 13 -33t35 -12h51v-31h-56zM-126 661v32h91v-32h-91z" />
    <glyph glyph-name="uni0E4B" unicode="&#xe4b;" 
d="M-214 725v33h202v-33h-202zM-131 650v183h36v-183h-36z" />
    <glyph glyph-name="uni0E4C" unicode="&#xe4c;" 
d="M-241 661v60q0 27 13.5 40t43.5 13h138v-35h-156v-78h-39z" />
    <glyph glyph-name="uni0E4D" unicode="&#xe4d;" 
d="M-112 660q-41 0 -63.5 22t-22.5 57v13q0 34 22.5 55.5t63.5 21.5t62.5 -21.5t21.5 -55.5v-13q0 -35 -21.5 -57t-62.5 -22zM-112 689q24 0 38 15t14 42q0 25 -14 39.5t-38 14.5q-25 0 -39.5 -14.5t-14.5 -39.5q0 -27 14.5 -42t39.5 -15z" />
    <glyph glyph-name="uni0E4E" unicode="&#xe4e;" 
d="M-290 650v48q0 53 53 53h44l-10 -18v40q0 53 54 53h63v-35h-81v-72h-83v-69h-40z" />
    <glyph glyph-name="uni0E4F" unicode="&#xe4f;" horiz-adv-x="582" 
d="M291 20q-67 0 -116 29.5t-75.5 85.5t-26.5 135t26.5 135t75.5 85.5t116 29.5t116 -29.5t75.5 -85.5t26.5 -135t-26.5 -135t-75.5 -85.5t-116 -29.5zM291 53q83 0 129.5 50.5t46.5 138.5v56q0 88 -46.5 138.5t-129.5 50.5t-129.5 -50.5t-46.5 -138.5v-56
q0 -88 46.5 -138.5t129.5 -50.5zM291 109q-58 0 -91 35.5t-33 100.5v50q0 65 33 100.5t91 35.5t91 -35.5t33 -100.5v-50q0 -65 -33 -100.5t-91 -35.5z" />
    <glyph glyph-name="uni0E50" unicode="&#xe50;" horiz-adv-x="547" 
d="M273 -12q-67 0 -115.5 31t-75 90.5t-26.5 145.5t26.5 145t75 90t115.5 31t116 -31t75.5 -90t26.5 -145t-26.5 -145.5t-75.5 -90.5t-116 -31zM273 24q82 0 128 53.5t46 148.5v57q0 95 -46 148.5t-128 53.5q-81 0 -127 -53.5t-46 -148.5v-57q0 -95 46 -148.5t127 -53.5z
" />
    <glyph glyph-name="uni0E51" unicode="&#xe51;" horiz-adv-x="527" 
d="M235 -54q69 53 112 107.5t63 114t20 127.5q0 63 -20.5 105t-59 63.5t-90.5 21.5q-79 0 -124 -46.5t-45 -122.5v-20q0 -73 34 -112.5t106 -39.5h31v-36h-31q-89 0 -135.5 50t-46.5 148q0 64 25.5 112.5t73.5 75.5t113 27q99 0 155 -61t56 -168q0 -72 -23 -136t-63.5 -117
t-94.5 -93h-56z" />
    <glyph glyph-name="uni0E52" unicode="&#xe52;" horiz-adv-x="690" 
d="M284 -8q-104 0 -149 51t-45 161v446h41v-446q0 -62 14 -101t48 -57t91 -18h129q58 0 91 18t47.5 57t14.5 101v174q0 56 -17.5 78.5t-57.5 22.5l-64 -80h-3l-65 80q-40 0 -56.5 -22.5t-16.5 -78.5v-135h102v-36h-91q-27 0 -39 13t-12 38v118q0 73 28.5 107t95.5 34l54 -71
h3l54 71q66 0 96 -34t30 -107v-172q0 -110 -45 -161t-150 -51h-128z" />
    <glyph glyph-name="uni0E53" unicode="&#xe53;" horiz-adv-x="683" 
d="M136 0q-23 0 -35 12.5t-12 35.5v334q0 67 35.5 103t100.5 36q50 0 82 -20t46 -59h3q9 37 38 58t75 21q60 0 92 -34.5t32 -100.5v-386h-40v381q0 52 -24 78t-72 26q-46 0 -71 -25t-25 -76v-271h-40v268q0 54 -24.5 79t-71.5 25t-71.5 -25t-24.5 -79v-345h92v-36h-85z" />
    <glyph glyph-name="uni0E54" unicode="&#xe54;" horiz-adv-x="545" 
d="M272 0q-68 0 -116.5 30t-74 87t-25.5 138t25.5 138t74 87t116.5 30h190v132h38v-121q0 -23 -12.5 -35t-34.5 -12h-181q-82 0 -127 -51.5t-45 -140.5v-55q0 -88 45 -139.5t127 -51.5h111v3q-43 16 -68.5 56t-25.5 101v23q0 27 13.5 39.5t41.5 12.5h106v-36h-120v-40
q0 -43 13 -79.5t41 -58t73 -21.5h52v-36h-237z" />
    <glyph glyph-name="uni0E55" unicode="&#xe55;" horiz-adv-x="545" 
d="M272 0q-102 0 -159 66.5t-57 188.5q0 81 25.5 137.5t73 87t113.5 30.5l35 -15l47 15h114v132h36v-121q0 -23 -12.5 -35t-34.5 -12h-181q-82 0 -127 -51.5t-45 -140.5v-55q0 -88 45 -139.5t127 -51.5h111v3q-43 16 -68.5 56t-25.5 101v23q0 27 13.5 39.5t41.5 12.5h106
v-36h-120v-40q0 -43 13 -79.5t41 -58t73 -21.5h52v-36h-237zM303 474q-40 0 -62.5 22.5t-22.5 58.5v10q0 34 22.5 55.5t62.5 21.5q41 0 62.5 -21.5t21.5 -55.5v-10q0 -36 -21.5 -58.5t-62.5 -22.5zM303 505q23 0 36.5 14.5t13.5 40.5q0 24 -13.5 38t-36.5 14q-24 0 -38 -14
t-14 -38q0 -26 14 -40.5t38 -14.5z" />
    <glyph glyph-name="uni0E56" unicode="&#xe56;" horiz-adv-x="546" 
d="M274 -12q-61 0 -105 21t-68.5 58.5t-24.5 86.5q0 29 12.5 41.5t39.5 12.5h92v-35h-106v-23q0 -55 41.5 -90.5t117.5 -35.5q84 0 129 53.5t45 148.5v57q0 94 -44.5 148t-122.5 54q-48 0 -85 -23t-57 -69h-38l-49 257h39l41 -227h3q12 28 32.5 50.5t50.5 35t70 12.5
q94 0 149 -69t55 -197q0 -86 -26 -145.5t-74.5 -90.5t-116.5 -31z" />
    <glyph glyph-name="uni0E57" unicode="&#xe57;" horiz-adv-x="808" 
d="M136 0q-23 0 -35 12.5t-12 35.5v333q0 67 32.5 103.5t91.5 36.5q45 0 74 -20.5t43 -60.5h2q11 38 37 59.5t67 21.5q55 0 84.5 -35.5t29.5 -100.5v-367l-16 19q79 -4 114.5 30.5t35.5 113.5v469h41v-465q0 -64 -20.5 -105t-60.5 -60.5t-98 -19.5h-36v381q0 52 -21.5 78
t-63.5 26q-40 0 -62.5 -24.5t-22.5 -70.5v-227h-41v217q0 54 -22 79.5t-63 25.5t-63 -25t-22 -79v-345h92v-36h-85z" />
    <glyph glyph-name="uni0E58" unicode="&#xe58;" horiz-adv-x="591" 
d="M224 -11q-50 0 -87.5 30.5t-58.5 88.5t-21 141q0 84 27 142.5t76 88.5t117 30h203v132h38v-121q0 -23 -12.5 -35t-34.5 -12h-194q-83 0 -129.5 -51.5t-46.5 -144.5v-59q0 -62 17 -106t46.5 -67t67.5 -23h11l56 182h37q0 -89 28.5 -135t77.5 -46q43 0 60.5 31.5t17.5 94.5
v76h-85v36h64q31 0 46 -15.5t15 -54.5v-42q0 -77 -26.5 -119t-85.5 -42q-54 0 -89 39t-39 116h-3l-34 -107q-6 -27 -19 -37.5t-40 -10.5z" />
    <glyph glyph-name="uni0E59" unicode="&#xe59;" horiz-adv-x="638" 
d="M136 0q-23 0 -35 12.5t-12 35.5v340q0 67 29.5 100t81.5 33q42 0 70.5 -23.5t51.5 -82.5l159 -415h-39l-153 396q-19 49 -38.5 69t-49.5 20q-34 0 -53 -23.5t-19 -73.5v-352h92v-36h-85zM494 335l-43 91q-13 28 -27 43t-39 15q-28 0 -44 -22.5t-20 -71.5l-7 43h3
q3 42 24 65t54 23q31 0 50.5 -17.5t34.5 -52.5l49 -104l-19 26q31 -6 47.5 16.5t16.5 68.5v192h40v-192q0 -42 -11.5 -69.5t-33 -40.5t-51.5 -13h-24z" />
    <glyph glyph-name="uni0E5A" unicode="&#xe5a;" horiz-adv-x="673" 
d="M366 0v348h-3q-9 -25 -29 -49.5t-52.5 -41.5t-78.5 -17q-76 0 -117.5 45t-41.5 118q0 75 44 119.5t123 44.5h54v-37h-52q-57 0 -92 -33t-35 -94q0 -59 34.5 -92.5t92.5 -33.5q39 0 74 17t57 50.5t22 81.5v141h41v-567h-41zM532 0v351h-3q-8 -22 -26 -46t-46.5 -41
t-68.5 -19l9 37q36 3 66.5 21t49.5 50.5t19 76.5v137h42v-567h-42z" />
    <glyph glyph-name="uni0E5B" unicode="&#xe5b;" horiz-adv-x="837" 
d="M231 117q-75 0 -116.5 44t-41.5 115q0 74 42.5 117.5t118.5 43.5h51v-33h-47q-58 0 -92 -33t-34 -93t33.5 -92.5t86.5 -32.5q44 0 76.5 24t56 76.5t38.5 135.5h44l75 -201h3l74 201h38l68 -163h78v-33h-61q-24 0 -36 8t-20 30l-46 114h-3l-72 -200h-44l-72 200h-4
q-21 -117 -69.5 -172.5t-124.5 -55.5z" />
    <glyph glyph-name="Wgrave" unicode="&#x1e80;" horiz-adv-x="878" 
d="M207 0l-180 698h45l82 -328l80 -316h3l85 315l90 329h54l88 -327l86 -316h3l72 280l93 363h44l-184 -698h-51l-91 332l-87 319h-2l-88 -320l-91 -331h-51zM448 763l-112 154l37 20l102 -159z" />
    <glyph glyph-name="wgrave" unicode="&#x1e81;" horiz-adv-x="739" 
d="M182 0l-148 509h40l56 -199l77 -270h3l55 186l86 283h38l86 -278l57 -191h2l77 273l56 196h39l-149 -509h-50l-91 297l-45 153h-3l-46 -153l-90 -297h-50zM379 586l-112 155l37 19l102 -159z" />
    <glyph glyph-name="Wacute" unicode="&#x1e82;" horiz-adv-x="878" 
d="M207 0l-180 698h45l82 -328l80 -316h3l85 315l90 329h54l88 -327l86 -316h3l72 280l93 363h44l-184 -698h-51l-91 332l-87 319h-2l-88 -320l-91 -331h-51zM429 763l-27 15l102 159l37 -20z" />
    <glyph glyph-name="wacute" unicode="&#x1e83;" horiz-adv-x="739" 
d="M182 0l-148 509h40l56 -199l77 -270h3l55 186l86 283h38l86 -278l57 -191h2l77 273l56 196h39l-149 -509h-50l-91 297l-45 153h-3l-46 -153l-90 -297h-50zM360 586l-27 15l102 159l37 -19z" />
    <glyph glyph-name="Wdieresis" unicode="&#x1e84;" horiz-adv-x="878" 
d="M207 0l-180 698h45l82 -328l80 -316h3l85 315l90 329h54l88 -327l86 -316h3l72 280l93 363h44l-184 -698h-51l-91 332l-87 319h-2l-88 -320l-91 -331h-51zM531 809q-17 0 -24.5 8.5t-7.5 20.5v9q0 12 7.5 21t24.5 9t24.5 -9t7.5 -21v-9q0 -12 -7.5 -20.5t-24.5 -8.5z
M347 809q-17 0 -24.5 8.5t-7.5 20.5v9q0 12 7.5 21t24.5 9q18 0 25 -9t7 -21v-9q0 -12 -7 -20.5t-25 -8.5z" />
    <glyph glyph-name="wdieresis" unicode="&#x1e85;" horiz-adv-x="739" 
d="M182 0l-148 509h40l56 -199l77 -270h3l55 186l86 283h38l86 -278l57 -191h2l77 273l56 196h39l-149 -509h-50l-91 297l-45 153h-3l-46 -153l-90 -297h-50zM462 634q-17 0 -24.5 8.5t-7.5 20.5v9q0 12 7.5 20.5t24.5 8.5t24 -8.5t7 -20.5v-9q0 -12 -7 -20.5t-24 -8.5z
M278 634q-17 0 -24 8.5t-7 20.5v9q0 12 7 20.5t24 8.5q18 0 25 -8.5t7 -20.5v-9q0 -12 -7 -20.5t-25 -8.5z" />
    <glyph glyph-name="uni1E9E" unicode="&#x1e9e;" horiz-adv-x="687" 
d="M429 -12q-69 0 -115 24.5t-77 67.5l31 25q28 -36 66 -58t95 -22q70 0 114 38t44 110v38q0 72 -45.5 112t-142.5 40h-48v39l193 258h-398v-660h-43v698h484v-42l-189 -253v-4q58 0 102 -13.5t73.5 -39t44.5 -64.5t15 -89q0 -67 -25.5 -113t-71.5 -69t-107 -23z" />
    <glyph glyph-name="uni1EA0" unicode="&#x1ea0;" horiz-adv-x="614" 
d="M29 0l250 698h56l250 -698h-45l-80 225h-307l-80 -225h-44zM164 262h284l-140 395h-4zM307 -146q-17 0 -24.5 8.5t-7.5 21.5v8q0 12 7.5 20.5t24.5 8.5t24.5 -8.5t7.5 -20.5v-8q0 -13 -7.5 -21.5t-24.5 -8.5z" />
    <glyph glyph-name="uni1EA1" unicode="&#x1ea1;" horiz-adv-x="524" 
d="M222 -12q-80 0 -123.5 38.5t-43.5 108.5q0 44 20 77t63.5 51.5t116.5 18.5h129v66q0 70 -34.5 104t-102.5 34q-53 0 -88.5 -22t-56.5 -67l-28 20q21 46 63 75t112 29q86 0 131 -44t45 -124v-317h76v-36h-66q-25 0 -36 12t-13 33v34h-4q-18 -39 -57 -65t-103 -26zM226 23
q43 0 79 14.5t57.5 43t21.5 68.5v101h-129q-82 0 -119 -27.5t-37 -73.5v-27q0 -47 35.5 -73t91.5 -26zM245 -146q-17 0 -24.5 8.5t-7.5 21.5v8q0 12 7.5 20.5t24.5 8.5t24.5 -8.5t7.5 -20.5v-8q0 -13 -7.5 -21.5t-24.5 -8.5z" />
    <glyph glyph-name="uni1EA2" unicode="&#x1ea2;" horiz-adv-x="614" 
d="M29 0l250 698h56l250 -698h-45l-80 225h-307l-80 -225h-44zM164 262h284l-140 395h-4zM317 759l-26 13l71 119h-133v32h127q20 0 29.5 -8.5t9.5 -21.5q0 -11 -8 -27t-29 -46z" />
    <glyph glyph-name="uni1EA3" unicode="&#x1ea3;" horiz-adv-x="524" 
d="M222 -12q-80 0 -123.5 38.5t-43.5 108.5q0 44 20 77t63.5 51.5t116.5 18.5h129v66q0 70 -34.5 104t-102.5 34q-53 0 -88.5 -22t-56.5 -67l-28 20q21 46 63 75t112 29q86 0 131 -44t45 -124v-317h76v-36h-66q-25 0 -36 12t-13 33v34h-4q-18 -39 -57 -65t-103 -26zM226 23
q43 0 79 14.5t57.5 43t21.5 68.5v101h-129q-82 0 -119 -27.5t-37 -73.5v-27q0 -47 35.5 -73t91.5 -26zM260 586l-26 13l71 119h-133v32h127q20 0 29.5 -8.5t9.5 -21.5q0 -11 -8 -27t-29 -46z" />
    <glyph glyph-name="uni1EA4" unicode="&#x1ea4;" horiz-adv-x="614" 
d="M29 0l250 698h56l250 -698h-45l-80 225h-307l-80 -225h-44zM164 262h284l-140 395h-4zM183 764l-23 18l122 133h50l122 -133l-23 -18l-124 122zM434 874l-26 14l102 160l36 -20z" />
    <glyph glyph-name="uni1EA5" unicode="&#x1ea5;" horiz-adv-x="524" 
d="M222 -12q-80 0 -123.5 38.5t-43.5 108.5q0 44 20 77t63.5 51.5t116.5 18.5h129v66q0 70 -34.5 104t-102.5 34q-53 0 -88.5 -22t-56.5 -67l-28 20q21 46 63 75t112 29q86 0 131 -44t45 -124v-317h76v-36h-66q-25 0 -36 12t-13 33v34h-4q-18 -39 -57 -65t-103 -26zM226 23
q43 0 79 14.5t57.5 43t21.5 68.5v101h-129q-82 0 -119 -27.5t-37 -73.5v-27q0 -47 35.5 -73t91.5 -26zM127 587l-23 18l122 133h50l122 -133l-23 -18l-124 122zM378 697l-26 14l102 160l36 -20z" />
    <glyph glyph-name="uni1EA6" unicode="&#x1ea6;" horiz-adv-x="614" 
d="M29 0l250 698h56l250 -698h-45l-80 225h-307l-80 -225h-44zM164 262h284l-140 395h-4zM183 764l-23 18l122 133h50l122 -133l-23 -18l-124 122zM180 874l-112 154l36 20l102 -160z" />
    <glyph glyph-name="uni1EA7" unicode="&#x1ea7;" horiz-adv-x="524" 
d="M222 -12q-80 0 -123.5 38.5t-43.5 108.5q0 44 20 77t63.5 51.5t116.5 18.5h129v66q0 70 -34.5 104t-102.5 34q-53 0 -88.5 -22t-56.5 -67l-28 20q21 46 63 75t112 29q86 0 131 -44t45 -124v-317h76v-36h-66q-25 0 -36 12t-13 33v34h-4q-18 -39 -57 -65t-103 -26zM226 23
q43 0 79 14.5t57.5 43t21.5 68.5v101h-129q-82 0 -119 -27.5t-37 -73.5v-27q0 -47 35.5 -73t91.5 -26zM126 587l-23 18l122 133h50l122 -133l-23 -18l-124 122zM123 697l-112 154l36 20l102 -160z" />
    <glyph glyph-name="uni1EA8" unicode="&#x1ea8;" horiz-adv-x="614" 
d="M29 0l250 698h56l250 -698h-45l-80 225h-307l-80 -225h-44zM164 262h284l-140 395h-4zM183 764l-23 18l122 133h50l122 -133l-23 -18l-124 122zM438 871l-25 13l71 119h-134v32h127q20 0 29.5 -9t9.5 -22q0 -11 -8 -27t-29 -46z" />
    <glyph glyph-name="uni1EA9" unicode="&#x1ea9;" horiz-adv-x="524" 
d="M222 -12q-80 0 -123.5 38.5t-43.5 108.5q0 44 20 77t63.5 51.5t116.5 18.5h129v66q0 70 -34.5 104t-102.5 34q-53 0 -88.5 -22t-56.5 -67l-28 20q21 46 63 75t112 29q86 0 131 -44t45 -124v-317h76v-36h-66q-25 0 -36 12t-13 33v34h-4q-18 -39 -57 -65t-103 -26zM226 23
q43 0 79 14.5t57.5 43t21.5 68.5v101h-129q-82 0 -119 -27.5t-37 -73.5v-27q0 -47 35.5 -73t91.5 -26zM127 588l-23 18l122 133h50l122 -133l-23 -18l-124 122zM382 695l-25 13l71 119h-134v32h127q20 0 29.5 -9t9.5 -22q0 -11 -8 -27t-29 -46z" />
    <glyph glyph-name="uni1EAA" unicode="&#x1eaa;" horiz-adv-x="614" 
d="M29 0l250 698h56l250 -698h-45l-80 225h-307l-80 -225h-44zM164 262h284l-140 395h-4zM183 764l-23 18l122 133h50l122 -133l-23 -18l-124 122zM378 949q-20 0 -37.5 8t-40.5 21q-22 14 -37.5 19.5t-29.5 5.5q-17 0 -32 -7.5t-31 -23.5l-18 20q17 20 37.5 32t46.5 12
q20 0 38 -7.5t40 -21.5q22 -13 37.5 -19t29.5 -6q18 0 32.5 8t30.5 23l18 -20q-16 -20 -37 -32t-47 -12z" />
    <glyph glyph-name="uni1EAB" unicode="&#x1eab;" horiz-adv-x="524" 
d="M222 -12q-80 0 -123.5 38.5t-43.5 108.5q0 44 20 77t63.5 51.5t116.5 18.5h129v66q0 70 -34.5 104t-102.5 34q-53 0 -88.5 -22t-56.5 -67l-28 20q21 46 63 75t112 29q86 0 131 -44t45 -124v-317h76v-36h-66q-25 0 -36 12t-13 33v34h-4q-18 -39 -57 -65t-103 -26zM226 23
q43 0 79 14.5t57.5 43t21.5 68.5v101h-129q-82 0 -119 -27.5t-37 -73.5v-27q0 -47 35.5 -73t91.5 -26zM126 588l-23 18l122 133h50l122 -133l-23 -18l-124 122zM321 773q-20 0 -37.5 8t-40.5 21q-22 14 -37.5 19.5t-29.5 5.5q-17 0 -32 -7.5t-31 -23.5l-18 20q17 20 37.5 32
t46.5 12q20 0 38 -7.5t40 -21.5q22 -13 37.5 -19t29.5 -6q18 0 32.5 8t30.5 23l18 -20q-16 -20 -37 -32t-47 -12z" />
    <glyph glyph-name="uni1EAC" unicode="&#x1eac;" horiz-adv-x="614" 
d="M307 -146q-17 0 -24.5 8.5t-7.5 21.5v8q0 12 7.5 20.5t24.5 8.5t24.5 -8.5t7.5 -20.5v-8q0 -13 -7.5 -21.5t-24.5 -8.5zM29 0l250 698h56l250 -698h-45l-80 225h-307l-80 -225h-44zM164 262h284l-140 395h-4zM184 773l-24 18l122 136h50l122 -136l-24 -18l-123 124z" />
    <glyph glyph-name="uni1EAD" unicode="&#x1ead;" horiz-adv-x="524" 
d="M222 -12q-80 0 -123.5 38.5t-43.5 108.5q0 44 20 77t63.5 51.5t116.5 18.5h129v66q0 70 -34.5 104t-102.5 34q-53 0 -88.5 -22t-56.5 -67l-28 20q21 46 63 75t112 29q86 0 131 -44t45 -124v-317h76v-36h-66q-25 0 -36 12t-13 33v34h-4q-18 -39 -57 -65t-103 -26zM226 23
q43 0 79 14.5t57.5 43t21.5 68.5v101h-129q-82 0 -119 -27.5t-37 -73.5v-27q0 -47 35.5 -73t91.5 -26zM127 596l-24 18l122 136h50l122 -136l-24 -18l-123 124zM245 -146q-17 0 -24.5 8.5t-7.5 21.5v8q0 12 7.5 20.5t24.5 8.5t24.5 -8.5t7.5 -20.5v-8q0 -13 -7.5 -21.5
t-24.5 -8.5z" />
    <glyph glyph-name="uni1EAE" unicode="&#x1eae;" horiz-adv-x="614" 
d="M29 0l250 698h56l250 -698h-45l-80 225h-307l-80 -225h-44zM164 262h284l-140 395h-4zM307 768q-40 0 -65.5 15t-42 40.5t-31.5 57.5l26 12l18 -31q20 -35 40 -48.5t55 -13.5t55 13.5t40 48.5l18 31l26 -12q-15 -32 -31.5 -57.5t-41.5 -40.5t-66 -15zM302 874l-26 14
l102 160l36 -20z" />
    <glyph glyph-name="uni1EAF" unicode="&#x1eaf;" horiz-adv-x="524" 
d="M222 -12q-80 0 -123.5 38.5t-43.5 108.5q0 44 20 77t63.5 51.5t116.5 18.5h129v66q0 70 -34.5 104t-102.5 34q-53 0 -88.5 -22t-56.5 -67l-28 20q21 46 63 75t112 29q86 0 131 -44t45 -124v-317h76v-36h-66q-25 0 -36 12t-13 33v34h-4q-18 -39 -57 -65t-103 -26zM226 23
q43 0 79 14.5t57.5 43t21.5 68.5v101h-129q-82 0 -119 -27.5t-37 -73.5v-27q0 -47 35.5 -73t91.5 -26zM251 591q-40 0 -65.5 15t-42 40.5t-31.5 57.5l26 12l18 -31q20 -35 40 -48.5t55 -13.5t55 13.5t40 48.5l18 31l26 -12q-15 -32 -31.5 -57.5t-41.5 -40.5t-66 -15z
M246 697l-26 14l102 160l36 -20z" />
    <glyph glyph-name="uni1EB0" unicode="&#x1eb0;" horiz-adv-x="614" 
d="M29 0l250 698h56l250 -698h-45l-80 225h-307l-80 -225h-44zM164 262h284l-140 395h-4zM307 768q-40 0 -65.5 15t-42 40.5t-31.5 57.5l26 12l18 -31q20 -35 40 -48.5t55 -13.5t55 13.5t40 48.5l18 31l26 -12q-15 -32 -31.5 -57.5t-41.5 -40.5t-66 -15zM312 874l-112 154
l36 20l102 -160z" />
    <glyph glyph-name="uni1EB1" unicode="&#x1eb1;" horiz-adv-x="524" 
d="M222 -12q-80 0 -123.5 38.5t-43.5 108.5q0 44 20 77t63.5 51.5t116.5 18.5h129v66q0 70 -34.5 104t-102.5 34q-53 0 -88.5 -22t-56.5 -67l-28 20q21 46 63 75t112 29q86 0 131 -44t45 -124v-317h76v-36h-66q-25 0 -36 12t-13 33v34h-4q-18 -39 -57 -65t-103 -26zM226 23
q43 0 79 14.5t57.5 43t21.5 68.5v101h-129q-82 0 -119 -27.5t-37 -73.5v-27q0 -47 35.5 -73t91.5 -26zM250 591q-40 0 -65.5 15t-42 40.5t-31.5 57.5l26 12l18 -31q20 -35 40 -48.5t55 -13.5t55 13.5t40 48.5l18 31l26 -12q-15 -32 -31.5 -57.5t-41.5 -40.5t-66 -15z
M255 697l-112 154l36 20l102 -160z" />
    <glyph glyph-name="uni1EB2" unicode="&#x1eb2;" horiz-adv-x="614" 
d="M29 0l250 698h56l250 -698h-45l-80 225h-307l-80 -225h-44zM164 262h284l-140 395h-4zM307 768q-40 0 -65.5 15t-42 40.5t-31.5 57.5l26 12l18 -31q20 -35 40 -48.5t55 -13.5t55 13.5t40 48.5l18 31l26 -12q-15 -32 -31.5 -57.5t-41.5 -40.5t-66 -15zM312 871l-26 13
l72 119h-130v32h123q20 0 29 -9t9 -22q0 -11 -8 -27t-29 -46z" />
    <glyph glyph-name="uni1EB3" unicode="&#x1eb3;" horiz-adv-x="524" 
d="M222 -12q-80 0 -123.5 38.5t-43.5 108.5q0 44 20 77t63.5 51.5t116.5 18.5h129v66q0 70 -34.5 104t-102.5 34q-53 0 -88.5 -22t-56.5 -67l-28 20q21 46 63 75t112 29q86 0 131 -44t45 -124v-317h76v-36h-66q-25 0 -36 12t-13 33v34h-4q-18 -39 -57 -65t-103 -26zM226 23
q43 0 79 14.5t57.5 43t21.5 68.5v101h-129q-82 0 -119 -27.5t-37 -73.5v-27q0 -47 35.5 -73t91.5 -26zM250 591q-40 0 -65.5 15t-42 40.5t-31.5 57.5l26 12l18 -31q20 -35 40 -48.5t55 -13.5t55 13.5t40 48.5l18 31l26 -12q-15 -32 -31.5 -57.5t-41.5 -40.5t-66 -15z
M255 694l-26 13l72 119h-130v32h123q20 0 29 -9t9 -22q0 -11 -8 -27t-29 -46z" />
    <glyph glyph-name="uni1EB4" unicode="&#x1eb4;" horiz-adv-x="614" 
d="M29 0l250 698h56l250 -698h-45l-80 225h-307l-80 -225h-44zM164 262h284l-140 395h-4zM307 768q-40 0 -65.5 15t-42 40.5t-31.5 57.5l26 12l18 -31q20 -35 40 -48.5t55 -13.5t55 13.5t40 48.5l18 31l26 -12q-15 -32 -31.5 -57.5t-41.5 -40.5t-66 -15zM378 943
q-20 0 -37.5 7.5t-40.5 20.5q-22 14 -37.5 20t-29.5 6q-17 0 -32 -8t-31 -23l-18 20q17 20 37.5 31.5t46.5 11.5q20 0 38 -7t40 -21t37.5 -20t29.5 -6q18 0 32.5 8t30.5 23l18 -20q-16 -20 -37 -31.5t-47 -11.5z" />
    <glyph glyph-name="uni1EB5" unicode="&#x1eb5;" horiz-adv-x="524" 
d="M222 -12q-80 0 -123.5 38.5t-43.5 108.5q0 44 20 77t63.5 51.5t116.5 18.5h129v66q0 70 -34.5 104t-102.5 34q-53 0 -88.5 -22t-56.5 -67l-28 20q21 46 63 75t112 29q86 0 131 -44t45 -124v-317h76v-36h-66q-25 0 -36 12t-13 33v34h-4q-18 -39 -57 -65t-103 -26zM226 23
q43 0 79 14.5t57.5 43t21.5 68.5v101h-129q-82 0 -119 -27.5t-37 -73.5v-27q0 -47 35.5 -73t91.5 -26zM250 591q-40 0 -65.5 15t-42 40.5t-31.5 57.5l26 12l18 -31q20 -35 40 -48.5t55 -13.5t55 13.5t40 48.5l18 31l26 -12q-15 -32 -31.5 -57.5t-41.5 -40.5t-66 -15z
M321 766q-20 0 -37.5 7.5t-40.5 20.5q-22 14 -37.5 20t-29.5 6q-17 0 -32 -8t-31 -23l-18 20q17 20 37.5 31.5t46.5 11.5q20 0 38 -7t40 -21t37.5 -20t29.5 -6q18 0 32.5 8t30.5 23l18 -20q-16 -20 -37 -31.5t-47 -11.5z" />
    <glyph glyph-name="uni1EB6" unicode="&#x1eb6;" horiz-adv-x="614" 
d="M29 0l250 698h56l250 -698h-45l-80 225h-307l-80 -225h-44zM164 262h284l-140 395h-4zM307 779q-30 0 -51.5 9.5t-36.5 25.5t-27 38t-24 47l26 12l17 -29q22 -39 41.5 -54t54.5 -15t54.5 15t41.5 54l17 29l26 -12q-15 -33 -32 -60.5t-41.5 -43.5t-65.5 -16zM307 -146
q-17 0 -24.5 8.5t-7.5 21.5v8q0 12 7.5 20.5t24.5 8.5t24.5 -8.5t7.5 -20.5v-8q0 -13 -7.5 -21.5t-24.5 -8.5z" />
    <glyph glyph-name="uni1EB7" unicode="&#x1eb7;" horiz-adv-x="524" 
d="M222 -12q-80 0 -123.5 38.5t-43.5 108.5q0 44 20 77t63.5 51.5t116.5 18.5h129v66q0 70 -34.5 104t-102.5 34q-53 0 -88.5 -22t-56.5 -67l-28 20q21 46 63 75t112 29q86 0 131 -44t45 -124v-317h76v-36h-66q-25 0 -36 12t-13 33v34h-4q-18 -39 -57 -65t-103 -26zM226 23
q43 0 79 14.5t57.5 43t21.5 68.5v101h-129q-82 0 -119 -27.5t-37 -73.5v-27q0 -47 35.5 -73t91.5 -26zM250 603q-30 0 -51.5 9t-36.5 25.5t-27 38t-24 46.5l26 12l17 -29q22 -38 41.5 -53.5t54.5 -15.5t54.5 15.5t41.5 53.5l17 29l26 -12q-12 -25 -24 -46.5t-27 -38
t-36 -25.5t-52 -9zM245 -146q-17 0 -24.5 8.5t-7.5 21.5v8q0 12 7.5 20.5t24.5 8.5t24.5 -8.5t7.5 -20.5v-8q0 -13 -7.5 -21.5t-24.5 -8.5z" />
    <glyph glyph-name="uni1EB8" unicode="&#x1eb8;" horiz-adv-x="568" 
d="M103 0v698h396v-38h-353v-287h338v-38h-338v-297h353v-38h-396zM301 -146q-17 0 -24.5 8.5t-7.5 21.5v8q0 12 7.5 20.5t24.5 8.5t24.5 -8.5t7.5 -20.5v-8q0 -13 -7.5 -21.5t-24.5 -8.5z" />
    <glyph glyph-name="uni1EB9" unicode="&#x1eb9;" horiz-adv-x="538" 
d="M274 -12q-67 0 -116 31t-75.5 90.5t-26.5 145.5q0 85 26 144.5t74.5 90.5t115.5 31q63 0 110.5 -31t74 -87.5t26.5 -133.5v-19h-384v-26q0 -90 46.5 -145t130.5 -55q59 0 100.5 28.5t63.5 83.5l31 -18q-23 -59 -73.5 -94.5t-123.5 -35.5zM99 283h340v6q0 60 -21 104
t-58.5 68.5t-87.5 24.5q-54 0 -93 -24.5t-59.5 -69.5t-20.5 -106v-3zM277 -146q-17 0 -24.5 8.5t-7.5 21.5v8q0 12 7.5 20.5t24.5 8.5t24.5 -8.5t7.5 -20.5v-8q0 -13 -7.5 -21.5t-24.5 -8.5z" />
    <glyph glyph-name="uni1EBA" unicode="&#x1eba;" horiz-adv-x="568" 
d="M103 0v698h396v-38h-353v-287h338v-38h-338v-297h353v-38h-396zM311 759l-26 13l71 119h-133v32h127q20 0 29.5 -8.5t9.5 -21.5q0 -11 -8 -27t-29 -46z" />
    <glyph glyph-name="uni1EBB" unicode="&#x1ebb;" horiz-adv-x="538" 
d="M274 -12q-67 0 -116 31t-75.5 90.5t-26.5 145.5q0 85 26 144.5t74.5 90.5t115.5 31q63 0 110.5 -31t74 -87.5t26.5 -133.5v-19h-384v-26q0 -90 46.5 -145t130.5 -55q59 0 100.5 28.5t63.5 83.5l31 -18q-23 -59 -73.5 -94.5t-123.5 -35.5zM99 283h340v6q0 60 -21 104
t-58.5 68.5t-87.5 24.5q-54 0 -93 -24.5t-59.5 -69.5t-20.5 -106v-3zM283 587l-26 13l71 119h-133v32h127q20 0 29.5 -8.5t9.5 -21.5q0 -11 -8 -27t-29 -46z" />
    <glyph glyph-name="uni1EBC" unicode="&#x1ebc;" horiz-adv-x="568" 
d="M103 0v698h396v-38h-353v-287h338v-38h-338v-297h353v-38h-396zM373 799q-20 0 -38 8t-40 21q-23 14 -38.5 19.5t-29.5 5.5q-17 0 -32 -7.5t-30 -23.5l-19 22q16 20 37 31.5t46 11.5q20 0 38 -7t40 -21q23 -14 38.5 -20t29.5 -6q17 0 32 8t30 23l19 -21q-16 -20 -37 -32
t-46 -12z" />
    <glyph glyph-name="uni1EBD" unicode="&#x1ebd;" horiz-adv-x="538" 
d="M274 -12q-67 0 -116 31t-75.5 90.5t-26.5 145.5q0 85 26 144.5t74.5 90.5t115.5 31q63 0 110.5 -31t74 -87.5t26.5 -133.5v-19h-384v-26q0 -90 46.5 -145t130.5 -55q59 0 100.5 28.5t63.5 83.5l31 -18q-23 -59 -73.5 -94.5t-123.5 -35.5zM99 283h340v6q0 60 -21 104
t-58.5 68.5t-87.5 24.5q-54 0 -93 -24.5t-59.5 -69.5t-20.5 -106v-3zM343 623q-20 0 -38 7.5t-40 20.5q-23 14 -38.5 20t-29.5 6q-17 0 -32 -8t-30 -23l-19 21q16 20 37 32t46 12q20 0 38 -7.5t40 -21.5q23 -14 38.5 -19.5t29.5 -5.5q17 0 32 8t30 23l19 -22
q-16 -20 -37 -31.5t-46 -11.5z" />
    <glyph glyph-name="uni1EBE" unicode="&#x1ebe;" horiz-adv-x="568" 
d="M103 0v698h396v-38h-353v-287h338v-38h-338v-297h353v-38h-396zM177 764l-23 18l122 133h50l122 -133l-23 -18l-124 122zM428 874l-26 14l102 160l36 -20z" />
    <glyph glyph-name="uni1EBF" unicode="&#x1ebf;" horiz-adv-x="538" 
d="M274 -12q-67 0 -116 31t-75.5 90.5t-26.5 145.5q0 85 26 144.5t74.5 90.5t115.5 31q63 0 110.5 -31t74 -87.5t26.5 -133.5v-19h-384v-26q0 -90 46.5 -145t130.5 -55q59 0 100.5 28.5t63.5 83.5l31 -18q-23 -59 -73.5 -94.5t-123.5 -35.5zM99 283h340v6q0 60 -21 104
t-58.5 68.5t-87.5 24.5q-54 0 -93 -24.5t-59.5 -69.5t-20.5 -106v-3zM148 588l-23 18l122 133h50l122 -133l-23 -18l-124 122zM399 698l-26 14l102 160l36 -20z" />
    <glyph glyph-name="uni1EC0" unicode="&#x1ec0;" horiz-adv-x="568" 
d="M103 0v698h396v-38h-353v-287h338v-38h-338v-297h353v-38h-396zM177 764l-23 18l122 133h50l122 -133l-23 -18l-124 122zM174 874l-112 154l36 20l102 -160z" />
    <glyph glyph-name="uni1EC1" unicode="&#x1ec1;" horiz-adv-x="538" 
d="M274 -12q-67 0 -116 31t-75.5 90.5t-26.5 145.5q0 85 26 144.5t74.5 90.5t115.5 31q63 0 110.5 -31t74 -87.5t26.5 -133.5v-19h-384v-26q0 -90 46.5 -145t130.5 -55q59 0 100.5 28.5t63.5 83.5l31 -18q-23 -59 -73.5 -94.5t-123.5 -35.5zM99 283h340v6q0 60 -21 104
t-58.5 68.5t-87.5 24.5q-54 0 -93 -24.5t-59.5 -69.5t-20.5 -106v-3zM148 587l-23 18l122 133h50l122 -133l-23 -18l-124 122zM145 697l-112 154l36 20l102 -160z" />
    <glyph glyph-name="uni1EC2" unicode="&#x1ec2;" horiz-adv-x="568" 
d="M103 0v698h396v-38h-353v-287h338v-38h-338v-297h353v-38h-396zM177 764l-23 18l122 133h50l122 -133l-23 -18l-124 122zM432 871l-25 13l71 119h-134v32h127q20 0 29.5 -9t9.5 -22q0 -11 -8 -27t-29 -46z" />
    <glyph glyph-name="uni1EC3" unicode="&#x1ec3;" horiz-adv-x="538" 
d="M274 -12q-67 0 -116 31t-75.5 90.5t-26.5 145.5q0 85 26 144.5t74.5 90.5t115.5 31q63 0 110.5 -31t74 -87.5t26.5 -133.5v-19h-384v-26q0 -90 46.5 -145t130.5 -55q59 0 100.5 28.5t63.5 83.5l31 -18q-23 -59 -73.5 -94.5t-123.5 -35.5zM99 283h340v6q0 60 -21 104
t-58.5 68.5t-87.5 24.5q-54 0 -93 -24.5t-59.5 -69.5t-20.5 -106v-3zM148 587l-23 18l122 133h50l122 -133l-23 -18l-124 122zM403 694l-25 13l71 119h-134v32h127q20 0 29.5 -9t9.5 -22q0 -11 -8 -27t-29 -46z" />
    <glyph glyph-name="uni1EC4" unicode="&#x1ec4;" horiz-adv-x="568" 
d="M103 0v698h396v-38h-353v-287h338v-38h-338v-297h353v-38h-396zM177 764l-23 18l122 133h50l122 -133l-23 -18l-124 122zM372 949q-20 0 -37.5 8t-40.5 21q-22 14 -37.5 19.5t-29.5 5.5q-17 0 -32 -7.5t-31 -23.5l-18 20q17 20 37.5 32t46.5 12q20 0 38 -7.5t40 -21.5
q22 -13 37.5 -19t29.5 -6q18 0 32.5 8t30.5 23l18 -20q-16 -20 -37 -32t-47 -12z" />
    <glyph glyph-name="uni1EC5" unicode="&#x1ec5;" horiz-adv-x="538" 
d="M274 -12q-67 0 -116 31t-75.5 90.5t-26.5 145.5q0 85 26 144.5t74.5 90.5t115.5 31q63 0 110.5 -31t74 -87.5t26.5 -133.5v-19h-384v-26q0 -90 46.5 -145t130.5 -55q59 0 100.5 28.5t63.5 83.5l31 -18q-23 -59 -73.5 -94.5t-123.5 -35.5zM99 283h340v6q0 60 -21 104
t-58.5 68.5t-87.5 24.5q-54 0 -93 -24.5t-59.5 -69.5t-20.5 -106v-3zM148 588l-23 18l122 133h50l122 -133l-23 -18l-124 122zM343 773q-20 0 -37.5 8t-40.5 21q-22 14 -37.5 19.5t-29.5 5.5q-17 0 -32 -7.5t-31 -23.5l-18 20q17 20 37.5 32t46.5 12q20 0 38 -7.5t40 -21.5
q22 -13 37.5 -19t29.5 -6q18 0 32.5 8t30.5 23l18 -20q-16 -20 -37 -32t-47 -12z" />
    <glyph glyph-name="uni1EC6" unicode="&#x1ec6;" horiz-adv-x="568" 
d="M103 0v698h396v-38h-353v-287h338v-38h-338v-297h353v-38h-396zM178 773l-24 18l122 136h50l122 -136l-24 -18l-123 124zM301 -146q-17 0 -24.5 8.5t-7.5 21.5v8q0 12 7.5 20.5t24.5 8.5t24.5 -8.5t7.5 -20.5v-8q0 -13 -7.5 -21.5t-24.5 -8.5z" />
    <glyph glyph-name="uni1EC7" unicode="&#x1ec7;" horiz-adv-x="538" 
d="M274 -12q-67 0 -116 31t-75.5 90.5t-26.5 145.5q0 85 26 144.5t74.5 90.5t115.5 31q63 0 110.5 -31t74 -87.5t26.5 -133.5v-19h-384v-26q0 -90 46.5 -145t130.5 -55q59 0 100.5 28.5t63.5 83.5l31 -18q-23 -59 -73.5 -94.5t-123.5 -35.5zM99 283h340v6q0 60 -21 104
t-58.5 68.5t-87.5 24.5q-54 0 -93 -24.5t-59.5 -69.5t-20.5 -106v-3zM148 596l-24 18l122 136h50l122 -136l-24 -18l-123 124zM277 -146q-17 0 -24.5 8.5t-7.5 21.5v8q0 12 7.5 20.5t24.5 8.5t24.5 -8.5t7.5 -20.5v-8q0 -13 -7.5 -21.5t-24.5 -8.5z" />
    <glyph glyph-name="uni1EC8" unicode="&#x1ec8;" horiz-adv-x="381" 
d="M65 0v36h104v626h-104v36h251v-36h-104v-626h104v-36h-251zM201 759l-26 13l71 119h-133v32h127q20 0 29.5 -8.5t9.5 -21.5q0 -11 -8 -27t-29 -46z" />
    <glyph glyph-name="uni1EC9" unicode="&#x1ec9;" horiz-adv-x="237" 
d="M98 0v509h41v-509h-41zM129 601l-26 13l71 119h-133v32h127q20 0 29.5 -8.5t9.5 -21.5q0 -11 -8 -27t-29 -46z" />
    <glyph glyph-name="uni1ECA" unicode="&#x1eca;" horiz-adv-x="381" 
d="M65 0v36h104v626h-104v36h251v-36h-104v-626h104v-36h-251zM191 -146q-17 0 -24.5 8.5t-7.5 21.5v8q0 12 7.5 20.5t24.5 8.5t24.5 -8.5t7.5 -20.5v-8q0 -13 -7.5 -21.5t-24.5 -8.5z" />
    <glyph glyph-name="uni1ECB" unicode="&#x1ecb;" horiz-adv-x="237" 
d="M98 0v509h41v-509h-41zM118 661q-17 0 -24 8.5t-7 20.5v9q0 12 7 20.5t24 8.5q18 0 25 -8.5t7 -20.5v-9q0 -12 -7 -20.5t-25 -8.5zM119 -146q-17 0 -24.5 8.5t-7.5 21.5v8q0 12 7.5 20.5t24.5 8.5t24.5 -8.5t7.5 -20.5v-8q0 -13 -7.5 -21.5t-24.5 -8.5z" />
    <glyph glyph-name="uni1ECC" unicode="&#x1ecc;" horiz-adv-x="689" 
d="M345 -12q-88 0 -150.5 41t-95.5 121t-33 199t33 199.5t95.5 121t150.5 40.5t150 -40.5t95 -121t33 -199.5t-33 -199t-95 -121t-150 -41zM345 26q71 0 123 33.5t80.5 98.5t28.5 158v66q0 94 -28.5 158.5t-80.5 98t-123 33.5t-123.5 -33.5t-81 -98t-28.5 -158.5v-66
q0 -93 28.5 -158t81 -98.5t123.5 -33.5zM345 -146q-17 0 -24.5 8.5t-7.5 21.5v8q0 12 7.5 20.5t24.5 8.5t24.5 -8.5t7.5 -20.5v-8q0 -13 -7.5 -21.5t-24.5 -8.5z" />
    <glyph glyph-name="uni1ECD" unicode="&#x1ecd;" horiz-adv-x="547" 
d="M273 -12q-67 0 -115.5 31t-75 90.5t-26.5 145.5t26.5 145t75 90t115.5 31t116 -31t75.5 -90t26.5 -145t-26.5 -145.5t-75.5 -90.5t-116 -31zM273 24q82 0 128 53.5t46 148.5v57q0 95 -46 148.5t-128 53.5q-81 0 -127 -53.5t-46 -148.5v-57q0 -95 46 -148.5t127 -53.5z
M273 -146q-17 0 -24.5 8.5t-7.5 21.5v8q0 12 7.5 20.5t24.5 8.5t24.5 -8.5t7.5 -20.5v-8q0 -13 -7.5 -21.5t-24.5 -8.5z" />
    <glyph glyph-name="uni1ECE" unicode="&#x1ece;" horiz-adv-x="689" 
d="M345 -12q-88 0 -150.5 41t-95.5 121t-33 199t33 199.5t95.5 121t150.5 40.5t150 -40.5t95 -121t33 -199.5t-33 -199t-95 -121t-150 -41zM345 26q71 0 123 33.5t80.5 98.5t28.5 158v66q0 94 -28.5 158.5t-80.5 98t-123 33.5t-123.5 -33.5t-81 -98t-28.5 -158.5v-66
q0 -93 28.5 -158t81 -98.5t123.5 -33.5zM355 759l-26 13l71 119h-133v32h127q20 0 29.5 -8.5t9.5 -21.5q0 -11 -8 -27t-29 -46z" />
    <glyph glyph-name="uni1ECF" unicode="&#x1ecf;" horiz-adv-x="547" 
d="M273 -12q-67 0 -115.5 31t-75 90.5t-26.5 145.5t26.5 145t75 90t115.5 31t116 -31t75.5 -90t26.5 -145t-26.5 -145.5t-75.5 -90.5t-116 -31zM273 24q82 0 128 53.5t46 148.5v57q0 95 -46 148.5t-128 53.5q-81 0 -127 -53.5t-46 -148.5v-57q0 -95 46 -148.5t127 -53.5z
M284 585l-26 13l71 119h-133v32h127q20 0 29.5 -8.5t9.5 -21.5q0 -11 -8 -27t-29 -46z" />
    <glyph glyph-name="uni1ED0" unicode="&#x1ed0;" horiz-adv-x="689" 
d="M345 -12q-88 0 -150.5 41t-95.5 121t-33 199t33 199.5t95.5 121t150.5 40.5t150 -40.5t95 -121t33 -199.5t-33 -199t-95 -121t-150 -41zM345 26q71 0 123 33.5t80.5 98.5t28.5 158v66q0 94 -28.5 158.5t-80.5 98t-123 33.5t-123.5 -33.5t-81 -98t-28.5 -158.5v-66
q0 -93 28.5 -158t81 -98.5t123.5 -33.5zM221 764l-23 18l122 133h50l122 -133l-23 -18l-124 122zM472 874l-26 14l102 160l36 -20z" />
    <glyph glyph-name="uni1ED1" unicode="&#x1ed1;" horiz-adv-x="547" 
d="M273 -12q-67 0 -115.5 31t-75 90.5t-26.5 145.5t26.5 145t75 90t115.5 31t116 -31t75.5 -90t26.5 -145t-26.5 -145.5t-75.5 -90.5t-116 -31zM273 24q82 0 128 53.5t46 148.5v57q0 95 -46 148.5t-128 53.5q-81 0 -127 -53.5t-46 -148.5v-57q0 -95 46 -148.5t127 -53.5z
M149 591l-23 18l122 133h50l122 -133l-23 -18l-124 122zM400 701l-26 14l102 160l36 -20z" />
    <glyph glyph-name="uni1ED2" unicode="&#x1ed2;" horiz-adv-x="689" 
d="M345 -12q-88 0 -150.5 41t-95.5 121t-33 199t33 199.5t95.5 121t150.5 40.5t150 -40.5t95 -121t33 -199.5t-33 -199t-95 -121t-150 -41zM345 26q71 0 123 33.5t80.5 98.5t28.5 158v66q0 94 -28.5 158.5t-80.5 98t-123 33.5t-123.5 -33.5t-81 -98t-28.5 -158.5v-66
q0 -93 28.5 -158t81 -98.5t123.5 -33.5zM221 764l-23 18l122 133h50l122 -133l-23 -18l-124 122zM218 874l-112 154l36 20l102 -160z" />
    <glyph glyph-name="uni1ED3" unicode="&#x1ed3;" horiz-adv-x="547" 
d="M273 -12q-67 0 -115.5 31t-75 90.5t-26.5 145.5t26.5 145t75 90t115.5 31t116 -31t75.5 -90t26.5 -145t-26.5 -145.5t-75.5 -90.5t-116 -31zM273 24q82 0 128 53.5t46 148.5v57q0 95 -46 148.5t-128 53.5q-81 0 -127 -53.5t-46 -148.5v-57q0 -95 46 -148.5t127 -53.5z
M149 584l-23 18l122 133h50l122 -133l-23 -18l-124 122zM146 694l-112 154l36 20l102 -160z" />
    <glyph glyph-name="uni1ED4" unicode="&#x1ed4;" horiz-adv-x="689" 
d="M345 -12q-88 0 -150.5 41t-95.5 121t-33 199t33 199.5t95.5 121t150.5 40.5t150 -40.5t95 -121t33 -199.5t-33 -199t-95 -121t-150 -41zM345 26q71 0 123 33.5t80.5 98.5t28.5 158v66q0 94 -28.5 158.5t-80.5 98t-123 33.5t-123.5 -33.5t-81 -98t-28.5 -158.5v-66
q0 -93 28.5 -158t81 -98.5t123.5 -33.5zM221 764l-23 18l122 133h50l122 -133l-23 -18l-124 122zM476 871l-25 13l71 119h-134v32h127q20 0 29.5 -9t9.5 -22q0 -11 -8 -27t-29 -46z" />
    <glyph glyph-name="uni1ED5" unicode="&#x1ed5;" horiz-adv-x="547" 
d="M273 -12q-67 0 -115.5 31t-75 90.5t-26.5 145.5t26.5 145t75 90t115.5 31t116 -31t75.5 -90t26.5 -145t-26.5 -145.5t-75.5 -90.5t-116 -31zM273 24q82 0 128 53.5t46 148.5v57q0 95 -46 148.5t-128 53.5q-81 0 -127 -53.5t-46 -148.5v-57q0 -95 46 -148.5t127 -53.5z
M149 584l-23 18l122 133h50l122 -133l-23 -18l-124 122zM404 691l-25 13l71 119h-134v32h127q20 0 29.5 -9t9.5 -22q0 -11 -8 -27t-29 -46z" />
    <glyph glyph-name="uni1ED6" unicode="&#x1ed6;" horiz-adv-x="689" 
d="M345 -12q-88 0 -150.5 41t-95.5 121t-33 199t33 199.5t95.5 121t150.5 40.5t150 -40.5t95 -121t33 -199.5t-33 -199t-95 -121t-150 -41zM345 26q71 0 123 33.5t80.5 98.5t28.5 158v66q0 94 -28.5 158.5t-80.5 98t-123 33.5t-123.5 -33.5t-81 -98t-28.5 -158.5v-66
q0 -93 28.5 -158t81 -98.5t123.5 -33.5zM221 764l-23 18l122 133h50l122 -133l-23 -18l-124 122zM416 949q-20 0 -37.5 8t-40.5 21q-22 14 -37.5 19.5t-29.5 5.5q-17 0 -32 -7.5t-31 -23.5l-18 20q17 20 37.5 32t46.5 12q20 0 38 -7.5t40 -21.5q22 -13 37.5 -19t29.5 -6
q18 0 32.5 8t30.5 23l18 -20q-16 -20 -37 -32t-47 -12z" />
    <glyph glyph-name="uni1ED7" unicode="&#x1ed7;" horiz-adv-x="547" 
d="M273 -12q-67 0 -115.5 31t-75 90.5t-26.5 145.5t26.5 145t75 90t115.5 31t116 -31t75.5 -90t26.5 -145t-26.5 -145.5t-75.5 -90.5t-116 -31zM273 24q82 0 128 53.5t46 148.5v57q0 95 -46 148.5t-128 53.5q-81 0 -127 -53.5t-46 -148.5v-57q0 -95 46 -148.5t127 -53.5z
M149 583l-23 18l122 133h50l122 -133l-23 -18l-124 122zM344 768q-20 0 -37.5 8t-40.5 21q-22 14 -37.5 19.5t-29.5 5.5q-17 0 -32 -7.5t-31 -23.5l-18 20q17 20 37.5 32t46.5 12q20 0 38 -7.5t40 -21.5q22 -13 37.5 -19t29.5 -6q18 0 32.5 8t30.5 23l18 -20
q-16 -20 -37 -32t-47 -12z" />
    <glyph glyph-name="uni1ED8" unicode="&#x1ed8;" horiz-adv-x="689" 
d="M345 -12q-88 0 -150.5 41t-95.5 121t-33 199t33 199.5t95.5 121t150.5 40.5t150 -40.5t95 -121t33 -199.5t-33 -199t-95 -121t-150 -41zM345 26q71 0 123 33.5t80.5 98.5t28.5 158v66q0 94 -28.5 158.5t-80.5 98t-123 33.5t-123.5 -33.5t-81 -98t-28.5 -158.5v-66
q0 -93 28.5 -158t81 -98.5t123.5 -33.5zM222 773l-24 18l122 136h50l122 -136l-24 -18l-123 124zM345 -146q-17 0 -24.5 8.5t-7.5 21.5v8q0 12 7.5 20.5t24.5 8.5t24.5 -8.5t7.5 -20.5v-8q0 -13 -7.5 -21.5t-24.5 -8.5z" />
    <glyph glyph-name="uni1ED9" unicode="&#x1ed9;" horiz-adv-x="547" 
d="M273 -12q-67 0 -115.5 31t-75 90.5t-26.5 145.5t26.5 145t75 90t115.5 31t116 -31t75.5 -90t26.5 -145t-26.5 -145.5t-75.5 -90.5t-116 -31zM273 24q82 0 128 53.5t46 148.5v57q0 95 -46 148.5t-128 53.5q-81 0 -127 -53.5t-46 -148.5v-57q0 -95 46 -148.5t127 -53.5z
M150 595l-24 18l122 136h50l122 -136l-24 -18l-123 124zM273 -146q-17 0 -24.5 8.5t-7.5 21.5v8q0 12 7.5 20.5t24.5 8.5t24.5 -8.5t7.5 -20.5v-8q0 -13 -7.5 -21.5t-24.5 -8.5z" />
    <glyph glyph-name="uni1EDA" unicode="&#x1eda;" horiz-adv-x="689" 
d="M345 -12q-88 0 -150.5 41t-95.5 121t-33 199t33 199.5t95.5 121t150.5 40.5q25 0 46 -2.5t42 -9.5h154v113h37v-102q0 -19 -9 -29.5t-31 -10.5h-91q65 -43 97.5 -121t32.5 -199q0 -119 -33 -199t-95 -121t-150 -41zM345 26q71 0 123 33.5t80.5 98.5t28.5 158v66
q0 94 -28.5 158.5t-80.5 98t-123 33.5t-123.5 -33.5t-81 -98t-28.5 -158.5v-66q0 -93 28.5 -158t81 -98.5t123.5 -33.5zM335 763l-27 15l102 159l37 -20z" />
    <glyph glyph-name="uni1EDB" unicode="&#x1edb;" horiz-adv-x="547" 
d="M273 -12q-67 0 -115.5 31t-75 90.5t-26.5 145.5t26.5 145t75 90t115.5 31q17 0 38 -2.5t40 -9.5h99v105h37v-93q0 -19 -9 -29.5t-31 -10.5h-46q44 -33 67 -90t23 -136q0 -86 -26.5 -145.5t-75.5 -90.5t-116 -31zM273 24q82 0 128 53.5t46 148.5v57q0 95 -46 148.5
t-128 53.5q-81 0 -127 -53.5t-46 -148.5v-57q0 -95 46 -148.5t127 -53.5zM263 586l-27 15l102 159l37 -19z" />
    <glyph glyph-name="uni1EDC" unicode="&#x1edc;" horiz-adv-x="689" 
d="M345 -12q-88 0 -150.5 41t-95.5 121t-33 199t33 199.5t95.5 121t150.5 40.5q25 0 46 -2.5t42 -9.5h154v113h37v-102q0 -19 -9 -29.5t-31 -10.5h-91q65 -43 97.5 -121t32.5 -199q0 -119 -33 -199t-95 -121t-150 -41zM345 26q71 0 123 33.5t80.5 98.5t28.5 158v66
q0 94 -28.5 158.5t-80.5 98t-123 33.5t-123.5 -33.5t-81 -98t-28.5 -158.5v-66q0 -93 28.5 -158t81 -98.5t123.5 -33.5zM354 763l-112 154l37 20l102 -159z" />
    <glyph glyph-name="uni1EDD" unicode="&#x1edd;" horiz-adv-x="547" 
d="M273 -12q-67 0 -115.5 31t-75 90.5t-26.5 145.5t26.5 145t75 90t115.5 31q17 0 38 -2.5t40 -9.5h99v105h37v-93q0 -19 -9 -29.5t-31 -10.5h-46q44 -33 67 -90t23 -136q0 -86 -26.5 -145.5t-75.5 -90.5t-116 -31zM273 24q82 0 128 53.5t46 148.5v57q0 95 -46 148.5
t-128 53.5q-81 0 -127 -53.5t-46 -148.5v-57q0 -95 46 -148.5t127 -53.5zM282 586l-112 155l37 19l102 -159z" />
    <glyph glyph-name="uni1EDE" unicode="&#x1ede;" horiz-adv-x="689" 
d="M345 -12q-88 0 -150.5 41t-95.5 121t-33 199t33 199.5t95.5 121t150.5 40.5q25 0 46 -2.5t42 -9.5h154v113h37v-102q0 -19 -9 -29.5t-31 -10.5h-91q65 -43 97.5 -121t32.5 -199q0 -119 -33 -199t-95 -121t-150 -41zM345 26q71 0 123 33.5t80.5 98.5t28.5 158v66
q0 94 -28.5 158.5t-80.5 98t-123 33.5t-123.5 -33.5t-81 -98t-28.5 -158.5v-66q0 -93 28.5 -158t81 -98.5t123.5 -33.5zM355 759l-26 13l71 119h-133v32h127q20 0 29.5 -8.5t9.5 -21.5q0 -11 -8 -27t-29 -46z" />
    <glyph glyph-name="uni1EDF" unicode="&#x1edf;" horiz-adv-x="547" 
d="M273 -12q-67 0 -115.5 31t-75 90.5t-26.5 145.5t26.5 145t75 90t115.5 31q17 0 38 -2.5t40 -9.5h99v105h37v-93q0 -19 -9 -29.5t-31 -10.5h-46q44 -33 67 -90t23 -136q0 -86 -26.5 -145.5t-75.5 -90.5t-116 -31zM273 24q82 0 128 53.5t46 148.5v57q0 95 -46 148.5
t-128 53.5q-81 0 -127 -53.5t-46 -148.5v-57q0 -95 46 -148.5t127 -53.5zM284 586l-26 13l71 119h-133v32h127q20 0 29.5 -8.5t9.5 -21.5q0 -11 -8 -27t-29 -46z" />
    <glyph glyph-name="uni1EE0" unicode="&#x1ee0;" horiz-adv-x="689" 
d="M345 -12q-88 0 -150.5 41t-95.5 121t-33 199t33 199.5t95.5 121t150.5 40.5q25 0 46 -2.5t42 -9.5h154v113h37v-102q0 -19 -9 -29.5t-31 -10.5h-91q65 -43 97.5 -121t32.5 -199q0 -119 -33 -199t-95 -121t-150 -41zM345 26q71 0 123 33.5t80.5 98.5t28.5 158v66
q0 94 -28.5 158.5t-80.5 98t-123 33.5t-123.5 -33.5t-81 -98t-28.5 -158.5v-66q0 -93 28.5 -158t81 -98.5t123.5 -33.5zM413 801q-19 0 -35.5 7t-38.5 20q-21 13 -35 18.5t-28 5.5q-18 0 -32.5 -7.5t-30.5 -23.5l-19 21q17 20 37.5 32t45.5 12q19 0 36 -7t38 -20t35.5 -18.5
t27.5 -5.5q18 0 32.5 8t30.5 23l19 -22q-17 -20 -37.5 -31.5t-45.5 -11.5z" />
    <glyph glyph-name="uni1EE1" unicode="&#x1ee1;" horiz-adv-x="547" 
d="M273 -12q-67 0 -115.5 31t-75 90.5t-26.5 145.5t26.5 145t75 90t115.5 31q17 0 38 -2.5t40 -9.5h99v105h37v-93q0 -19 -9 -29.5t-31 -10.5h-46q44 -33 67 -90t23 -136q0 -86 -26.5 -145.5t-75.5 -90.5t-116 -31zM273 24q82 0 128 53.5t46 148.5v57q0 95 -46 148.5
t-128 53.5q-81 0 -127 -53.5t-46 -148.5v-57q0 -95 46 -148.5t127 -53.5zM341 624q-19 0 -35.5 7t-38.5 20q-21 13 -35 18.5t-28 5.5q-18 0 -32.5 -7.5t-30.5 -23.5l-19 22q17 20 37.5 31.5t45.5 11.5q19 0 36 -6.5t38 -20.5q21 -13 35.5 -18.5t27.5 -5.5q18 0 32.5 8
t30.5 23l19 -21q-17 -20 -37.5 -32t-45.5 -12z" />
    <glyph glyph-name="uni1EE2" unicode="&#x1ee2;" horiz-adv-x="689" 
d="M345 -12q-88 0 -150.5 41t-95.5 121t-33 199t33 199.5t95.5 121t150.5 40.5q25 0 46 -2.5t42 -9.5h154v113h37v-102q0 -19 -9 -29.5t-31 -10.5h-91q65 -43 97.5 -121t32.5 -199q0 -119 -33 -199t-95 -121t-150 -41zM345 26q71 0 123 33.5t80.5 98.5t28.5 158v66
q0 94 -28.5 158.5t-80.5 98t-123 33.5t-123.5 -33.5t-81 -98t-28.5 -158.5v-66q0 -93 28.5 -158t81 -98.5t123.5 -33.5zM345 -146q-17 0 -24.5 8.5t-7.5 21.5v8q0 12 7.5 20.5t24.5 8.5t24.5 -8.5t7.5 -20.5v-8q0 -13 -7.5 -21.5t-24.5 -8.5z" />
    <glyph glyph-name="uni1EE3" unicode="&#x1ee3;" horiz-adv-x="547" 
d="M273 -12q-67 0 -115.5 31t-75 90.5t-26.5 145.5t26.5 145t75 90t115.5 31q17 0 38 -2.5t40 -9.5h99v105h37v-93q0 -19 -9 -29.5t-31 -10.5h-46q44 -33 67 -90t23 -136q0 -86 -26.5 -145.5t-75.5 -90.5t-116 -31zM273 24q82 0 128 53.5t46 148.5v57q0 95 -46 148.5
t-128 53.5q-81 0 -127 -53.5t-46 -148.5v-57q0 -95 46 -148.5t127 -53.5zM273 -146q-17 0 -24.5 8.5t-7.5 21.5v8q0 12 7.5 20.5t24.5 8.5t24.5 -8.5t7.5 -20.5v-8q0 -13 -7.5 -21.5t-24.5 -8.5z" />
    <glyph glyph-name="uni1EE4" unicode="&#x1ee4;" horiz-adv-x="661" 
d="M329 -12q-87 0 -138 29t-73 92.5t-22 165.5v423h43v-431q0 -85 17.5 -138t59.5 -78t114 -25q73 0 115 25t59.5 78t17.5 138v431h43v-423q0 -102 -22.5 -165.5t-74.5 -92.5t-139 -29zM330 -146q-17 0 -24.5 8.5t-7.5 21.5v8q0 12 7.5 20.5t24.5 8.5t24.5 -8.5t7.5 -20.5
v-8q0 -13 -7.5 -21.5t-24.5 -8.5z" />
    <glyph glyph-name="uni1EE5" unicode="&#x1ee5;" horiz-adv-x="559" 
d="M263 -12q-83 0 -128.5 50t-45.5 144v327h41v-319q0 -85 37 -125t106 -40q38 0 71.5 13.5t54.5 41t21 69.5v360h41v-509h-41v79h-3q-14 -35 -50.5 -63t-103.5 -28zM271 -146q-17 0 -24.5 8.5t-7.5 21.5v8q0 12 7.5 20.5t24.5 8.5t24.5 -8.5t7.5 -20.5v-8q0 -13 -7.5 -21.5
t-24.5 -8.5z" />
    <glyph glyph-name="uni1EE6" unicode="&#x1ee6;" horiz-adv-x="661" 
d="M329 -12q-87 0 -138 29t-73 92.5t-22 165.5v423h43v-431q0 -85 17.5 -138t59.5 -78t114 -25q73 0 115 25t59.5 78t17.5 138v431h43v-423q0 -102 -22.5 -165.5t-74.5 -92.5t-139 -29zM340 759l-26 13l71 119h-133v32h127q20 0 29.5 -8.5t9.5 -21.5q0 -11 -8 -27t-29 -46z
" />
    <glyph glyph-name="uni1EE7" unicode="&#x1ee7;" horiz-adv-x="559" 
d="M263 -12q-83 0 -128.5 50t-45.5 144v327h41v-319q0 -85 37 -125t106 -40q38 0 71.5 13.5t54.5 41t21 69.5v360h41v-509h-41v79h-3q-14 -35 -50.5 -63t-103.5 -28zM286 586l-26 13l71 119h-133v32h127q20 0 29.5 -8.5t9.5 -21.5q0 -11 -8 -27t-29 -46z" />
    <glyph glyph-name="uni1EE8" unicode="&#x1ee8;" horiz-adv-x="661" 
d="M329 -12q-87 0 -138 29t-73 92.5t-22 165.5v423h43v-431q0 -85 17.5 -138t59.5 -78t114 -25q73 0 115 25t59.5 78t17.5 138v431h84v111h37v-100q0 -19 -9 -30t-32 -11h-37v-393q0 -102 -22.5 -165.5t-74.5 -92.5t-139 -29zM320 763l-27 15l102 159l37 -20z" />
    <glyph glyph-name="uni1EE9" unicode="&#x1ee9;" horiz-adv-x="560" 
d="M264 -12q-83 0 -128.5 50t-45.5 144v327h41v-319q0 -85 37 -125t105 -40q39 0 72.5 13.5t54.5 41t21 69.5v360h84v112h37v-101q0 -19 -9 -29.5t-31 -10.5h-40v-480h-41v79h-3q-14 -35 -50.5 -63t-103.5 -28zM266 586l-27 15l102 159l37 -19z" />
    <glyph glyph-name="uni1EEA" unicode="&#x1eea;" horiz-adv-x="661" 
d="M329 -12q-87 0 -138 29t-73 92.5t-22 165.5v423h43v-431q0 -85 17.5 -138t59.5 -78t114 -25q73 0 115 25t59.5 78t17.5 138v431h84v111h37v-100q0 -19 -9 -30t-32 -11h-37v-393q0 -102 -22.5 -165.5t-74.5 -92.5t-139 -29zM339 763l-112 154l37 20l102 -159z" />
    <glyph glyph-name="uni1EEB" unicode="&#x1eeb;" horiz-adv-x="560" 
d="M264 -12q-83 0 -128.5 50t-45.5 144v327h41v-319q0 -85 37 -125t105 -40q39 0 72.5 13.5t54.5 41t21 69.5v360h84v112h37v-101q0 -19 -9 -29.5t-31 -10.5h-40v-480h-41v79h-3q-14 -35 -50.5 -63t-103.5 -28zM286 586l-112 155l37 19l102 -159z" />
    <glyph glyph-name="uni1EEC" unicode="&#x1eec;" horiz-adv-x="661" 
d="M329 -12q-87 0 -138 29t-73 92.5t-22 165.5v423h43v-431q0 -85 17.5 -138t59.5 -78t114 -25q73 0 115 25t59.5 78t17.5 138v431h84v111h37v-100q0 -19 -9 -30t-32 -11h-37v-393q0 -102 -22.5 -165.5t-74.5 -92.5t-139 -29zM340 759l-26 13l71 119h-133v32h127
q20 0 29.5 -8.5t9.5 -21.5q0 -11 -8 -27t-29 -46z" />
    <glyph glyph-name="uni1EED" unicode="&#x1eed;" horiz-adv-x="560" 
d="M264 -12q-83 0 -128.5 50t-45.5 144v327h41v-319q0 -85 37 -125t105 -40q39 0 72.5 13.5t54.5 41t21 69.5v360h84v112h37v-101q0 -19 -9 -29.5t-31 -10.5h-40v-480h-41v79h-3q-14 -35 -50.5 -63t-103.5 -28zM286 601l-26 13l71 119h-133v32h127q20 0 29.5 -8.5t9.5 -21.5
q0 -11 -8 -27t-29 -46z" />
    <glyph glyph-name="uni1EEE" unicode="&#x1eee;" horiz-adv-x="661" 
d="M329 -12q-87 0 -138 29t-73 92.5t-22 165.5v423h43v-431q0 -85 17.5 -138t59.5 -78t114 -25q73 0 115 25t59.5 78t17.5 138v431h84v111h37v-100q0 -19 -9 -30t-32 -11h-37v-393q0 -102 -22.5 -165.5t-74.5 -92.5t-139 -29zM398 801q-19 0 -35.5 7t-38.5 20
q-21 13 -35 18.5t-28 5.5q-18 0 -32.5 -7.5t-30.5 -23.5l-19 21q17 20 37.5 32t45.5 12q19 0 36 -7t38 -20t35.5 -18.5t27.5 -5.5q18 0 32.5 8t30.5 23l19 -22q-17 -20 -37.5 -31.5t-45.5 -11.5z" />
    <glyph glyph-name="uni1EEF" unicode="&#x1eef;" horiz-adv-x="560" 
d="M264 -12q-83 0 -128.5 50t-45.5 144v327h41v-319q0 -85 37 -125t105 -40q39 0 72.5 13.5t54.5 41t21 69.5v360h84v112h37v-101q0 -19 -9 -29.5t-31 -10.5h-40v-480h-41v79h-3q-14 -35 -50.5 -63t-103.5 -28zM344 624q-19 0 -35.5 7t-38.5 20q-21 13 -35 18.5t-28 5.5
q-18 0 -32.5 -7.5t-30.5 -23.5l-19 22q17 20 37.5 31.5t45.5 11.5q19 0 36 -6.5t38 -20.5q21 -13 35.5 -18.5t27.5 -5.5q18 0 32.5 8t30.5 23l19 -21q-17 -20 -37.5 -32t-45.5 -12z" />
    <glyph glyph-name="uni1EF0" unicode="&#x1ef0;" horiz-adv-x="661" 
d="M329 -12q-87 0 -138 29t-73 92.5t-22 165.5v423h43v-431q0 -85 17.5 -138t59.5 -78t114 -25q73 0 115 25t59.5 78t17.5 138v431h84v111h37v-100q0 -19 -9 -30t-32 -11h-37v-393q0 -102 -22.5 -165.5t-74.5 -92.5t-139 -29zM330 -146q-17 0 -24.5 8.5t-7.5 21.5v8
q0 12 7.5 20.5t24.5 8.5t24.5 -8.5t7.5 -20.5v-8q0 -13 -7.5 -21.5t-24.5 -8.5z" />
    <glyph glyph-name="uni1EF1" unicode="&#x1ef1;" horiz-adv-x="560" 
d="M264 -12q-83 0 -128.5 50t-45.5 144v327h41v-319q0 -85 37 -125t105 -40q39 0 72.5 13.5t54.5 41t21 69.5v360h84v112h37v-101q0 -19 -9 -29.5t-31 -10.5h-40v-480h-41v79h-3q-14 -35 -50.5 -63t-103.5 -28zM269 -146q-17 0 -24.5 8.5t-7.5 21.5v8q0 12 7.5 20.5
t24.5 8.5t24.5 -8.5t7.5 -20.5v-8q0 -13 -7.5 -21.5t-24.5 -8.5z" />
    <glyph glyph-name="Ygrave" unicode="&#x1ef2;" horiz-adv-x="562" 
d="M259 0v288l-241 410h49l213 -364h3l212 364h48l-241 -409v-289h-43zM290 763l-112 154l37 20l102 -159z" />
    <glyph glyph-name="ygrave" unicode="&#x1ef3;" horiz-adv-x="468" 
d="M68 -200v36h89l57 153l-192 520h42l112 -307l56 -159h3l56 155l114 311h40l-247 -670q-5 -14 -12.5 -23t-18.5 -12.5t-29 -3.5h-70zM244 585l-112 155l37 19l102 -159z" />
    <glyph glyph-name="uni1EF4" unicode="&#x1ef4;" horiz-adv-x="562" 
d="M259 0v288l-241 410h49l213 -364h3l212 364h48l-241 -409v-289h-43zM281 -146q-17 0 -24.5 8.5t-7.5 21.5v8q0 12 7.5 20.5t24.5 8.5t24.5 -8.5t7.5 -20.5v-8q0 -13 -7.5 -21.5t-24.5 -8.5z" />
    <glyph glyph-name="uni1EF5" unicode="&#x1ef5;" horiz-adv-x="468" 
d="M68 -200v36h89l57 153l-192 520h42l112 -307l56 -159h3l56 155l114 311h40l-247 -670q-5 -14 -12.5 -23t-18.5 -12.5t-29 -3.5h-70zM368 -146q-17 0 -24.5 8.5t-7.5 21.5v8q0 12 7.5 20.5t24.5 8.5t24.5 -8.5t7.5 -20.5v-8q0 -13 -7.5 -21.5t-24.5 -8.5z" />
    <glyph glyph-name="uni1EF8" unicode="&#x1ef8;" horiz-adv-x="562" 
d="M259 0v288l-241 410h49l213 -364h3l212 364h48l-241 -409v-289h-43zM353 799q-20 0 -38 8t-40 21q-23 14 -38.5 19.5t-29.5 5.5q-17 0 -32 -7.5t-30 -23.5l-19 22q16 20 37 31.5t46 11.5q20 0 38 -7t40 -21q23 -14 38.5 -20t29.5 -6q17 0 32 8t30 23l19 -21
q-16 -20 -37 -32t-46 -12z" />
    <glyph glyph-name="uni1EF9" unicode="&#x1ef9;" horiz-adv-x="468" 
d="M68 -200v36h89l57 153l-192 520h42l112 -307l56 -159h3l56 155l114 311h40l-247 -670q-5 -14 -12.5 -23t-18.5 -12.5t-29 -3.5h-70zM307 622q-20 0 -38 7.5t-40 20.5q-23 14 -38.5 20t-29.5 6q-17 0 -32 -8t-30 -23l-19 21q16 20 37 32t46 12q20 0 38 -7.5t40 -21.5
q23 -14 38.5 -19.5t29.5 -5.5q17 0 32 8t30 23l19 -22q-16 -20 -37 -31.5t-46 -11.5z" />
    <glyph glyph-name="endash" unicode="&#x2013;" horiz-adv-x="588" 
d="M36 286v37h516v-37h-516z" />
    <glyph glyph-name="emdash" unicode="&#x2014;" horiz-adv-x="780" 
d="M36 286v37h708v-37h-708z" />
    <glyph glyph-name="quoteleft" unicode="&#x2018;" horiz-adv-x="251" 
d="M121 523q-19 0 -28.5 10.5t-9.5 26.5v13q0 41 23 88t59 79h35q-36 -35 -53 -70.5t-22 -65.5q19 -1 27 -10.5t8 -22.5v-11q0 -16 -9.5 -26.5t-29.5 -10.5z" />
    <glyph glyph-name="quoteright" unicode="&#x2019;" horiz-adv-x="251" 
d="M54 533q35 36 52.5 71t21.5 65q-18 2 -26 11.5t-8 21.5v11q0 16 9.5 26.5t29.5 10.5t29 -10.5t9 -26.5v-13q0 -40 -23 -87t-59 -80h-35z" />
    <glyph glyph-name="quotesinglbase" unicode="&#x201a;" horiz-adv-x="251" 
d="M46 -128q36 36 53 71t22 65q-19 2 -27 11t-8 22v11q0 16 9.5 26.5t29.5 10.5t29 -10.5t9 -26.5v-13q0 -41 -23 -88t-59 -79h-35z" />
    <glyph glyph-name="quotedblleft" unicode="&#x201c;" horiz-adv-x="425" 
d="M295 523q-19 0 -28.5 10.5t-9.5 26.5v13q0 41 23 88t59 79h35q-36 -35 -53 -70.5t-22 -65.5q19 -1 27 -10.5t8 -22.5v-11q0 -16 -9.5 -26.5t-29.5 -10.5zM121 523q-19 0 -28.5 10.5t-9.5 26.5v13q0 41 23 88t59 79h35q-36 -35 -53 -70.5t-22 -65.5q19 -1 27 -10.5
t8 -22.5v-11q0 -16 -9.5 -26.5t-29.5 -10.5z" />
    <glyph glyph-name="quotedblright" unicode="&#x201d;" horiz-adv-x="425" 
d="M228 533q35 36 52 71t22 65q-19 2 -26.5 11.5t-7.5 21.5v11q0 16 9 26.5t30 10.5q20 0 28.5 -10.5t8.5 -26.5v-13q0 -40 -23 -87t-58 -80h-35zM54 533q35 36 52.5 71t21.5 65q-18 2 -26 11.5t-8 21.5v11q0 16 9.5 26.5t29.5 10.5t29 -10.5t9 -26.5v-13q0 -40 -23 -87
t-59 -80h-35z" />
    <glyph glyph-name="quotedblbase" unicode="&#x201e;" horiz-adv-x="425" 
d="M220 -128q35 36 52.5 71t21.5 65q-18 2 -26 11t-8 22v11q0 16 9.5 26.5t29.5 10.5t29 -10.5t9 -26.5v-13q0 -41 -23 -88t-59 -79h-35zM46 -128q36 36 53 71t22 65q-19 2 -27 11t-8 22v11q0 16 9.5 26.5t29.5 10.5t29 -10.5t9 -26.5v-13q0 -41 -23 -88t-59 -79h-35z" />
    <glyph glyph-name="dagger" unicode="&#x2020;" horiz-adv-x="558" 
d="M260 -200v675h-205v34h205v231h38v-231h205v-34h-205v-675h-38z" />
    <glyph glyph-name="daggerdbl" unicode="&#x2021;" horiz-adv-x="558" 
d="M260 -200v231h-205v34h205v410h-205v34h205v231h38v-231h205v-34h-205v-410h205v-34h-205v-231h-38z" />
    <glyph glyph-name="bullet" unicode="&#x2022;" horiz-adv-x="356" 
d="M178 207q-53 0 -75.5 25t-22.5 60v24q0 36 22.5 60.5t75.5 24.5q54 0 76 -24.5t22 -60.5v-24q0 -35 -22 -60t-76 -25z" />
    <glyph glyph-name="ellipsis" unicode="&#x2026;" horiz-adv-x="748" 
d="M125 -7q-19 0 -28.5 9.5t-9.5 26.5v9q0 17 9.5 26.5t28.5 9.5q20 0 29.5 -9.5t9.5 -26.5v-9q0 -17 -9.5 -26.5t-29.5 -9.5zM374 -7q-19 0 -29 9.5t-10 26.5v9q0 17 10 26.5t29 9.5q20 0 29 -9.5t9 -26.5v-9q0 -17 -9 -26.5t-29 -9.5zM622 -7q-19 0 -28.5 9.5t-9.5 26.5v9
q0 17 9.5 26.5t28.5 9.5q20 0 29.5 -9.5t9.5 -26.5v-9q0 -17 -9.5 -26.5t-29.5 -9.5z" />
    <glyph glyph-name="perthousand" unicode="&#x2030;" horiz-adv-x="1262" 
d="M186 0l484 698h41l-484 -698h-41zM219 322q-42 0 -75.5 20.5t-52.5 63.5t-19 110t19 110t52.5 63.5t75.5 20.5q43 0 76 -20.5t52 -63.5t19 -110t-19 -110t-52 -63.5t-76 -20.5zM219 351q30 0 55 15t39.5 47t14.5 82v42q0 50 -14.5 82t-39.5 47t-55 15t-55 -15t-39.5 -47
t-14.5 -82v-42q0 -50 14.5 -82t39.5 -47t55 -15zM678 -12q-42 0 -75.5 20.5t-52.5 63.5t-19 110t19 110t52.5 63.5t75.5 20.5q43 0 76 -20.5t52 -63.5t19 -110t-19 -110t-52 -63.5t-76 -20.5zM678 17q30 0 55 15t39.5 47t14.5 82v42q0 50 -14.5 82t-39.5 47t-55 15t-55 -15
t-39.5 -47t-14.5 -82v-42q0 -50 14.5 -82t39.5 -47t55 -15zM1043 -12q-42 0 -75.5 20.5t-52.5 63.5t-19 110t19 110t52.5 63.5t75.5 20.5q43 0 76 -20.5t52 -63.5t19 -110t-19 -110t-52 -63.5t-76 -20.5zM1043 17q30 0 55 15t39.5 47t14.5 82v42q0 50 -14.5 82t-39.5 47
t-55 15t-55 -15t-39.5 -47t-14.5 -82v-42q0 -50 14.5 -82t39.5 -47t55 -15z" />
    <glyph glyph-name="minute" unicode="&#x2032;" horiz-adv-x="227" 
d="M67 383l56 315h38l-56 -315h-38z" />
    <glyph glyph-name="second" unicode="&#x2033;" horiz-adv-x="388" 
d="M67 383l56 315h38l-56 -315h-38zM228 383l56 315h38l-56 -315h-38z" />
    <glyph glyph-name="guilsinglleft" unicode="&#x2039;" horiz-adv-x="296" 
d="M231 97l-196 174v39l196 174l14 -28l-169 -165l169 -166z" />
    <glyph glyph-name="guilsinglright" unicode="&#x203a;" horiz-adv-x="296" 
d="M65 97l-14 28l169 166l-169 165l14 28l196 -174v-39z" />
    <glyph glyph-name="fraction" unicode="&#x2044;" horiz-adv-x="147" 
d="M-174 0l460 698h37l-460 -698h-37z" />
    <glyph glyph-name="uni2070" unicode="&#x2070;" horiz-adv-x="382" 
d="M191 323q-72 0 -104 49t-32 142q0 92 32 141t104 49t104 -49t32 -141t-32 -141.5t-104 -49.5zM191 351q54 0 77 37t23 101v49q0 64 -23 101t-77 37t-77 -37t-23 -101v-49q0 -64 23 -101t77 -37z" />
    <glyph glyph-name="uni2074" unicode="&#x2074;" horiz-adv-x="346" 
d="M225 329v83h-205v30l191 256h47v-258h62v-28h-62v-83h-33zM52 440h173v226h-3z" />
    <glyph glyph-name="uni2075" unicode="&#x2075;" horiz-adv-x="343" 
d="M167 323q-49 0 -79 18t-47 41l24 19q17 -22 39.5 -36t62.5 -14q48 0 72 23t24 60v11q0 38 -21.5 60t-69.5 22q-32 0 -51.5 -10t-35.5 -25l-29 4l13 202h213v-28h-185l-12 -156h3q16 19 38.5 30t53.5 11q56 0 87 -30.5t31 -82.5q0 -53 -34 -86t-97 -33z" />
    <glyph glyph-name="uni2076" unicode="&#x2076;" horiz-adv-x="361" 
d="M182 323q-59 0 -94 33t-35 100q0 57 24 104t57.5 82.5t63.5 55.5h47q-61 -40 -99.5 -85t-55.5 -110l2 -1q15 25 40 39t60 14q54 0 87.5 -30.5t33.5 -83.5q0 -54 -35.5 -86t-95.5 -32zM183 350q41 0 67.5 20.5t26.5 63.5v10q0 43 -26.5 63t-67.5 20t-67.5 -20t-26.5 -63
v-10q0 -43 26.5 -63.5t67.5 -20.5z" />
    <glyph glyph-name="uni2077" unicode="&#x2077;" horiz-adv-x="341" 
d="M113 329l154 341h-196v-83h-30v111h259v-30l-151 -339h-36z" />
    <glyph glyph-name="uni2078" unicode="&#x2078;" horiz-adv-x="389" 
d="M195 323q-69 0 -104.5 29t-35.5 75q0 40 23.5 61.5t61.5 30.5v3q-37 11 -54 35t-17 53q0 43 33 68.5t93 25.5q59 0 92 -25.5t33 -68.5q0 -29 -16.5 -53t-54.5 -35v-3q38 -9 61.5 -30.5t23.5 -61.5q0 -46 -35.5 -75t-103.5 -29zM195 350q50 0 76.5 19.5t26.5 53.5v10
q0 35 -26.5 54t-76.5 19q-51 0 -77.5 -19t-26.5 -54v-10q0 -34 26.5 -53.5t77.5 -19.5zM195 533q47 0 69 18.5t22 49.5v8q0 31 -22 49.5t-69 18.5t-69.5 -18.5t-22.5 -49.5v-8q0 -31 22.5 -49.5t69.5 -18.5z" />
    <glyph glyph-name="uni2079" unicode="&#x2079;" horiz-adv-x="361" 
d="M116 329q60 40 99 85t56 110l-3 1q-14 -26 -39 -39.5t-60 -13.5q-54 0 -87.5 31t-33.5 83q0 54 35.5 86t95.5 32t94 -33.5t34 -99.5q0 -57 -23.5 -104t-56.5 -82.5t-64 -55.5h-47zM178 499q41 0 67.5 20.5t26.5 63.5v10q0 43 -26.5 63.5t-67.5 20.5t-67.5 -20.5
t-26.5 -63.5v-10q0 -43 26.5 -63.5t67.5 -20.5z" />
    <glyph glyph-name="uni2080" unicode="&#x2080;" horiz-adv-x="382" 
d="M191 -6q-72 0 -104 49t-32 142q0 92 32 141t104 49t104 -49t32 -141t-32 -141.5t-104 -49.5zM191 22q54 0 77 37t23 101v49q0 64 -23 101t-77 37t-77 -37t-23 -101v-49q0 -64 23 -101t77 -37z" />
    <glyph glyph-name="uni2081" unicode="&#x2081;" horiz-adv-x="368" 
d="M58 0v28h123v314h-5l-113 -100l-20 21l119 106h52v-341h112v-28h-268z" />
    <glyph glyph-name="uni2082" unicode="&#x2082;" horiz-adv-x="345" 
d="M42 0v32l136 112q39 31 58 60.5t19 57.5v9q0 33 -21.5 54t-63.5 21t-66.5 -20t-35.5 -51l-29 10q12 36 44 63t88 27q59 0 89.5 -30.5t30.5 -75.5q0 -39 -24.5 -74t-69.5 -71l-119 -96h226v-28h-262z" />
    <glyph glyph-name="uni2083" unicode="&#x2083;" horiz-adv-x="347" 
d="M161 -6q-48 0 -77.5 18t-47.5 41l25 19q17 -22 39.5 -36t60.5 -14q48 0 72 21t24 57v6q0 35 -21.5 53t-71.5 18h-50v29h44q50 0 71 19t21 51v5q0 30 -21.5 48t-61.5 18q-36 0 -57.5 -12t-37.5 -34l-24 18q17 24 46 40t74 16q54 0 86 -25.5t32 -69.5q0 -36 -20.5 -57
t-52.5 -29v-3q37 -6 58 -28t21 -61q0 -49 -34.5 -78.5t-96.5 -29.5z" />
    <glyph glyph-name="uni2084" unicode="&#x2084;" horiz-adv-x="346" 
d="M225 0v83h-205v30l191 256h47v-258h62v-28h-62v-83h-33zM52 111h173v226h-3z" />
    <glyph glyph-name="uni2085" unicode="&#x2085;" horiz-adv-x="343" 
d="M167 -6q-49 0 -79 18t-47 41l24 19q17 -22 39.5 -36t62.5 -14q48 0 72 23t24 60v11q0 38 -21.5 60t-69.5 22q-32 0 -51.5 -10t-35.5 -25l-29 4l13 202h213v-28h-185l-12 -156h3q16 19 38.5 30t53.5 11q56 0 87 -30.5t31 -82.5q0 -53 -34 -86t-97 -33z" />
    <glyph glyph-name="uni2086" unicode="&#x2086;" horiz-adv-x="361" 
d="M182 -6q-59 0 -94 33t-35 100q0 57 24 104t57.5 82.5t63.5 55.5h47q-61 -40 -99.5 -85t-55.5 -110l2 -1q15 25 40 39t60 14q54 0 87.5 -30.5t33.5 -83.5q0 -54 -35.5 -86t-95.5 -32zM183 21q41 0 67.5 20.5t26.5 63.5v10q0 43 -26.5 63t-67.5 20t-67.5 -20t-26.5 -63v-10
q0 -43 26.5 -63.5t67.5 -20.5z" />
    <glyph glyph-name="uni2087" unicode="&#x2087;" horiz-adv-x="341" 
d="M113 0l154 341h-196v-82h-30v110h259v-30l-151 -339h-36z" />
    <glyph glyph-name="uni2088" unicode="&#x2088;" horiz-adv-x="389" 
d="M195 -6q-69 0 -104.5 29t-35.5 75q0 40 23.5 61.5t61.5 30.5v3q-37 11 -54 35t-17 53q0 43 33 68.5t93 25.5q59 0 92 -25.5t33 -68.5q0 -29 -16.5 -53t-54.5 -35v-3q38 -9 61.5 -30.5t23.5 -61.5q0 -46 -35.5 -75t-103.5 -29zM195 21q50 0 76.5 19.5t26.5 53.5v10
q0 35 -26.5 54t-76.5 19q-51 0 -77.5 -19t-26.5 -54v-10q0 -34 26.5 -53.5t77.5 -19.5zM195 204q47 0 69 18.5t22 49.5v8q0 31 -22 49.5t-69 18.5t-69.5 -18.5t-22.5 -49.5v-8q0 -31 22.5 -49.5t69.5 -18.5z" />
    <glyph glyph-name="uni2089" unicode="&#x2089;" horiz-adv-x="361" 
d="M116 0q60 40 99 85t56 110l-3 1q-14 -26 -39 -39.5t-60 -13.5q-54 0 -87.5 31t-33.5 83q0 54 35.5 86t95.5 32t94 -33.5t34 -99.5q0 -57 -23.5 -104t-56.5 -82.5t-64 -55.5h-47zM178 170q41 0 67.5 20.5t26.5 63.5v10q0 43 -26.5 63.5t-67.5 20.5t-67.5 -20.5
t-26.5 -63.5v-10q0 -43 26.5 -63.5t67.5 -20.5z" />
    <glyph glyph-name="colonmonetary" unicode="&#x20a1;" horiz-adv-x="616" 
d="M182 -82l13 113q-62 37 -95.5 116t-33.5 201q0 157 54 243t153 104l9 85h36l-10 -81q26 2 48.5 0t45.5 -9l10 90h36l-12 -101q41 -17 71 -50t49 -75l-35 -20q-14 35 -37 62t-53 42l-71 -599q61 6 103 41.5t63 91.5l35 -20q-26 -64 -77.5 -105.5t-126.5 -47.5l-10 -81h-35
l9 80q-25 1 -48.5 5.5t-43.5 13.5l-12 -99h-35zM201 76l67 578q-74 -18 -115 -86t-41 -186v-66q0 -87 23 -147.5t66 -92.5zM326 36l72 615q-25 9 -47.5 10t-47.5 -1l-70 -602q41 -21 93 -22z" />
    <glyph glyph-name="lira" unicode="&#x20a4;" horiz-adv-x="584" 
d="M83 0v50q41 27 64 72.5t24 101.5q0 6 -0.5 11.5t-1.5 11.5h-104v35h100q-6 33 -17 62t-22 59h-61v35h52q-4 16 -6.5 33t-2.5 35q0 63 27 108.5t75.5 70.5t112.5 25q68 0 119 -30t85 -87l-33 -22q-31 51 -73 76t-99 25q-76 0 -123 -43.5t-47 -124.5q0 -18 2.5 -34t6.5 -32
h262v-35h-253q10 -30 21 -59t17 -62h215v-35h-211q0 -5 0.5 -10t0.5 -11q-1 -57 -24.5 -106t-63.5 -79v-3h392v-38h-434z" />
    <glyph glyph-name="uni20A6" unicode="&#x20a6;" horiz-adv-x="675" 
d="M106 0v252h-90v35h90v124h-90v35h90v252h51l148 -253h224v253h41v-252h90v-35h-90v-124h90v-35h-90v-252h-53l-148 253h-223v-253h-40zM146 286h205l-202 350h-3v-350zM526 59h3v353h-207z" />
    <glyph glyph-name="uni20A8" unicode="&#x20a8;" horiz-adv-x="717" 
d="M542 -12q-56 0 -95 22.5t-65 73.5l-127 245h-111v-329h-41v698h134q90 0 132.5 -48.5t42.5 -135.5q0 -71 -28.5 -116.5t-87.5 -60.5l121 -231q22 -41 51.5 -61.5t76.5 -20.5q42 0 69 24t27 62q0 20 -5 34t-18.5 28.5t-38.5 34.5l-33 26q-44 37 -63.5 67t-19.5 70
q0 41 28 72.5t85 31.5q28 0 53 -8t45 -25l-20 -30q-15 14 -34 21.5t-42 7.5q-37 0 -56 -19.5t-19 -49.5q0 -33 17 -57t53 -54l32 -25q28 -23 44.5 -41.5t23.5 -38t7 -45.5q0 -35 -17 -62.5t-47.5 -43.5t-73.5 -16zM144 365h90q64 0 99 32t35 94v44q0 62 -35 94t-99 32h-90
v-296z" />
    <glyph glyph-name="uni20A9" unicode="&#x20a9;" horiz-adv-x="917" 
d="M227 0l-64 249h-123v35h115l-32 124h-83v35h74l-66 255h43l65 -256h205l71 256h53l69 -256h208l66 256h42l-67 -255h75v-35h-84l-33 -124h117v-35h-126l-65 -249h-51l-68 250h-221l-69 -250h-51zM253 54h3l86 317l10 38h-188l9 -38zM660 54h3l81 317l10 38h-191l10 -38z
M356 283h203l-12 44l-88 326h-3l-88 -326z" />
    <glyph glyph-name="uni20AA" unicode="&#x20aa;" horiz-adv-x="767" 
d="M276 0v561h42v-524h197q28 0 52.5 11t40 39.5t15.5 77.5v533h41v-528q0 -86 -40.5 -128t-108.5 -42h-239zM103 0v698h233q68 0 111.5 -41.5t43.5 -128.5v-391h-41v396q0 50 -17 78t-43 39t-55 11h-191v-661h-41z" />
    <glyph glyph-name="dong" unicode="&#x20ab;" horiz-adv-x="568" 
d="M262 109q-90 0 -141 56.5t-51 165.5q0 108 51 164.5t141 56.5q60 0 97.5 -24.5t53.5 -58.5h4v167h-160v33h160v71h39v-71h71v-33h-71v-516h-39v72h-4q-16 -33 -53.5 -58t-97.5 -25zM70 0v36h419v-36h-419zM272 143q40 0 72.5 15t52.5 41.5t20 61.5v138q0 36 -20 63
t-52.5 41.5t-72.5 14.5q-75 0 -117.5 -43t-42.5 -116v-56q0 -73 42.5 -116.5t117.5 -43.5z" />
    <glyph glyph-name="Euro" unicode="&#x20ac;" horiz-adv-x="615" 
d="M332 -12q-84 0 -143.5 41t-91 121t-31.5 199t31.5 199.5t91 121t143.5 40.5q53 0 96.5 -18t75 -51t51.5 -77l-34 -20q-25 59 -73.5 93.5t-115.5 34.5q-91 0 -148 -58t-70 -169h261v-35h-263v-122h263v-35h-261q13 -111 70 -169t148 -58q71 0 120.5 37t73.5 99l34 -20
q-19 -45 -50.5 -80t-76 -54.5t-101.5 -19.5z" />
    <glyph glyph-name="uni20AD" unicode="&#x20ad;" horiz-adv-x="585" 
d="M106 0v348h-92v36h92v314h42v-314h90l252 314h48l-253 -314h239v-36h-236l266 -348h-51l-264 348h-91v-348h-42z" />
    <glyph glyph-name="uni20AE" unicode="&#x20ae;" horiz-adv-x="589" 
d="M273 0v221l-148 -72v37l148 72v116l-148 -72v37l148 72v249h-242v38h527v-38h-242v-229l149 72v-37l-149 -72v-116l149 72v-37l-149 -72v-241h-43z" />
    <glyph glyph-name="uni20B1" unicode="&#x20b1;" horiz-adv-x="614" 
d="M111 0v373h-90v35h90v119h-90v35h90v136h226q71 0 114.5 -36.5t57.5 -99.5h88v-35h-83q1 -15 1 -30v-30v-29.5t-1 -29.5h83v-35h-88q-14 -64 -57 -100.5t-115 -36.5h-184v-236h-42zM153 273h184q57 0 90.5 29.5t41.5 71.5h-316v-101zM153 407h320v121h-320v-121zM153 561
h316q-9 41 -42 70.5t-90 29.5h-184v-100z" />
    <glyph glyph-name="uni20B2" unicode="&#x20b2;" horiz-adv-x="655" 
d="M242 -82l16 89q-92 24 -142 110t-50 233q0 117 31 194.5t91 116.5t146 39q8 0 17 -0.5t18 -1.5l13 82h35l-14 -88q3 -1 8 -2t13 -4q46 -15 82 -47.5t56 -79.5l-35 -20q-18 44 -51.5 73.5t-79.5 41.5l-50 -313h233v-117q0 -57 -19.5 -99.5t-54 -71t-79 -42t-94.5 -13.5
q-10 0 -20.5 1t-19.5 2l-15 -83h-35zM336 36q57 0 102.5 21t72 61.5t26.5 98.5v86h-197l-42 -264q9 -1 19 -2t19 -1zM265 47l98 613q-6 1 -13.5 1.5t-15.5 0.5q-104 0 -163 -71.5t-59 -208.5v-66q0 -111 40.5 -179.5t112.5 -89.5z" />
    <glyph glyph-name="uni20B4" unicode="&#x20b4;" horiz-adv-x="621" 
d="M311 -12q-59 0 -104 21.5t-70 61.5t-25 94q0 32 9.5 55.5t21.5 42.5h-98v35h127l207 124h-334v35h377q15 17 21 38t6 47q0 62 -39 96t-107 34q-42 0 -82.5 -17.5t-77.5 -58.5l-29 27q42 46 91.5 66.5t100.5 20.5q56 0 97.5 -20t65 -57t23.5 -89q0 -28 -6.5 -49.5
t-18.5 -37.5h97v-35h-123l-207 -124h330v-35h-374q-16 -20 -25.5 -43t-9.5 -53q0 -68 42.5 -104.5t115.5 -36.5q45 0 89.5 20.5t87.5 67.5l27 -28q-44 -50 -97 -74t-109 -24z" />
    <glyph glyph-name="uni20B5" unicode="&#x20b5;" horiz-adv-x="616" 
d="M236 -82l16 90q-89 24 -137.5 109t-48.5 232q0 113 31 194t96.5 122.5t168.5 32.5l14 82h35l-15 -88q56 -13 96.5 -49t63.5 -89l-35 -19q-19 45 -52.5 76t-79.5 43l-97 -615q9 -1 19 -2t21 -1q72 0 121.5 37t72.5 99l35 -20q-19 -45 -51 -80t-76 -54.5t-102 -19.5
q-12 0 -23.5 1t-22.5 2l-15 -83h-35zM259 47l98 614q-83 7 -137.5 -26t-81 -98t-26.5 -155v-66q0 -113 38.5 -180t108.5 -89z" />
    <glyph glyph-name="uni20B8" unicode="&#x20b8;" horiz-adv-x="604" 
d="M281 0v509h-242v36h526v-36h-242v-509h-42zM39 661v37h526v-37h-526z" />
    <glyph glyph-name="uni20B9" unicode="&#x20b9;" horiz-adv-x="609" 
d="M457 0l-236 314h-157v37h223q68 0 103.5 37.5t35.5 96.5v9h-362v37h362q-1 58 -37 94t-101 36h-224v37h513v-37h-193v-2q21 -8 39 -23.5t30 -41t15 -63.5h109v-37h-110v-6q0 -50 -22 -89.5t-62.5 -62t-95.5 -22.5h-17l239 -314h-52z" />
    <glyph glyph-name="uni20BA" unicode="&#x20ba;" horiz-adv-x="609" 
d="M139 0v285l-119 -57v37l119 57v116l-119 -58v37l119 58v223h43v-204l211 102v-37l-211 -102v-115l211 102v-37l-211 -102v-267h126q66 0 112.5 34.5t71 95t24.5 137.5h42q0 -86 -28.5 -155t-83 -109.5t-134.5 -40.5h-173z" />
    <glyph glyph-name="uni20BD" unicode="&#x20bd;" horiz-adv-x="606" 
d="M111 0v159h-90v37h90v118h-90v37h90v347h271q89 0 135 -52t46 -140q0 -87 -46 -139.5t-135 -52.5h-229v-118h257v-37h-257v-159h-42zM153 351h229q46 0 75.5 18t44.5 47.5t15 65.5v47q0 36 -15 65.5t-44.5 47.5t-75.5 18h-229v-309z" />
    <glyph glyph-name="uni20BF" unicode="&#x20bf;" horiz-adv-x="618" 
d="M215 -82v103h-112v656h112v103h36v-103h90v103h37v-104q69 -5 107.5 -47t38.5 -116q0 -63 -29 -97t-75 -47v-3q40 -6 69.5 -26t46.5 -54.5t17 -82.5q0 -54 -20.5 -95t-60 -64t-94.5 -23v-103h-37v103h-90v-103h-36zM145 59h224q47 0 77.5 16.5t46 44.5t15.5 62v40
q0 34 -15.5 62t-46 44.5t-77.5 16.5h-224v-286zM145 382h212q63 0 92.5 32t29.5 78v38q0 46 -29.5 77.5t-92.5 31.5h-212v-257z" />
    <glyph glyph-name="uni2113" unicode="&#x2113;" horiz-adv-x="469" 
d="M259 -12q-47 0 -77.5 21.5t-44 61t-13.5 91.5v28q-16 -13 -33 -24.5t-33 -21.5l-18 28q20 13 41.5 27.5t41.5 31.5v337q0 65 14.5 105t42 59.5t65.5 19.5q58 0 88 -38t30 -112q0 -69 -25.5 -137.5t-70.5 -131.5t-104 -116v-48q0 -74 23.5 -109.5t75.5 -35.5q36 0 62 15
t45.5 41t35.5 56l31 -18q-17 -34 -40.5 -63.5t-57 -48t-79.5 -18.5zM163 262q47 48 83.5 103.5t57 114.5t20.5 117v13q0 57 -21 82t-57 25t-59.5 -32t-23.5 -114v-309z" />
    <glyph glyph-name="uni2116" unicode="&#x2116;" horiz-adv-x="1016" 
d="M103 0v698h52l223 -372l164 -269h3v641h40v-698h-53l-244 404l-142 235h-3v-639h-40zM693 271v35h274v-35h-274zM830 365q-69 0 -110.5 46.5t-41.5 127.5q0 80 41.5 125.5t110.5 45.5q68 0 109.5 -45.5t41.5 -125.5q0 -81 -41.5 -127.5t-109.5 -46.5zM830 394
q55 0 84.5 36.5t29.5 87.5v41q0 33 -13 60.5t-38.5 44.5t-62.5 17t-62.5 -17t-38.5 -44.5t-13 -60.5v-41q0 -51 29.5 -87.5t84.5 -36.5z" />
    <glyph glyph-name="trademark" unicode="&#x2122;" horiz-adv-x="645" 
d="M127 426v246h-101v26h230v-26h-100v-246h-29zM321 426v272h36l82 -157h2l82 157h35v-272h-27v140l1 90h-3l-89 -169l-90 169h-3l1 -90v-140h-27z" />
    <glyph glyph-name="uni2126" unicode="&#x2126;" horiz-adv-x="704" 
d="M74 0v38h171v15q-59 33 -98 78.5t-57.5 106t-18.5 141.5q0 74 17.5 134.5t53 104.5t88 68t122.5 24t122.5 -24t88 -68t53 -104.5t17.5 -134.5q0 -81 -18.5 -141.5t-57.5 -106t-98 -78.5v-15h171v-38h-208v70q27 12 56 35.5t54 58t40 80t15 101.5v73q0 73 -28.5 130.5
t-81.5 90.5t-125 33t-125 -33t-81.5 -90.5t-28.5 -130.5v-73q0 -56 15 -101.5t40 -80t54 -58t56 -35.5v-70h-208z" />
    </font>
</defs>
</svg>
